<svg xmlns="http://www.w3.org/2000/svg" viewBox="0 0 1000 1000" xml:space="preserve">
  <path d="M471.19 82.79c-2.11 6.13-4.41 12.26-4.79 13.61-.57 1.34-3.45 2.87-6.71 3.45-3.07.77-5.75 1.72-5.75 2.49 0 .58-.96 2.49-1.92 4.02-1.53 2.3-2.87 1.72-8.24-3.45-7.09-6.9-20.5-10.73-20.5-5.94 0 1.53 1.34 4.41 2.87 6.32 4.79 6.32 3.45 8.24-6.9 9.58-13.03 1.72-19.74 8.81-22.8 23.19-1.53 7.86-2.87 10.16-4.98 9.2-1.53-.57-7.67 2.3-13.8 6.52-5.94 4.02-13.22 8.43-15.91 9.58-4.6 1.92-4.79 2.87-4.6 15.71.19 7.47.77 14.18 1.53 14.76 3.26 3.26.77 8.05-7.67 15.33-8.81 7.67-9.01 8.24-6.52 12.84 2.3 4.22 2.11 5.94-.38 12.65-1.92 4.41-2.68 10.16-2.11 13.22.77 4.22-.19 6.9-4.02 11.69-4.6 5.37-4.98 6.71-3.07 10.92 1.72 4.02 1.34 5.75-2.11 10.54-3.26 4.22-4.41 9.2-4.98 18.97l-.77 13.41h-8.05c-12.07 0-13.8 1.92-11.31 12.26l1.92 8.82-9.77 2.87c-5.37 1.72-16.86 3.64-25.49 4.22-8.81.57-15.9 1.92-15.9 2.68 0 3.45-12.26 7.67-28.55 10.16-9.2 1.34-18.97 3.83-21.46 5.56-2.49 1.92-7.47 3.26-10.92 3.26-5.56 0-8.62-2.3-22.42-16.1-15.52-15.71-16.1-16.1-36.03-22.8-17.44-5.75-22.23-8.43-33.92-18.21-9.58-8.05-18.78-13.61-31.24-18.78-20.5-8.62-28.94-15.52-41.58-34.3-19.72-28.94-24.9-28.75-21.26.76 4.22 34.88 14.76 63.24 27.21 73.78 3.45 2.87 10.92 7.67 16.86 10.73 5.94 3.07 12.46 8.05 14.37 11.11 2.11 3.07 6.13 7.09 9.2 9.2 6.52 4.41 6.71 5.94 1.15 7.47-11.31 3.45-16.48 7.28-19.74 14.56-3.26 7.09-3.26 7.67-.19 9.96 1.72 1.15 3.83 4.98 4.6 8.05 1.15 4.22 3.64 6.9 9.96 9.97 9.39 4.41 11.5 4.22 11.5-1.15 0-1.92 1.15-4.6 2.49-5.75 2.11-1.53 4.02-.38 8.82 5.56 3.45 4.22 7.86 7.67 9.77 7.67 3.26 0 3.83 1.34 3.83 7.47 0 4.22.96 8.24 2.11 9.01 1.15.57 1.72 4.6 1.34 8.62-.77 9.2 3.45 10.35 6.71 1.72 1.53-4.02 3.45-5.75 6.52-5.75 3.83 0 4.41.96 4.41 7.09 0 4.02 1.72 11.11 3.83 15.71 4.98 10.92 4.79 11.69-1.92 11.69-4.98 0-5.75.77-5.75 4.98 0 3.26-3.45 8.43-10.73 16.29l-10.92 11.33 1.34 12.84c.77 7.28 2.49 18.59 4.02 25.49 1.34 6.71 2.11 13.03 1.53 13.99-.38.77-6.13.96-12.46.19l-11.69-1.34 1.15 10.73c2.11 20.51 9.2 28.36 29.7 33.15l10.16 2.3-1.15-5.55c-1.53-6.9.38-10.35 4.02-7.29 1.53 1.15 2.68 5.56 2.68 9.58 0 6.52.77 7.67 6.71 10.54 9.01 4.21 9.58 5.75 5.75 13.03-2.3 4.21-3.07 8.05-2.11 11.5 1.34 5.17 1.72 5.17 10.35 4.02l9.01-1.15 3.64 16.86c4.02 18.59 4.79 31.23 2.68 45.03l-1.53 9.2h21.08v12.65c0 10.35.57 12.46 2.87 11.5 8.43-3.06 21.65-3.26 27.4-.38 3.45 1.72 6.13 4.02 6.13 4.98 0 4.21 14.76 12.26 31.04 17.05 9.77 2.88 24.91 8.81 33.54 13.22 8.81 4.41 16.29 8.05 16.86 8.05.57 0 .96-1.73.96-3.83 0-4.6 0-4.6 34.49-1.72l25.49 2.11 5.75-6.13c4.79-5.17 6.71-5.94 11.69-4.98 18.01 3.45 19.55 3.45 22.04.57 2.11-2.68 2.87-2.49 6.13.77 3.45 3.45 6.13 3.83 21.46 3.45 17.06-.58 18.21-.38 34.88 7.28 21.85 9.96 35.64 13.99 47.14 13.99 12.26 0 14.37-.96 21.08-10.73 9.39-13.8 11.31-12.08 24.15 20.88 5.17 13.42 6.32 19.16 5.56 24.72-.57 4.02-1.53 10.92-2.11 15.52-1.92 14.76-2.87 16.48-11.5 22.42-6.9 4.79-8.62 7.28-9.96 13.99-1.34 6.52-2.88 8.82-8.81 11.88-12.65 6.9-11.12 11.69 5.75 17.06 9.2 3.06 19.74 10.92 19.74 14.75 0 2.68 5.18 1.92 7.67-1.15 3.26-4.02 9.97-3.64 13.99.96 2.68 3.06 4.02 3.45 8.24 1.72 2.87-.96 6.51-1.34 8.24-.77 1.73.77 4.21-.58 5.94-2.88 2.87-3.83 3.07-3.83 13.22 3.26 10.35 7.28 10.54 7.28 29.89 7.28 15.52 0 20.31.77 24.72 3.45 2.88 1.92 5.56 3.26 5.75 2.88 10.54-16.86 12.84-19.16 15.52-14.95 2.3 3.83 7.67 1.72 15.52-5.94 8.43-8.24 12.27-8.43 12.27-.58 0 5.17 2.11 5.56 15.14 2.49 4.6-.96 8.62-1.54 9-1.15.39.38 0 3.45-.96 6.71-1.72 5.94-1.53 5.75 11.69-5.56 9.39-8.05 14.18-10.92 15.52-9.58 1.34 1.34 3.64.77 7.47-1.92 3.07-2.3 8.43-4.79 12.07-5.75 3.64-.96 8.24-4.41 10.54-7.47 6.9-9.58 22.42-13.41 35.45-8.81 2.87 1.15 2.49.38-1.34-3.07l-5.37-4.6 6.52-9.58c3.83-5.56 9.39-11.12 13.8-13.22 4.22-2.11 7.86-4.02 8.24-4.41.38-.19-1.92-4.22-5.17-8.82-7.47-10.35-8.24-18.4-1.73-18.4s27.21-7.86 33.34-12.65l5.36-4.22-4.21-5.94c-6.33-8.43-5.56-9.77 5.36-9.77 8.62 0 9.58-.38 8.43-3.26-4.79-11.69-4.98-16.67-1.73-29.7l3.45-13.22 7.09 1.15c6.33 1.15 7.67.57 10.35-3.64 1.92-2.88 7.28-6.32 12.65-8.24 9.2-3.26 9.39-3.64 9.39-11.12 0-4.21-2.3-14.56-4.98-22.8-5.17-16.67-4.98-19.74 1.54-20.7 3.26-.38 6.13-4.02 11.11-13.61 6.71-13.22 12.46-18.4 20.7-18.59 4.02 0 4.21-.77 4.21-16.48 0-13.61.96-18.78 5.56-30.09 2.88-7.67 5.94-16.48 6.71-19.74 1.34-5.56.96-6.13-4.98-7.28-6.33-1.15-18.78-11.5-18.78-15.52 0-1.34 1.34-4.98 3.07-8.43 2.11-4.41 2.68-8.62 1.92-13.8-1.34-8.43.96-14.37 7.09-19.36l4.21-3.26-4.6-10.16c-8.24-18.78-8.81-22.42-4.41-34.3l3.83-10.92-14.76.96-14.56.96-9-7.86c-9.77-8.62-25.1-16.48-36.41-18.4-4.02-.77-7.28-2.11-7.28-2.87 0-.96 2.68-5.94 5.94-11.11 7.47-12.07 9.01-23 4.6-30.66-3.26-5.56-3.26-5.75 1.73-13.03 6.13-9.2 6.13-12.84.38-28.36-2.68-6.9-5.36-16.48-5.94-21.66-.77-4.98-3.45-13.6-5.94-18.78-6.52-13.41-9-29.7-7.86-50.4l.77-17.63-7.28-8.43c-10.16-11.5-17.25-14.18-26.06-9.97-7.09 3.45-9.97 2.11-10.16-4.22 0-1.15-2.3-2.3-4.98-2.3-3.07 0-7.09-2.3-10.54-5.94-4.41-4.6-10.16-7.28-27.98-12.65-12.26-3.64-26.06-7.28-30.66-8.05-8.05-1.53-8.62-1.34-13.41 4.79-4.98 6.52-12.07 8.81-12.07 3.83 0-1.53-2.68-8.24-5.75-14.95-3.26-6.52-6.32-14.95-6.9-18.4-1.15-5.94-4.98-8.24-7.47-4.22-2.49 4.02-7.67 1.53-15.14-6.9l-7.86-8.62-11.5 4.02c-23.76 8.43-42.54 4.79-52.31-9.77-3.83-5.56-5.56-6.52-12.26-6.52-7.28 0-8.43-.77-12.84-8.24-3.07-4.98-8.24-10.16-13.41-13.03-8.24-4.6-8.43-4.6-19.74-1.53-10.54 3.07-12.46 3.07-29.89 0-10.16-1.72-29.32-4.22-42.35-5.56L484.03 90l-2.68-9.2c-1.34-4.98-3.45-9.01-4.41-9.01-.96.07-3.45 5.05-5.75 11z"/>
</svg>
