<svg width="158" height="128" viewBox="0 0 158 128" fill="none" xmlns="http://www.w3.org/2000/svg">
<path d="M47.9204 0.125096C46.7669 0.413467 46.6821 0.447393 47.0722 0.60006C47.3945 0.735764 47.3945 0.752727 47.0383 0.752727C46.4785 0.76969 46.3937 1.09199 46.8348 1.54999C47.2588 1.99103 47.5981 2.07584 47.7168 1.73658C47.7847 1.56695 47.8186 1.56695 47.8186 1.73658C47.8356 1.85532 47.9543 1.9571 48.09 1.9571C48.2257 1.9571 48.3445 1.85532 48.3445 1.73658C48.3445 1.60088 48.3954 1.60088 48.4971 1.77051C48.582 1.90621 48.7685 1.9571 48.9212 1.90621C49.0739 1.83836 49.5319 1.90621 49.922 2.04192C50.7023 2.29636 53.0941 2.63562 54.2306 2.63562C54.994 2.63562 55.3841 2.33029 54.8074 2.17762C54.6038 2.12673 54.4512 1.9571 54.4512 1.78747C54.4512 1.39732 54.044 1.26162 52.7209 1.1768C51.3808 1.09199 50.9907 0.973246 51.2112 0.701838C51.3469 0.549171 51.1264 0.447393 50.3291 0.277763C48.6668 -0.0614968 48.6328 -0.0614968 47.9204 0.125096Z" fill="black"/>
<path d="M58.9295 3.806C58.4715 4.00956 58.2849 4.46756 58.5393 4.77289C58.692 4.97645 58.5902 5.01037 57.9626 5.01037C57.5385 5.01037 57.1653 5.07823 57.1314 5.16304C57.1144 5.24786 56.7921 5.3666 56.4359 5.41749C55.9609 5.48534 55.8252 5.46838 55.91 5.33267C56.0797 5.0443 52.7889 5.28178 52.5005 5.58712C52.3817 5.70586 51.7541 5.85852 51.1265 5.90941C50.4988 5.97727 49.8034 6.1469 49.5828 6.29956C49.3284 6.45223 49.0061 6.52008 48.7517 6.46919C48.5142 6.40134 48.3445 6.43527 48.3445 6.53704C48.3445 6.62186 48.2258 6.70667 48.0901 6.70667C47.9544 6.70667 47.8357 6.84238 47.8187 6.99505C47.8187 7.18164 47.7678 7.21556 47.7169 7.07986C47.5982 6.77453 47.0384 6.82542 46.9197 7.14771C46.8518 7.30038 46.8688 7.48697 46.9197 7.53786C46.9875 7.58875 47.0723 7.53786 47.1062 7.43608C47.1571 7.28342 47.2759 7.28342 47.5812 7.48697C47.8017 7.62268 48.1071 7.72445 48.2767 7.69053C48.4294 7.6566 48.599 7.74142 48.6329 7.8432C48.7347 8.1146 47.3946 8.14853 47.242 7.89408C47.1911 7.79231 47.0045 7.72445 46.8518 7.72445C46.6143 7.72445 46.6143 7.75838 46.8009 7.87712C47.1571 8.09764 46.6313 8.21638 44.9689 8.26727L43.544 8.3012L44.0359 8.69135C44.3074 8.91186 44.6975 9.25112 44.8841 9.43772C45.1046 9.65824 45.5626 9.82787 46.0376 9.87876C46.4617 9.92964 46.8179 10.0314 46.8179 10.1162C46.8179 10.1841 46.9536 10.2859 47.1232 10.3198C47.2759 10.3707 47.1571 10.4046 46.8518 10.4216C46.5295 10.4216 46.0715 10.3368 45.834 10.2011C45.4269 9.98053 44.3752 9.74305 42.645 9.47164C42.3057 9.42075 42.0513 9.48861 41.9156 9.65824C41.712 9.89572 41.7459 9.92964 42.0852 9.94661C42.5262 9.96357 42.4245 10.0145 41.6611 10.1841C41.1862 10.2859 41.1862 10.3028 41.5085 10.5233C41.6781 10.6421 42.1022 10.8287 42.4245 10.9305C42.9842 11.1171 42.9842 11.1171 42.187 11.0492C41.3558 10.9814 40.8978 10.6421 40.8808 10.0823C40.8808 9.77698 40.1853 9.08149 39.897 9.08149C39.7782 9.08149 39.5408 8.97972 39.3542 8.87794C39.1167 8.72527 38.981 8.70831 38.8283 8.86098C38.6926 8.99668 38.7944 9.09846 39.1845 9.23416C39.4899 9.33594 39.8122 9.36987 39.9139 9.30201C39.9988 9.25112 40.0327 9.28505 39.9648 9.38683C39.9139 9.48861 39.9309 9.60735 40.0327 9.6752C40.338 9.86179 40.2023 10.0653 39.6934 10.1841C39.422 10.2519 39.1845 10.4046 39.1845 10.5233C39.1845 10.6421 39.0997 10.7778 38.981 10.8117C38.8792 10.8456 39.2185 11.1001 39.7613 11.3715C40.6773 11.8295 40.7112 11.8804 40.6094 12.4062C40.5246 12.8473 40.5755 12.9999 40.8639 13.1865C41.0674 13.3053 41.2201 13.5088 41.2201 13.6445C41.2201 13.8311 41.4745 13.8481 42.4584 13.7802C43.5101 13.6954 43.5949 13.7124 43.0351 13.8651C42.17 14.1025 42.0682 14.4418 42.6789 14.9337C43.0691 15.256 43.1369 15.3748 42.9673 15.5444C42.8485 15.6631 42.7468 15.9345 42.7468 16.1381C42.7468 16.4265 42.6111 16.5452 42.2379 16.63C41.9325 16.6979 41.729 16.8505 41.729 17.0032C41.729 17.2068 41.6102 17.2407 41.1862 17.1559C40.8808 17.105 40.5585 16.9693 40.4568 16.8675C40.338 16.7488 40.3719 16.7318 40.5585 16.7997C40.7451 16.8675 40.9148 16.7148 41.1353 16.206C41.3049 15.8328 41.4915 15.5274 41.5593 15.5274C41.6442 15.5274 41.6781 15.273 41.6611 14.9677C41.6442 14.4927 41.5424 14.374 40.9317 14.1025C40.5246 13.9329 40.2023 13.6954 40.2023 13.5937C40.2023 13.4919 40.0327 13.1357 39.8291 12.8134C39.6256 12.4911 39.439 12.0839 39.405 11.9143C39.3372 11.4902 38.964 11.151 38.4212 11.0153C38.0989 10.9305 38.031 10.8456 38.1498 10.7269C38.4042 10.4725 38.3703 9.91268 38.0989 9.5395C37.9293 9.31898 37.5052 9.18327 36.691 9.09846C35.9955 9.01364 35.775 8.94579 36.1312 8.92883C36.691 8.8949 36.7079 8.8949 36.4026 8.65742C35.9785 8.33512 34.7063 8.3012 34.8081 8.60653C34.859 8.72527 34.7911 8.92883 34.6554 9.04757C34.5367 9.16631 34.4349 9.57342 34.4349 9.92964C34.4349 10.5064 34.367 10.6421 33.926 10.8626C33.2984 11.1849 33.2644 11.5751 33.8412 11.7956C34.1635 11.9143 34.2653 12.0839 34.2653 12.4571C34.2653 12.9999 34.6384 13.4071 34.9947 13.2714C35.1304 13.2205 35.4527 13.3392 35.7241 13.5088C35.9955 13.6954 36.3856 13.9159 36.6062 14.0008C36.9793 14.1534 37.0981 14.4248 36.8606 14.5605C36.7758 14.6114 36.199 14.4248 35.5375 14.1534C33.8242 13.4579 33.5358 13.4919 34.3161 14.3061C34.6554 14.6623 34.9438 15.0185 34.9438 15.1034C34.9099 15.6971 33.0609 17.0032 31.3476 17.6478C30.9066 17.8174 30.4655 18.038 30.3638 18.1567C30.245 18.2924 30.4825 18.9879 31.1441 20.4637C32.111 22.601 32.552 24.5009 32.569 26.4177C32.569 27.4355 32.8064 28.0461 33.4341 28.6229C34.3161 29.4371 33.909 30.7941 32.7725 30.7941C32.5011 30.7941 32.1449 30.9468 31.9753 31.1334C31.6869 31.4387 31.6869 31.4727 32.077 31.9646C32.2976 32.236 32.6707 32.7449 32.9082 33.0672C33.485 33.8814 34.0447 33.8814 34.7572 33.0841C35.4187 32.3208 35.9446 32.3038 36.3687 33.0163C36.6401 33.4573 36.6401 33.6439 36.4704 34.3224C36.3008 35.0518 36.3008 35.1367 36.6231 35.3741C37.7427 36.2053 37.7427 36.2053 37.5222 36.358C37.2338 36.5616 37.59 36.8669 38.4551 37.1553C39.5916 37.5454 39.3202 38.5293 38.1159 38.3766C37.6579 38.3087 37.4373 38.3596 37.3695 38.5293C37.2507 38.8346 36.8436 38.8346 36.5383 38.5123C36.3856 38.3766 36.1312 38.2579 35.9446 38.2579C35.775 38.2579 35.6223 38.173 35.6223 38.0713C35.6223 37.9356 35.3679 37.9016 34.8081 37.9864C34.1974 38.0713 33.7564 38.0034 32.993 37.715C31.8904 37.3249 29.804 37.2231 29.4647 37.5624C29.363 37.6641 28.888 37.749 28.43 37.749C27.955 37.749 27.2765 37.8338 26.9203 37.9356C26.2926 38.1052 26.2926 38.1052 26.3944 38.8176C26.5301 39.7167 26.6998 40.039 27.4292 40.8532C27.8872 41.3621 27.9889 41.6165 27.955 42.0915C27.9211 42.5834 28.0059 42.77 28.3791 43.0414C28.6335 43.228 28.8371 43.4825 28.8371 43.6012C28.8371 43.9065 29.4138 44.0762 30.0245 43.9405C30.4147 43.8556 30.5673 43.9065 30.7878 44.2628C31.0593 44.6529 31.2798 46.2814 31.0423 46.1456C30.9914 46.1117 30.5504 46.0439 30.0754 45.993C29.2951 45.9251 29.1933 45.9591 29.0237 46.3492C28.9219 46.5697 28.871 46.8411 28.9219 46.9259C28.9898 47.0108 28.7862 47.0786 28.4978 47.0786C28.0229 47.0786 27.9889 47.1125 28.1586 47.4179C28.2604 47.6045 28.447 47.7571 28.5827 47.7571C28.7184 47.7571 28.9558 47.9777 29.1255 48.266C29.2781 48.5374 29.4817 48.7749 29.5495 48.7749C29.6174 48.7749 29.6852 48.9276 29.6852 49.1311C29.6852 49.3517 29.7531 49.4365 29.8888 49.3517C29.9906 49.2838 30.1602 49.3517 30.262 49.4874C30.3807 49.64 30.6521 49.7927 30.8727 49.8266C31.4494 49.8945 31.5342 50.0641 31.4324 50.8274C31.3815 51.2006 31.3985 51.489 31.5003 51.489C31.7717 51.489 32.2636 52.5237 32.1618 52.8969C32.0431 53.3888 32.4333 54.1352 32.7556 54.0674C32.9591 54.0334 32.993 54.1522 32.9421 54.5763C32.8743 55.0003 32.9082 55.0851 33.1287 55.0003C33.5528 54.8477 33.8751 55.4074 34.0617 56.5779C34.1635 57.1886 34.2822 57.7992 34.3331 57.9349C34.4179 58.1555 34.1974 58.2572 33.2814 58.4947C31.8904 58.817 31.2458 58.6983 30.279 57.9349C29.9227 57.6466 29.4647 57.426 29.2612 57.426C28.7523 57.426 28.3282 56.9172 28.2095 56.1538C28.1416 55.7128 28.1755 55.4753 28.3452 55.3905C28.4809 55.2887 28.5657 54.9155 28.5827 54.4236C28.5827 53.6433 28.5996 53.6094 29.0576 53.6094C29.3121 53.6263 29.5156 53.5415 29.5156 53.4397C29.5156 53.321 29.2781 53.2871 28.9558 53.321C28.1416 53.4058 24.6981 51.6417 23.2393 50.3864L22.1367 49.4195L21.2207 49.5213C20.4065 49.6231 20.2199 49.5722 19.5244 49.1311C19.1003 48.8597 18.4727 48.5883 18.1504 48.5205C17.8281 48.4526 17.3023 48.266 16.9969 48.0794C16.5729 47.8419 16.3523 47.808 15.9961 47.9437L15.5551 48.1134L15.9452 48.5205C16.1488 48.741 16.7594 49.1311 17.2853 49.3856C18.0147 49.7418 18.337 50.0132 18.5575 50.4712C19.1343 51.6586 18.3879 52.1675 16.03 52.2523C15.131 52.2863 14.4185 52.2354 14.4185 52.1506C14.4185 52.0657 14.198 51.9979 13.9266 51.9979C13.6383 51.9979 13.3668 51.9131 13.316 51.8283C13.2481 51.7265 13.0615 51.6925 12.8919 51.7434C12.6714 51.8113 12.5187 51.7265 12.383 51.489C12.2473 51.2345 12.0946 51.1667 11.8402 51.2515C11.5857 51.3194 11.3991 51.2515 11.2125 51.031C10.9581 50.7257 10.8224 50.7087 9.55017 50.8105C8.19313 50.9462 7.17535 51.3363 6.68342 51.93C6.54772 52.0997 6.20846 52.1166 5.27549 52.0148C4.02023 51.8961 3.51134 52.0488 3.93542 52.4728C4.34253 52.88 3.69793 53.1174 2.12037 53.1514C1.28919 53.1683 0.576742 53.2531 0.542816 53.338C0.50889 53.4397 0.373186 53.4567 0.237482 53.4058C0.101778 53.3549 0 53.4058 0 53.5076C0 53.6094 0.118741 53.6942 0.254445 53.6942C0.407112 53.6942 0.50889 53.8469 0.50889 54.1183C0.50889 54.5084 0.644594 54.6102 1.13652 54.5593C1.2383 54.5423 1.30615 54.6611 1.27222 54.8307C1.25526 55.0003 1.27222 55.2039 1.34008 55.3057C1.39097 55.3905 1.44185 55.628 1.47578 55.8146C1.49274 56.0012 1.45882 56.052 1.42489 55.9333C1.27222 55.594 0.899039 55.7128 0.932965 56.1029C0.949928 56.3574 1.13652 56.544 1.54363 56.6797C1.86593 56.7984 2.0186 56.9002 1.89986 56.9002C1.73023 56.9172 1.73023 56.985 1.89986 57.2903C2.0186 57.5109 2.18823 57.7314 2.27304 57.7823C2.34089 57.8501 2.27304 57.9858 2.10341 58.0876C1.76415 58.2742 1.832 58.3081 2.62926 58.3251C2.90067 58.3251 2.91764 58.342 2.68015 58.3929C2.51052 58.4438 2.37482 58.5456 2.37482 58.6474C2.37482 58.7322 2.49356 58.7831 2.62926 58.7152C2.76497 58.6643 2.88371 58.6983 2.88371 58.7831C2.88371 58.8849 3.00245 58.9527 3.13815 58.9527C3.27386 58.9527 3.3926 58.8679 3.3926 58.7661C3.3926 58.4947 4.18986 58.7322 4.58001 59.1223C4.83445 59.3768 5.10586 59.4616 5.59779 59.4277C6.25935 59.3768 6.36112 59.258 6.29327 58.6474C6.22542 58.1555 7.59942 58.5965 8.37972 59.3259C8.88861 59.7839 10.2965 59.6143 10.7376 59.0206C11.0938 58.5626 11.3822 58.5117 11.8741 58.817C12.1285 58.9866 12.2642 58.9697 12.5526 58.6983C12.9767 58.3251 13.2142 58.4777 12.824 58.8849C12.6205 59.0715 12.5865 59.2241 12.7053 59.3429C12.8071 59.4446 12.8071 59.6482 12.7222 59.8857C12.6374 60.0892 12.6374 60.3267 12.7053 60.4115C12.9088 60.6321 13.0615 61.7686 12.9088 61.9382C12.6883 62.1926 12.0777 64.0586 11.8741 65.0764C11.6705 66.1281 11.2974 66.603 10.6697 66.603C10.4492 66.62 10.0082 66.6539 9.7198 66.6878C9.22787 66.7557 9.16002 66.8405 9.16002 67.2815C9.16002 68.0958 9.49928 69.2323 9.8555 69.6224C10.0251 69.809 10.1778 70.0804 10.1778 70.1992C10.1778 70.4536 11.3991 71.8446 11.6197 71.8446C11.6705 71.8446 11.8402 71.7259 11.9759 71.5901C12.1285 71.4544 12.383 71.3357 12.5696 71.3357C12.7392 71.3357 12.8919 71.4544 12.8919 71.5901C12.8919 71.7259 12.9767 71.8446 13.0615 71.8446C13.1633 71.8446 13.2311 71.9294 13.2311 72.0142C13.2311 72.116 13.3668 72.3365 13.5365 72.5231C13.6891 72.6927 13.9775 73.1338 14.1641 73.49C14.3507 73.8462 14.6391 74.2873 14.8087 74.4739C15.2158 74.9149 15.6568 75.7461 15.5381 75.8648C15.3854 76.0175 15.9961 76.9335 16.2336 76.9335C16.3693 76.9335 16.505 77.0522 16.5559 77.1879C16.6237 77.3236 16.7425 77.3915 16.8443 77.3236C16.9291 77.2728 16.963 77.3067 16.9121 77.3915C16.8443 77.4933 16.946 77.7647 17.1326 78.0022C17.3192 78.2396 17.4719 78.545 17.4719 78.6807C17.4719 78.8333 17.5567 79.003 17.6585 79.0708C17.7772 79.1387 17.8111 79.4271 17.7433 79.8172C17.6754 80.2922 17.7094 80.5127 17.9129 80.6823C18.0486 80.8011 18.1334 81.0385 18.0995 81.2082C18.0317 81.4117 18.1504 81.6153 18.4049 81.7849C18.6423 81.9376 18.8629 82.1751 18.9137 82.3277C18.9477 82.4974 19.2191 82.7688 19.4905 82.9554C19.7619 83.125 19.9655 83.3285 19.9315 83.3964C19.8806 83.4473 20.0503 83.583 20.2708 83.6848C20.5931 83.8374 20.6949 84.0071 20.6949 84.4142C20.6949 84.7365 20.8136 85.0418 21.0002 85.1775C21.1529 85.2963 21.2886 85.4659 21.2886 85.5507C21.2886 85.6355 21.5769 85.9917 21.9332 86.331C22.2724 86.6872 22.5608 87.0774 22.5608 87.2131C22.5608 87.3488 22.6286 87.4506 22.7135 87.4506C22.7983 87.4506 22.9509 87.688 23.0527 87.9934C23.2393 88.5192 23.2393 88.5192 22.9 88.2139C22.7135 88.0443 22.6117 87.8407 22.6626 87.7728C22.7135 87.688 22.6286 87.6711 22.476 87.722C22.3063 87.7898 22.2215 87.7559 22.2555 87.6032C22.2894 87.4845 22.1706 87.3488 22.018 87.3148C21.7975 87.2809 21.7466 87.3318 21.8144 87.5693C21.8992 87.8577 21.8992 87.8577 21.6618 87.5693C21.526 87.3997 21.3564 87.3318 21.3225 87.4166C21.2037 87.5863 22.1198 89.0111 22.2555 88.8754C22.4081 88.7397 23.1206 89.5031 23.1545 89.8084C23.1545 89.9611 23.2223 90.1646 23.2732 90.2494C23.4089 90.4869 23.9857 92.4037 24.0026 92.7091C24.0535 93.5233 24.291 93.8626 24.8847 93.9813C25.224 94.0322 25.5632 94.0152 25.665 93.9135C25.7498 93.8286 25.9195 93.7947 26.0382 93.8286C26.1569 93.8795 26.5132 93.676 26.8185 93.4046C27.1917 93.0483 27.5649 92.8787 27.9211 92.8787C28.4978 92.8787 29.6004 92.4716 29.7701 92.2002C29.821 92.1154 30.1263 92.0306 30.4486 92.0306C30.8557 92.0306 31.1101 91.9118 31.3646 91.5895C31.5851 91.3012 32.1958 90.9789 33.1118 90.6566C34.7572 90.0629 35.5544 89.6218 35.4866 89.3165C35.3848 88.8585 35.6562 88.5023 36.3517 88.2139C37.6748 87.6711 37.8445 87.6202 38.4042 87.6202C39.0319 87.6202 39.2863 87.3997 39.3881 86.772C39.422 86.4497 39.5577 86.331 39.9479 86.2971C40.5755 86.2123 40.8808 85.9748 40.8808 85.5677C40.8808 85.1945 41.4915 84.7365 42.0004 84.7365C42.3227 84.7365 42.3566 84.6517 42.3396 83.7017C42.3227 82.5991 42.5093 82.3108 42.9503 82.7688C43.1708 82.9893 43.2387 82.9723 43.4592 82.7179C43.7136 82.4125 43.6797 81.9545 43.4083 82.1242C43.1199 82.2938 43.2556 81.8697 43.6628 81.3948C44.1547 80.8011 44.6127 79.919 44.6127 79.5628C44.6127 79.4101 44.46 79.3083 44.2565 79.3083C44.0529 79.3083 43.8663 79.1726 43.8154 78.9691C43.7645 78.7825 43.6628 78.6298 43.5779 78.6298C43.4931 78.6298 43.4253 78.545 43.4253 78.4432C43.4253 78.087 42.8825 77.7308 42.1022 77.595C40.5755 77.3067 39.8291 76.3568 39.8291 74.7113C39.8291 73.6596 39.6256 73.4561 39.2693 74.1685C38.9131 74.847 36.9115 76.8826 36.674 76.7978C36.5553 76.7639 36.4704 76.7978 36.4704 76.8826C36.4704 76.9674 36.199 77.0013 35.8767 76.9674C35.5544 76.9335 35.283 76.8317 35.283 76.7469C35.283 76.6621 35.2152 76.5942 35.1134 76.5942C35.0286 76.5942 34.9438 76.696 34.9438 76.8317C34.9438 77.2219 34.6045 77.3236 34.2822 77.0353C34.1126 76.8826 33.8921 76.7639 33.7733 76.7639C33.6376 76.7639 33.6037 76.6451 33.7055 76.3737C33.8921 75.8309 33.7733 74.3382 33.5358 74.1855C33.1287 73.931 32.9252 74.0667 32.7216 74.7283L32.5181 75.4068L32.1958 74.9488C31.8565 74.406 31.8056 74.2194 32.0601 74.2194C32.1618 74.2194 32.2297 74.3382 32.2297 74.4908C32.2297 74.6265 32.3145 74.6944 32.3993 74.6435C32.6877 74.4569 32.5859 74.0159 32.2297 73.931C32.0431 73.8802 31.8735 73.7784 31.8735 73.6936C31.8565 73.6087 31.8396 73.473 31.8226 73.3713C31.8226 73.2864 31.653 73.0999 31.4664 72.9642C31.2798 72.8284 31.1271 72.6249 31.1271 72.4892C31.1101 72.3704 31.0253 72.2856 30.9066 72.3026C30.7878 72.3365 30.703 72.2856 30.703 72.2008C30.703 72.116 30.5504 71.9803 30.3638 71.9294C30.1772 71.8785 30.0245 71.7089 30.0245 71.5732C30.0245 71.4375 29.9567 71.3357 29.8888 71.3357C29.6513 71.3357 28.9898 69.7073 29.1085 69.368C29.1764 69.1644 29.1594 69.1135 29.0576 69.2493C28.9558 69.385 28.8201 69.4019 28.6675 69.3001C28.447 69.1644 28.447 69.1305 28.6675 69.1305C28.8201 69.1305 29.0576 68.9948 29.2103 68.8252C29.7701 68.2484 29.9567 68.1467 30.262 68.3163C30.4147 68.4011 30.6691 68.435 30.8387 68.3841C31.0423 68.3163 31.2458 68.469 31.5173 68.8421C31.7208 69.1475 31.8904 69.4867 31.8904 69.5885C31.8904 69.6903 31.9583 69.809 32.0431 69.843C32.1279 69.8599 32.4163 70.267 32.6707 70.725C33.027 71.3187 33.3323 71.5901 33.7564 71.7428C34.0787 71.8616 34.5706 72.1499 34.842 72.4044C35.1134 72.6588 35.4527 72.8624 35.6053 72.8624C35.8259 72.8624 35.8259 72.8963 35.6562 73.015C35.4866 73.1168 35.6053 73.1847 36.0294 73.2695C36.3687 73.3373 36.6062 73.4561 36.5553 73.5579C36.4874 73.6427 36.5383 73.7105 36.6231 73.7105C36.7249 73.7105 36.8097 73.6257 36.8097 73.5409C36.8097 73.4222 36.9284 73.4222 37.149 73.5409C37.3356 73.6427 37.573 73.6766 37.6748 73.6257C37.7596 73.5579 38.1159 73.473 38.4551 73.4391C39.1336 73.3543 39.5747 73.0829 39.422 72.8454C39.2863 72.6079 39.9988 72.6758 40.1514 72.8963C40.2193 73.015 40.3719 73.4222 40.4568 73.7953C40.6773 74.6265 41.3219 74.9827 42.8994 75.1524C44.1717 75.2881 44.6975 75.3729 45.2912 75.5086C46.0206 75.6952 47.4964 75.7291 47.4964 75.5765C47.4964 75.5086 47.8017 75.4747 48.1749 75.5256C48.582 75.5934 48.8534 75.5595 48.8534 75.4407C48.8534 75.339 49.074 75.322 49.4641 75.4068C49.8034 75.4916 50.5497 75.4747 51.1774 75.3729C52.4326 75.1863 52.7549 75.2542 52.7549 75.7461C52.7549 75.9666 52.8737 76.0853 53.0772 76.0853C53.2808 76.0853 53.4334 76.255 53.5183 76.5433C53.654 77.1201 54.078 77.612 54.4173 77.612C54.553 77.612 54.8923 77.8325 55.1467 78.1209C55.8422 78.8333 56.5377 79.1556 57.1992 79.0369C57.7251 78.9521 57.7421 78.9521 57.4367 79.2065C57.0975 79.4779 56.826 79.5458 56.2832 79.4949C56.1136 79.4779 55.9779 79.5458 55.9779 79.6645C55.9779 79.9868 58.3188 82.192 58.6411 82.192C59.5232 82.1581 60.7954 81.0046 60.4052 80.6145C60.2356 80.4448 60.3544 79.8172 60.5579 79.8172C60.6258 79.8172 60.6427 80.0038 60.5918 80.2413C60.5579 80.4957 60.5918 80.6654 60.7106 80.6654C60.8293 80.6654 60.8632 80.7502 60.8124 80.835C60.7445 80.9368 60.8293 81.2421 60.965 81.5474C61.1516 81.9037 61.2025 82.2768 61.1347 82.667C61.0668 82.9893 61.1007 83.5151 61.2025 83.8544C61.6435 85.398 61.9658 86.5854 62.1694 87.4845C62.2881 88.0103 62.6783 88.9942 63.0175 89.6897C63.3738 90.3682 63.7978 91.1994 63.9505 91.5217C64.1201 91.844 64.3746 92.5564 64.5103 93.1162C64.663 93.659 65.0361 94.4902 65.3584 94.9821C65.9861 95.9151 66.8342 97.9167 66.8342 98.4256C66.8342 98.8667 67.7502 100.275 68.1913 100.512C68.6832 100.767 69.2939 100.376 69.4296 99.6978C69.5483 99.155 70.142 98.8836 70.7696 99.0872C71.0241 99.155 71.0919 99.1211 71.041 98.9684C70.9902 98.8327 70.8544 98.7309 70.7187 98.7309C70.4473 98.7309 70.4473 98.5952 70.6339 97.9167C70.7357 97.5775 70.8884 97.4587 71.1937 97.4587C71.5669 97.4587 71.6008 97.4078 71.499 96.9668C71.3294 96.1356 71.3464 94.7786 71.5499 94.5411C71.8213 94.2188 71.8383 92.8278 71.5839 91.5217C71.2616 89.7066 71.3464 89.2147 72.0249 89.3843C72.3472 89.4691 72.449 89.4183 72.5338 89.062C72.5847 88.8246 72.7373 88.638 72.873 88.638C73.4498 88.638 73.9587 88.2309 73.9587 87.7559C73.9587 87.5014 74.0265 87.2809 74.1113 87.2809C74.3828 87.2809 76.0791 85.5677 76.6219 84.7365C76.9102 84.2954 77.4361 83.8035 77.8093 83.6339C78.1655 83.4473 78.6235 83.125 78.844 82.9214C79.2342 82.5652 79.2681 82.3617 79.1833 81.5305C79.1494 81.3099 79.2511 81.0725 79.3868 81.0046C79.5225 80.9368 79.8109 80.8011 80.0314 80.6823C80.3368 80.5296 80.4385 80.5296 80.5064 80.7332C80.6082 80.9876 81.2528 80.9537 82.1688 80.6654C82.4402 80.5636 82.8643 80.4957 83.1017 80.4957C83.6954 80.4788 84.3909 79.9359 84.2552 79.5967C84.2043 79.444 84.2213 79.2744 84.2891 79.2235C84.374 79.1896 84.4757 79.3083 84.5266 79.4949C84.5775 79.6985 84.6963 79.8002 84.7811 79.7494C84.9677 79.6306 85.1543 80.0208 85.1543 80.5127C85.1543 80.9198 85.5274 81.5474 86.2908 82.4125C86.5961 82.7518 86.8506 83.125 86.8506 83.2268C86.8506 83.3285 86.9863 83.3794 87.1559 83.3455C87.4952 83.2437 87.9362 83.6339 87.8174 83.9392C87.7835 84.058 87.8174 84.2785 87.9023 84.4311C88.004 84.6517 87.9871 84.7365 87.8344 84.7365C87.6817 84.7365 87.6817 84.7874 87.8344 84.94C88.004 85.1097 88.0889 85.1097 88.1737 84.957C88.3772 84.6517 88.6656 84.9231 89.0388 85.7712C89.3272 86.3988 89.3611 86.7551 89.2932 87.8237L89.1915 89.096L89.6664 89.2317C90.6163 89.4861 90.9217 89.4691 91.1592 89.1129C91.2949 88.9263 91.668 88.5871 92.0073 88.3666C92.3975 88.0951 92.618 87.8068 92.618 87.5693C92.6349 87.0434 93.7545 89.4013 93.9072 90.2494C93.9581 90.6226 94.1277 91.1315 94.2464 91.386C94.3821 91.6404 94.4839 92.0306 94.4839 92.285C94.4839 92.5395 94.5857 92.7091 94.7214 92.7091C94.8571 92.7091 95.0437 92.9466 95.1455 93.2349C95.3999 93.9474 95.3829 94.0661 95.0776 93.9643C94.891 93.8795 94.8571 93.9304 94.9249 94.134C94.9758 94.2866 95.0946 94.4054 95.1794 94.4054C95.2472 94.4054 95.2303 94.6429 95.1285 94.9312C94.9928 95.3214 94.908 95.3892 94.8062 95.2196C94.7214 95.1009 94.6535 95.0669 94.6535 95.1687C94.6535 95.491 94.9249 95.7455 95.2472 95.7115C95.6204 95.6776 95.807 96.2035 95.5187 96.4918C95.3999 96.6106 95.2642 96.5936 95.0776 96.4409C94.9249 96.3052 94.8232 96.3052 94.8232 96.407C94.8232 96.5088 94.9589 96.6615 95.1115 96.7632C95.4338 96.9329 95.5187 98.0864 95.2812 99.0702C95.1115 99.7827 95.3321 101.258 95.5526 101.038C95.8918 100.699 96.3498 100.817 96.3498 101.225C96.3498 101.547 96.3838 101.564 96.5195 101.36C96.6382 101.157 96.6891 101.157 96.6891 101.343C96.6891 101.462 96.9266 101.852 97.198 102.208C97.656 102.785 97.6899 102.887 97.4524 103.023C97.198 103.158 97.198 103.192 97.4355 103.379C97.673 103.565 97.7069 103.565 97.7069 103.294C97.7069 103.006 97.7238 103.006 97.9613 103.328C98.097 103.531 98.1818 104.006 98.1649 104.397C98.1479 104.787 98.2158 105.16 98.3175 105.228C98.4193 105.296 98.555 105.669 98.6229 106.059C98.6738 106.466 98.9112 106.975 99.1487 107.229C99.3862 107.484 99.5728 107.857 99.5728 108.061C99.5728 108.332 99.8951 108.654 100.811 109.265C102.151 110.164 102.457 110.452 102.389 110.741C102.355 110.859 102.372 110.893 102.406 110.809C102.558 110.554 102.999 110.69 102.898 110.961C102.83 111.165 102.864 111.216 103.05 111.131C103.22 111.063 103.305 111.148 103.305 111.368C103.305 111.555 103.389 111.708 103.491 111.708C103.61 111.708 103.644 111.555 103.593 111.351C103.525 111.08 103.542 111.046 103.729 111.199C103.881 111.334 103.983 111.334 104.068 111.199C104.238 110.927 104 110.69 103.508 110.673C103.22 110.656 103.152 110.622 103.356 110.571C103.508 110.537 103.644 110.385 103.644 110.249C103.644 110.113 103.593 110.028 103.525 110.062C103.44 110.113 103.373 109.96 103.373 109.74C103.356 109.519 103.135 109.061 102.881 108.722C102.473 108.196 102.423 107.976 102.423 106.907C102.44 106.229 102.355 105.448 102.236 105.177C102.049 104.685 100.709 103.226 100.455 103.226C100.387 103.226 100.183 102.989 100.014 102.7C99.7933 102.344 99.6067 102.208 99.4032 102.259C98.8773 102.395 98.4363 101.92 98.1988 100.987C98.097 100.495 97.8935 100.003 97.7917 99.9184C97.5372 99.7148 97.3167 98.6461 97.5203 98.6461C97.6899 98.6461 97.673 98.2051 97.4864 98.0355C97.4185 97.9676 97.3676 98.0864 97.3676 98.2899C97.3676 98.7309 96.8927 98.9684 96.6721 98.6292C96.4516 98.3069 96.5873 96.882 96.9266 95.7624C97.0962 95.2535 97.2319 94.3715 97.2489 93.8117C97.2828 92.8278 97.2998 92.7939 97.7578 92.743C98.1818 92.6921 98.2158 92.726 98.2158 93.3537C98.2158 93.9813 98.2327 94.0152 98.8095 94.0322C99.5389 94.0661 100.082 94.3375 100.082 94.6768C100.082 94.8295 100.2 94.9143 100.387 94.8803C100.574 94.8464 100.76 95.0161 100.964 95.4232C101.133 95.7455 101.252 96.1186 101.269 96.2204C101.269 96.4918 101.88 97.1195 102.134 97.1195C102.219 97.1195 102.253 97.0177 102.185 96.8989C102.117 96.7802 102.134 96.7463 102.219 96.8311C102.372 96.9838 102.389 97.0516 102.44 97.5435C102.473 97.9506 102.796 97.8489 102.796 97.4248C102.796 97.1025 102.83 97.0855 103.101 97.323C103.254 97.4587 103.542 97.6284 103.729 97.6962C103.966 97.781 104 97.8489 103.847 97.9506C103.542 98.1372 103.61 100.003 103.932 100.003C104.051 100.003 104.238 99.8505 104.356 99.6639C104.475 99.4604 104.899 99.1211 105.289 98.8836C105.951 98.5104 106.222 98.0864 106.273 97.3739C106.29 97.2721 106.375 97.2212 106.494 97.2552C106.782 97.3061 107.664 96.8311 108.207 96.3392C108.444 96.1186 108.733 95.9321 108.852 95.9321C109.089 95.9321 109.276 95.05 109.174 94.3715C109.14 94.117 109.191 93.9474 109.259 93.9983C109.343 94.0492 109.411 93.9304 109.411 93.7438C109.411 93.5572 109.343 93.3706 109.259 93.3198C109.191 93.2689 109.072 92.8617 109.021 92.4207C108.97 91.9797 108.801 91.369 108.665 91.0976C108.512 90.8092 108.394 90.47 108.394 90.3173C108.394 90.1816 108.173 89.8423 107.885 89.5709C107.613 89.2995 107.376 88.9942 107.376 88.8754C107.376 88.7567 107.24 88.621 107.053 88.5531C106.663 88.4344 104.662 86.5176 104.662 86.2801C104.662 86.1783 104.407 85.8391 104.085 85.4998C103.593 85.0079 103.508 84.7874 103.508 84.1258C103.508 83.6339 103.593 83.3285 103.729 83.2777C103.847 83.2268 104.085 82.9214 104.238 82.5991C104.39 82.2768 104.577 82.0563 104.662 82.1072C104.73 82.1581 104.848 82.0733 104.899 81.9376C104.95 81.8019 105.086 81.7001 105.205 81.7171C105.323 81.751 105.408 81.6492 105.408 81.4965C105.374 81.1403 106.528 80.7332 106.986 80.9198C107.155 80.9876 107.478 81.0385 107.698 81.0216C108.02 80.9876 108.071 81.0385 107.986 81.2591C107.834 81.6831 108.411 82.8536 108.784 82.8705C109.174 82.8705 109.31 82.4804 109.072 82.0224C108.936 81.7679 108.936 81.6831 109.055 81.751C109.174 81.8188 109.242 81.734 109.242 81.5305C109.242 81.3269 109.343 81.1573 109.462 81.1573C109.564 81.1403 109.751 81.1234 109.835 81.0894C109.937 81.0725 110.107 81.0385 110.226 81.0385C110.344 81.0216 110.395 80.9198 110.327 80.8011C110.259 80.6993 110.276 80.6654 110.395 80.7332C110.497 80.7841 110.616 80.7671 110.684 80.6823C110.751 80.5636 110.938 80.5636 111.209 80.6654C111.82 80.9028 112.007 80.8689 111.888 80.5636C111.837 80.4279 111.854 80.36 111.956 80.4109C112.058 80.4618 112.125 80.4279 112.125 80.3261C112.125 80.2243 112.21 80.1904 112.312 80.2582C112.583 80.4109 112.804 79.9868 112.719 79.4779C112.651 79.0708 112.651 79.0708 112.838 79.5119C113.024 79.9529 113.652 80.1904 113.652 79.8342C113.652 79.7494 113.957 79.5119 114.348 79.3253C114.721 79.1217 114.992 79.0369 114.924 79.1387C114.873 79.2235 114.907 79.3083 114.992 79.3083C115.094 79.3083 115.179 79.2235 115.179 79.1387C115.179 79.0369 115.23 78.986 115.314 78.986C115.908 79.0878 116.247 78.9182 116.417 78.4771C116.519 78.1888 116.756 77.9343 116.943 77.8834C117.146 77.8325 117.452 77.5611 117.638 77.2728C117.825 77.0013 118.062 76.7639 118.181 76.7639C118.453 76.7639 118.792 76.1362 118.639 75.8818C118.571 75.78 118.588 75.7291 118.673 75.78C118.86 75.8987 119.267 75.4916 119.131 75.339C119.063 75.2881 119.182 75.2372 119.386 75.2372C119.606 75.2372 119.759 75.1354 119.759 74.9658C119.759 74.8301 119.691 74.7453 119.606 74.7962C119.386 74.9319 119.233 74.1855 119.42 73.965C119.521 73.8462 119.538 73.7105 119.47 73.6596C119.42 73.5918 119.453 73.5409 119.555 73.5409C119.674 73.5409 119.759 73.3882 119.759 73.2186C119.759 73.032 119.844 72.8284 119.928 72.7776C120.03 72.7267 120.098 72.4892 120.098 72.2687C120.098 71.6919 120.268 71.3357 120.539 71.3357C120.675 71.3357 120.794 71.2339 120.794 71.1152C120.878 70.5045 120.861 70.1992 120.726 69.9278C120.641 69.7412 120.658 69.6564 120.794 69.6733C120.912 69.7073 120.997 69.368 121.031 68.6555C121.048 68.0788 120.997 67.6038 120.912 67.6038C120.844 67.6038 120.76 67.6717 120.76 67.7735C120.743 67.8583 120.726 68.011 120.709 68.0958C120.675 68.435 120.437 68.4859 120.166 68.1975C119.979 68.0279 119.742 67.9601 119.487 68.011C118.911 68.1636 119.131 67.6887 119.776 67.4003C120.285 67.1628 120.386 67.0101 120.098 66.8405C119.996 66.7727 119.962 66.6709 120.013 66.603C120.047 66.5182 119.878 66.4164 119.606 66.3655C119.063 66.2468 118.792 65.8227 119.182 65.6701C119.301 65.6192 119.403 65.6701 119.369 65.7718C119.352 65.8736 119.436 65.9924 119.555 66.0263C119.657 66.0772 119.759 65.9924 119.759 65.8736C119.759 65.6701 119.182 65.1612 118.317 64.5844C118.232 64.5166 118.029 64.2621 117.893 64.0247C117.214 62.8372 116.468 62.0569 115.688 61.6838C114.924 61.3275 114.856 61.2427 114.958 60.8526C115.009 60.6151 115.281 60.208 115.552 59.9366C116.044 59.4446 116.18 59.1902 115.823 59.3938C115.705 59.4616 115.857 59.275 116.163 58.9697C116.536 58.6304 116.892 58.4438 117.231 58.4438C117.638 58.4438 117.723 58.376 117.723 58.0367C117.723 57.5109 117.621 57.46 116.672 57.3582C116.247 57.3243 115.739 57.2055 115.552 57.1037C115.196 56.9172 114.263 57.0189 114.398 57.2395C114.432 57.2903 114.365 57.4939 114.229 57.6635C114.025 57.9349 113.924 57.9689 113.567 57.7992C113.33 57.6975 113.143 57.46 113.143 57.3073C113.126 56.7984 112.753 56.4592 112.159 56.4422C111.379 56.4252 110.768 56.0012 110.768 55.4583C110.768 55.1191 110.836 55.0343 111.04 55.1191C111.549 55.3057 112.142 55.0343 112.227 54.5593C112.278 54.3049 112.55 53.9486 112.821 53.779C113.092 53.5924 113.313 53.338 113.313 53.2192C113.313 52.8291 113.737 52.5407 114.212 52.6255C114.89 52.7612 115.111 53.1005 114.84 53.6603C114.517 54.2879 114.534 54.4236 114.89 54.695C115.179 54.8986 115.179 54.9494 114.941 55.2039C114.687 55.4923 114.738 55.7297 115.026 55.7297C115.111 55.7297 115.467 55.4074 115.84 55.0343C116.383 54.4745 116.655 54.3218 117.282 54.254C117.706 54.2031 118.181 54.22 118.351 54.2879C118.52 54.3727 118.724 54.4066 118.792 54.3897C118.86 54.3897 119.08 54.4406 119.25 54.5423C119.538 54.695 119.589 54.8986 119.589 55.8654C119.589 56.6627 119.64 56.9341 119.759 56.7475C119.844 56.6118 119.928 56.5609 119.928 56.6627C119.928 56.9002 120.76 57.2564 120.878 57.0698C120.929 56.985 121.099 56.985 121.302 57.0868C121.472 57.1886 121.625 57.2225 121.625 57.1716C121.625 57.1207 121.811 57.2055 122.049 57.3582C122.473 57.6296 122.626 58.1046 122.303 58.1046C122.015 58.1046 122.117 58.3929 122.609 58.9188C123.321 59.6991 123.474 59.9196 123.372 60.0383C123.185 60.2249 123.202 61.0731 123.389 61.1918C123.491 61.2597 123.575 61.4802 123.575 61.7007C123.575 62.0569 123.643 62.0909 124.339 62.04C124.763 62.023 125.136 61.9212 125.153 61.8364C125.187 61.7346 125.357 61.6668 125.543 61.6668C125.713 61.6668 125.865 61.5989 125.865 61.4972C125.865 61.4123 125.967 61.3784 126.103 61.4293C126.442 61.565 127.053 60.9035 127.053 60.4285C127.053 59.75 126.052 57.9858 125.238 57.2225C124.814 56.8154 124.305 56.3234 124.101 56.1029C123.915 55.8824 123.457 55.5432 123.1 55.3396C122.761 55.153 122.354 54.8137 122.218 54.5932C121.964 54.22 121.981 54.1861 122.422 53.9147C122.676 53.779 123.1 53.3719 123.338 53.0157C123.745 52.4389 123.762 52.3541 123.542 51.93C123.253 51.3872 123.304 50.5391 123.626 50.59C123.728 50.6239 123.83 50.4882 123.83 50.2846C123.83 50.098 123.898 49.9793 123.983 50.0302C124.067 50.098 124.22 49.9284 124.305 49.674C124.407 49.4025 124.491 49.3008 124.491 49.4365C124.508 49.6231 124.576 49.6061 124.763 49.3517C124.966 49.0972 125 49.0802 125.017 49.3008C125.017 49.674 126.205 50.0132 126.748 49.8097C127.29 49.6061 128.24 48.5035 128.24 48.0964C128.24 47.6384 128.715 45.8912 128.902 45.6537C128.987 45.5519 129.055 44.7716 129.055 43.9405C129.055 43.0923 129.122 42.2272 129.224 41.9897C129.343 41.6505 129.292 41.3621 128.97 40.6327C128.749 40.1238 128.478 39.6488 128.359 39.581C128.257 39.5131 128.223 39.4113 128.291 39.3435C128.359 39.2756 128.24 39.106 128.054 38.9703C127.426 38.5462 126.764 36.7312 127.222 36.7312C127.562 36.7312 128.885 37.8338 128.987 38.173C129.038 38.3596 129.343 38.7837 129.648 39.106C129.954 39.4283 130.378 40.0559 130.581 40.48C130.785 40.9041 131.175 41.4639 131.446 41.7013C131.718 41.9388 132.023 42.3968 132.142 42.7361C132.244 43.0753 132.396 43.3468 132.481 43.3468C132.566 43.3468 132.702 43.6012 132.803 43.9065C132.922 44.2288 133.227 44.7038 133.516 44.9752L134.042 45.4671L133.923 44.8565C133.804 44.2458 133.821 44.2458 134.279 44.3306C134.551 44.3815 134.89 44.5851 135.059 44.7716C135.297 45.06 135.348 45.077 135.365 44.8565C135.365 44.5342 134.805 43.8556 134.551 43.8556C134.449 43.8556 134.177 43.686 133.957 43.4655C133.719 43.2619 133.346 42.9566 133.109 42.8039C132.871 42.6343 132.566 42.1763 132.43 41.7862C132.294 41.379 132.125 40.921 132.057 40.7514C131.87 40.3104 132.685 40.3782 133.499 40.8871C134.211 41.3451 134.347 41.379 134.347 41.1755C134.347 41.1076 134.093 40.9041 133.804 40.7175C133.499 40.5479 132.939 40.0899 132.549 39.7167C132.176 39.3265 131.192 38.4105 130.378 37.6641C129.563 36.9178 128.783 36.1036 128.647 35.8491C128.342 35.2724 127.664 34.526 127.443 34.526C127.341 34.526 127.087 34.3224 126.866 34.051C126.256 33.3555 125.933 33.152 125.628 33.2707C125.39 33.3555 125.441 33.4404 125.882 33.7118C126.408 34.0341 126.408 34.0341 126.103 34.3733C125.815 34.6956 125.815 34.7465 126.052 34.9161C126.408 35.1876 126.951 36.0357 126.849 36.1544C126.714 36.2901 125.865 35.3233 125.865 35.0349C125.865 34.9501 125.39 34.6278 124.814 34.3394C124.22 34.068 123.525 33.7118 123.27 33.5761C122.71 33.2707 121.218 33.135 121.438 33.4064C121.608 33.627 121.37 34.3564 121.116 34.3564C121.031 34.3564 120.946 34.2037 120.946 34.0171C120.946 33.8305 120.827 33.6778 120.692 33.6778C120.556 33.6778 120.437 33.5252 120.437 33.3386C120.437 33.152 120.352 32.9993 120.251 32.9993C120.149 32.9993 120.098 32.8975 120.149 32.7618C120.285 32.4056 119.674 31.9137 119.301 32.0664C119.131 32.1512 118.911 32.1851 118.792 32.1681C118.69 32.1512 118.554 32.219 118.487 32.3208C118.385 32.4735 118.86 32.5583 119.674 32.5244C119.861 32.5244 119.911 32.5583 119.793 32.6092C119.623 32.677 119.64 32.7618 119.861 33.0163C120.013 33.1859 120.064 33.3386 119.962 33.3386C119.878 33.3386 119.827 33.5082 119.878 33.7118C119.928 33.9662 119.844 33.8984 119.623 33.5082C119.335 32.9824 119.199 32.8975 118.419 32.8127C116.96 32.6261 116.943 32.5922 117.588 31.778C118.317 30.845 118.588 30.3192 118.368 30.2513C118.181 30.1835 118.894 28.5889 119.114 28.5889C119.182 28.5889 119.165 28.4024 119.08 28.1649C118.945 27.8256 118.978 27.7069 119.165 27.639C119.301 27.5712 119.42 27.3506 119.42 27.1301C119.42 26.8587 119.555 26.6721 119.776 26.5873C120.336 26.3668 122.761 26.3329 122.897 26.5364C122.948 26.6382 123.151 26.723 123.338 26.723C123.525 26.723 123.643 26.6721 123.592 26.5873C123.558 26.5195 124.135 26.4855 124.882 26.5025C126.171 26.5534 126.239 26.5364 126.154 26.1972C126.086 25.9427 126.137 25.8749 126.34 25.9427C127.019 26.1293 127.833 26.282 127.969 26.2311C128.071 26.2141 128.325 26.2311 128.546 26.2989C128.868 26.3838 128.902 26.4516 128.749 26.6382C128.529 26.9096 128.715 27.0623 129.292 27.0623C130.632 27.0623 130.954 27.0283 130.954 26.8757C130.954 26.7739 131.141 26.74 131.429 26.8078C131.701 26.8587 132.142 26.8248 132.396 26.723C132.99 26.5025 132.803 26.3159 131.701 26.0275C130.954 25.8409 130.853 25.6035 131.158 24.8232C131.243 24.5857 131.328 24.1277 131.345 23.8223C131.378 23.2965 131.429 23.2626 132.057 23.1947C132.43 23.1608 132.888 23.1438 133.075 23.1438C133.261 23.1608 133.618 23.1608 133.889 23.1777C134.177 23.1777 134.347 23.2626 134.347 23.4152C134.347 23.7545 134.992 24.3821 135.212 24.2634C135.297 24.1955 135.517 24.3312 135.704 24.5518C135.925 24.8062 136.026 24.8571 136.043 24.7044C136.043 24.5687 136.094 24.5178 136.162 24.5857C136.23 24.6366 136.366 24.45 136.45 24.1446C136.603 23.7206 136.739 23.5679 137.112 23.534C137.519 23.4831 137.79 23.1608 137.4 23.1608C137.315 23.1608 137.044 22.9572 136.79 22.7028C136.349 22.2617 136.349 22.2448 136.705 22.126C137.112 21.9734 137.621 22.1091 137.468 22.3296C137.366 22.5162 138.265 23.6697 138.52 23.6697C138.842 23.6697 138.706 24.2295 138.299 24.6026C138.028 24.8401 137.943 25.0776 137.994 25.349C138.028 25.5865 137.994 25.8579 137.892 25.9936C137.773 26.1123 137.74 26.4516 137.807 26.723C137.926 27.3506 137.672 28.0801 137.315 28.0801C137.18 28.0801 137.061 28.1479 137.061 28.2497C137.061 28.3345 136.891 28.4193 136.688 28.4193C136.298 28.4193 136.298 28.4193 136.739 28.8264C137.061 29.1318 137.163 29.3692 137.112 29.6576C136.976 30.3701 137.858 31.5235 139.826 33.2198C140.284 33.61 140.979 34.2207 141.353 34.5938C141.743 34.9501 142.404 35.5268 142.828 35.8661C143.236 36.2053 143.761 36.6803 143.982 36.9347C144.202 37.1892 144.61 37.5624 144.864 37.749L145.356 38.1052L145.627 37.5793C145.933 36.9856 145.848 36.2053 145.441 35.8661C145.135 35.6116 145.135 35.1027 145.441 34.984C145.576 34.9331 145.865 34.9331 146.085 34.984C146.408 35.0518 146.34 34.9331 145.729 34.4073C145.135 33.8644 145.017 33.6609 145.118 33.3555C145.22 33.0333 145.305 32.9993 145.831 33.1011C146.34 33.2029 146.425 33.169 146.357 32.8975C146.323 32.7279 146.001 32.3887 145.644 32.1512C144.61 31.4387 144.202 30.404 145.118 30.8281C145.356 30.9298 145.593 30.9638 145.661 30.9129C145.814 30.7432 145.034 29.946 144.711 29.946C144.338 29.929 143.507 29.1826 143.507 28.8604C143.507 28.5041 142.879 28.1988 142.387 28.3175C141.777 28.4702 141.098 27.7578 141.234 27.0962C141.319 26.7061 141.234 26.5025 140.895 26.1463C140.471 25.7392 140.471 25.6204 140.844 25.6883C140.912 25.7052 141.132 25.6204 141.336 25.5186C141.522 25.4169 141.641 25.3999 141.573 25.5017C141.522 25.5865 141.59 25.7052 141.726 25.7731C141.997 25.8749 142.218 25.6204 142.082 25.3829C141.862 25.0267 142.489 25.0946 142.828 25.4508C143.253 25.8918 143.507 25.8749 143.507 25.3829C143.507 24.7383 145.085 24.6875 146.374 25.2812C147.358 25.7392 147.544 25.7392 147.273 25.2642C147.154 25.0437 147.205 24.874 147.51 24.5687C147.731 24.3482 147.968 23.975 148.019 23.7545C148.07 23.517 148.308 23.2795 148.613 23.1777C148.884 23.0929 149.105 22.9233 149.105 22.8385C149.105 22.7367 149.207 22.6519 149.342 22.6519C149.461 22.6519 149.682 22.5332 149.8 22.3805C150.021 22.1091 150.682 22.126 152.039 22.4144C152.43 22.4992 152.497 22.4653 152.497 22.1769C152.497 21.9564 152.345 21.7868 152.124 21.702C151.904 21.6511 151.615 21.4984 151.48 21.3797C151.344 21.2609 151.039 21.1083 150.801 21.0234C150.14 20.786 148.257 19.7003 148.257 19.5477C148.257 19.4798 148.409 19.2593 148.579 19.0557C149.02 18.5977 148.766 18.1737 147.883 17.9192C147.527 17.8005 147.273 17.6478 147.324 17.563C147.375 17.4612 147.866 17.6139 148.392 17.8853C149.207 18.2924 149.563 18.3772 150.547 18.3603C151.53 18.3603 151.887 18.4281 152.582 18.8013C153.04 19.0557 153.6 19.2593 153.804 19.2593C153.99 19.2593 154.635 19.412 155.194 19.5816C156.161 19.8869 156.246 19.8869 156.416 19.6155C156.568 19.378 156.585 19.378 156.501 19.6325C156.399 19.9717 156.823 20.0396 157.247 19.7682C157.468 19.6325 157.434 19.5816 157.128 19.4968C156.908 19.4289 156.789 19.3271 156.84 19.2423C156.891 19.1575 156.84 19.0897 156.755 19.0897C156.653 19.0897 156.416 18.937 156.246 18.7674C155.907 18.4281 155.907 18.4281 156.348 18.3772C156.602 18.3433 156.84 18.2246 156.874 18.0888C156.925 17.9192 156.874 17.8853 156.687 17.9531C156.518 18.021 156.45 17.9871 156.501 17.8514C156.535 17.7326 156.365 17.5121 156.094 17.3594C155.296 16.8845 152.396 16.206 151.174 16.206C150.326 16.206 149.834 16.1042 149.19 15.7988C148.274 15.3408 140.657 13.441 138.164 13.0339C137.332 12.8982 135.992 12.7625 135.195 12.7285C133.024 12.6268 131.073 12.4741 130.7 12.3554C130.429 12.2875 130.445 12.3384 130.836 12.7116C131.09 12.9491 131.378 13.1526 131.463 13.1526C131.548 13.1526 131.904 13.3222 132.261 13.5258L132.905 13.9159L132.43 13.9668C132.159 14.0008 131.853 13.9499 131.735 13.8481C131.616 13.7463 131.158 13.6106 130.717 13.5597C130.276 13.4919 129.886 13.3901 129.852 13.3222C129.801 13.2374 129.92 13.2205 130.106 13.2714C130.293 13.3222 130.445 13.2714 130.445 13.1696C130.445 13.0678 130.395 12.9999 130.327 12.9999C130.242 13.0169 129.92 12.9999 129.597 12.983L129.004 12.9321L129.597 12.8134L130.191 12.6946L129.648 12.6437C128.596 12.5419 128.495 12.5589 128.495 12.8134C128.495 12.9999 128.308 13.0678 127.731 13.0508C126.357 12.9999 123.236 12.983 122.982 13.0169C122.388 13.1017 120.946 12.7794 120.946 12.5419C120.946 12.2196 120.149 11.8465 118.792 11.5242C117.859 11.3036 117.113 11.2697 114.992 11.3545C112.872 11.4394 112.244 11.4224 111.752 11.2188C111.43 11.0831 110.802 10.9305 110.344 10.8626C109.174 10.7269 108.716 10.5912 108.835 10.4216C109.106 9.98053 105.73 9.5395 105.221 9.94661C105.069 10.0823 104.984 10.0993 105.052 9.98053C105.238 9.69216 104.865 9.62431 101.693 9.33594C98.2497 9.03061 98.3684 9.03061 98.8943 9.33594L99.3184 9.57342L98.6907 9.59038C98.1988 9.59038 98.0801 9.64127 98.1479 9.84483C98.2158 9.98053 98.4532 10.0993 98.6907 10.0993C98.9282 10.0993 99.0639 10.1502 98.9961 10.218C98.9452 10.2859 99.0978 10.4385 99.3523 10.5573L99.8273 10.7778L99.3184 10.676C99.047 10.6082 98.6568 10.5742 98.4702 10.5742C98.2836 10.5912 97.656 10.6082 97.0623 10.6082C96.4855 10.6082 95.824 10.693 95.6204 10.7608C95.3829 10.8456 94.908 10.8456 94.4669 10.7439C94.0598 10.6591 93.5509 10.5742 93.3474 10.5573C93.1608 10.5403 93.0251 10.4725 93.076 10.3876C93.1099 10.3198 93.059 10.2689 92.9403 10.2689C92.8385 10.2689 92.7876 10.4046 92.8385 10.5573C93.1947 11.6938 93.2117 11.6259 92.601 11.5242C91.7189 11.3545 90.3958 10.7099 89.7682 10.1162C89.4629 9.82787 89.0897 9.59038 88.954 9.59038C88.8183 9.59038 88.7165 9.48861 88.7165 9.36987C88.7165 8.8949 85.6462 8.02979 85.3917 8.4369C85.3409 8.50475 85.2051 8.52172 85.1034 8.45386C84.9846 8.38601 84.7132 8.3012 84.4757 8.28423C84.2383 8.25031 83.7124 8.14853 83.2883 8.04675C82.7455 7.92801 82.508 7.92801 82.4741 8.04675C82.4402 8.14853 82.3384 8.19942 82.2536 8.13157C82.1688 8.08068 82.1009 8.13157 82.1009 8.21638C82.1009 8.31816 82.2536 8.48779 82.4402 8.60653C82.6268 8.72527 82.7794 8.86098 82.7794 8.91186C82.7794 8.99668 81.3376 8.97972 79.7261 8.84401C79.2172 8.81009 78.6405 8.77616 78.4539 8.7592C78.1994 8.74223 78.1655 8.70831 78.3521 8.58957C78.4878 8.50475 78.5048 8.40297 78.403 8.33512C78.1655 8.19942 74.0605 8.14853 73.8399 8.28423C73.5855 8.4369 72.432 7.75838 72.432 7.45305C72.432 7.28342 72.2115 7.21556 71.6517 7.21556C71.0241 7.21556 70.8544 7.28342 70.7866 7.53786C70.7357 7.75838 70.6 7.82623 70.3795 7.77534C70.2099 7.72445 69.9384 7.74142 69.7858 7.79231C69.5653 7.87712 69.5483 7.94497 69.7179 8.13157C69.8706 8.33512 69.8027 8.41994 69.2599 8.55564C68.4457 8.79312 67.6315 8.79312 67.7672 8.5726C67.8181 8.47083 68.0556 8.40297 68.2761 8.40297C68.4966 8.40297 68.751 8.3012 68.8189 8.18246C68.9885 7.92801 69.4296 7.6566 70.4304 7.16468C70.8714 6.96112 71.2785 6.68971 71.3294 6.55401C71.4821 6.16386 70.7357 5.5023 70.2268 5.57015C69.9893 5.60408 69.9045 5.60408 70.0233 5.57015C70.1929 5.5023 70.1759 5.43445 69.9384 5.24786C69.5822 4.97645 69.3108 4.94252 69.4635 5.18C69.6331 5.45141 69.3447 5.38356 69.0055 5.06126C68.751 4.84074 68.31 4.77289 66.6137 4.77289C65.4772 4.75593 64.3576 4.82378 64.1371 4.9086C63.8318 5.01037 63.7639 4.99341 63.8148 4.82378C63.9335 4.48452 63.6452 3.99259 63.3398 3.99259C63.2041 3.99259 63.1363 4.06045 63.1872 4.16222C63.3568 4.41667 62.6274 4.36578 62.1864 4.07741C61.7284 3.77208 59.4384 3.58548 58.9295 3.806ZM72.0927 7.89408C72.2793 8.01283 72.2115 8.06371 71.8044 8.06371C71.499 8.06371 71.2446 7.9789 71.2446 7.89408C71.2446 7.67357 71.7535 7.67357 72.0927 7.89408ZM45.393 14.357C45.8001 14.815 45.5965 14.9168 45.1216 14.5097C44.9011 14.3231 44.6297 14.1704 44.5109 14.1704C44.3922 14.1704 44.2565 14.1025 44.2056 14.0347C44.0359 13.7463 45.1046 14.0517 45.393 14.357ZM151.225 16.7148C151.276 16.8166 151.208 16.8336 151.072 16.7827C150.767 16.664 150.716 16.5452 150.954 16.5452C151.056 16.5452 151.174 16.6131 151.225 16.7148ZM148.002 19.5986C148.138 19.8191 147.748 19.8191 147.408 19.5986C147.205 19.4629 147.222 19.4289 147.527 19.4289C147.731 19.4289 147.951 19.4968 148.002 19.5986ZM89.0049 31.9307C89.6834 33.5082 89.7682 33.8305 89.5646 34.1358C89.395 34.4073 89.378 34.4073 89.4629 34.1358C89.5137 33.9832 89.4798 33.8475 89.395 33.8475C89.2932 33.8475 89.2254 34.0001 89.2254 34.1867C89.2254 34.3903 89.3441 34.526 89.5307 34.526C89.7003 34.526 89.7512 34.5769 89.6325 34.6617C89.5307 34.7295 89.395 34.9331 89.3272 35.1197C89.2763 35.3402 88.937 35.5777 88.496 35.7304C87.8853 35.9678 87.7835 36.0527 87.8344 36.4428C87.8853 36.816 87.8005 36.9008 87.2068 37.0874C86.6979 37.2401 86.4095 37.2401 86.1381 37.1044C85.7649 36.9347 85.7649 36.9178 86.2399 36.9178C86.7149 36.9008 87.3594 36.4937 87.3594 36.1884C87.3594 36.1205 87.5121 35.9 87.7157 35.6964C87.9023 35.5098 88.021 35.2384 87.9701 35.1027C87.9192 34.984 87.9701 34.8144 88.0889 34.7465C88.6486 34.3903 88.8013 33.0502 88.4451 31.761C88.2924 31.2861 88.7843 31.4218 89.0049 31.9307ZM56.385 44.1779C56.4359 44.2628 56.368 44.3645 56.2323 44.4324C56.0966 44.4833 55.9779 44.6359 55.9779 44.7886C55.9779 44.9243 55.8592 45.0431 55.7235 45.0431C55.5538 45.0431 55.469 45.2127 55.469 45.5689C55.469 46.0269 55.4351 46.0778 55.2146 45.8912C54.9092 45.6368 54.8753 44.8734 55.1637 44.8734C55.2655 44.8734 55.3163 44.8225 55.2655 44.7716C55.1128 44.619 55.6895 44.0592 56.0118 44.0422C56.1645 44.0253 56.3341 44.0931 56.385 44.1779ZM57.3858 44.144C57.2671 44.1779 57.0635 44.1779 56.9618 44.144C56.843 44.0931 56.9278 44.0592 57.1653 44.0592C57.4028 44.0592 57.4876 44.0931 57.3858 44.144ZM59.7098 44.3645C59.8964 44.5002 59.8285 44.5172 59.4553 44.4324C58.8277 44.2967 58.692 44.1949 59.133 44.1949C59.3026 44.1949 59.5741 44.2797 59.7098 44.3645ZM60.7275 44.3476C60.7275 44.4493 60.5749 44.5002 60.3883 44.4833C60.2017 44.4663 60.049 44.3985 60.049 44.3306C60.049 44.2628 60.2017 44.1949 60.3883 44.1949C60.5749 44.1949 60.7275 44.2628 60.7275 44.3476ZM40.321 44.6359C40.2702 44.6868 40.1175 44.7038 39.9988 44.6529C39.863 44.602 39.9139 44.5511 40.1005 44.5511C40.2871 44.5342 40.3889 44.5851 40.321 44.6359ZM39.0149 45.3823C39.0149 45.4671 38.9301 45.5519 38.8283 45.5519C38.7435 45.5519 38.7096 45.6368 38.7605 45.7216C38.8283 45.8234 39.0149 45.8573 39.2015 45.8064C39.439 45.7216 39.5408 45.8064 39.6256 46.1287C39.6765 46.3662 39.8291 46.6376 39.9648 46.7563C40.1514 46.909 40.1514 47.0277 39.9309 47.4518C39.7613 47.7911 39.5916 47.9268 39.422 47.8589C39.2693 47.808 39.0488 47.7571 38.9131 47.7571C38.7435 47.7571 38.6756 47.5197 38.6756 46.8411C38.6756 46.3322 38.6078 45.8573 38.506 45.8064C38.4042 45.7385 38.4212 45.6198 38.5569 45.4671C38.7944 45.1788 39.0149 45.1448 39.0149 45.3823ZM38.4212 46.2305C38.5908 46.7902 38.3194 46.9768 38.065 46.4849C37.7766 45.9082 37.7766 45.8912 38.065 45.8912C38.2007 45.8912 38.3533 46.0439 38.4212 46.2305ZM37.9123 47.5536C37.8105 47.6554 37.4882 46.7902 37.5052 46.434C37.5052 46.2814 37.6239 46.451 37.7596 46.8072C37.8953 47.1804 37.9632 47.5027 37.9123 47.5536ZM33.2644 51.3533C33.3662 51.5738 33.6885 51.964 33.9939 52.2184C34.2822 52.4898 34.4179 52.6594 34.2992 52.5916C34.1635 52.5237 33.9599 52.6086 33.8242 52.7782C33.6376 53.0157 33.5358 53.0326 33.485 52.88C33.4341 52.7782 33.2305 52.6764 33.0439 52.6764C32.6029 52.6764 32.2467 52.2184 32.2297 51.6247C32.2297 50.9292 32.9421 50.7426 33.2644 51.3533ZM12.2134 70.742C12.2134 70.8777 12.1455 70.9964 12.0437 70.9964C11.9589 70.9964 11.925 70.8777 11.9759 70.742C12.0437 70.6063 12.1116 70.4876 12.1455 70.4876C12.1794 70.4876 12.2134 70.6063 12.2134 70.742ZM77.5209 83.5491C77.5209 83.6339 77.487 83.7187 77.4531 83.7187C77.4022 83.7187 77.3174 83.6339 77.2665 83.5491C77.2156 83.4473 77.2495 83.3794 77.3343 83.3794C77.4361 83.3794 77.5209 83.4473 77.5209 83.5491ZM22.459 88.2648C22.5099 88.3496 22.442 88.4174 22.3063 88.4174C22.1706 88.4174 22.1028 88.3496 22.1537 88.2648C22.2046 88.1969 22.2724 88.1291 22.3063 88.1291C22.3403 88.1291 22.4081 88.1969 22.459 88.2648ZM102.032 96.424C102.083 96.5088 102.049 96.6275 101.948 96.6954C101.863 96.7463 101.778 96.6784 101.778 96.5427C101.778 96.2374 101.88 96.1865 102.032 96.424ZM105.595 97.9676C105.764 98.1542 105.815 98.3069 105.713 98.3069C105.612 98.3069 105.442 98.1542 105.34 97.9676C105.238 97.781 105.188 97.6284 105.221 97.6284C105.255 97.6284 105.425 97.781 105.595 97.9676Z" fill="black"/>
<path d="M96.1802 7.53783C96.1802 7.8262 96.6721 8.09761 96.9944 7.99583C97.2149 7.92798 97.3676 7.97887 97.4354 8.1485C97.5033 8.31813 97.4185 8.40295 97.181 8.40295C96.9774 8.40295 96.8926 8.4708 96.9605 8.58954C97.0114 8.69132 97.2319 8.72524 97.4524 8.67435C97.656 8.62346 98.4702 8.65739 99.2335 8.75917C100.624 8.9288 101.066 8.86095 100.591 8.57258C100.166 8.30117 98.6228 7.89406 98.0122 7.89406C97.7068 7.89406 97.2997 7.77531 97.1301 7.63961C96.7569 7.3682 96.1802 7.30035 96.1802 7.53783Z" fill="black"/>
<path d="M133.838 45.993C133.838 46.1287 133.77 46.1966 133.668 46.1457C133.584 46.0948 133.499 46.1287 133.499 46.2305C133.499 46.3493 133.601 46.4001 133.736 46.3493C134.16 46.1796 135.28 47.825 135.093 48.3509C135.042 48.4696 135.076 48.6223 135.178 48.6901C135.551 48.9107 135.348 49.0803 134.873 48.9446C134.245 48.775 134.092 48.9107 134.449 49.3008C134.686 49.5722 134.703 49.6231 134.483 49.7079C134.33 49.7758 134.228 50.0302 134.228 50.3525C134.228 50.6579 134.262 50.7936 134.296 50.6918C134.415 50.3695 135.144 50.9123 135.263 51.4212C135.382 51.8792 135.823 51.964 135.975 51.5739C136.043 51.4382 136.179 51.3194 136.315 51.3194C136.773 51.3194 136.552 50.9971 135.874 50.7087C135.5 50.5391 135.195 50.3525 135.195 50.2677C135.195 50.0811 135.433 50.0981 135.653 50.3186C135.789 50.4543 135.924 50.4373 136.179 50.2847C136.45 50.115 136.671 50.132 137.451 50.4543C137.977 50.6748 138.486 50.7936 138.605 50.7087C138.74 50.6409 138.757 50.6579 138.689 50.7766C138.622 50.8953 138.656 50.9802 138.757 50.9802C138.893 50.9802 138.927 50.8275 138.859 50.573C138.706 49.9284 138.91 49.6231 139.504 49.6231C140.063 49.6061 140.623 49.2839 140.623 48.9785C140.623 48.8767 140.504 48.8258 140.352 48.8937C140.148 48.9785 140.097 48.8598 140.131 48.2152C140.165 47.6724 140.233 47.4688 140.403 47.5367C140.521 47.5876 140.623 47.5536 140.623 47.4518C140.623 47.367 140.471 47.2483 140.284 47.1974C139.996 47.1295 139.928 47.2144 139.843 47.7741C139.724 48.4696 139.436 48.5205 139.436 47.825C139.436 47.3331 139.164 47.2822 139.012 47.7572C138.91 48.0795 138.876 48.0795 137.689 47.6384C136.586 47.2483 135.772 46.8412 135.534 46.5698C135.365 46.3662 134.211 45.7216 134.025 45.7216C133.923 45.7216 133.838 45.8404 133.838 45.993Z" fill="black"/>
<path d="M136.383 51.7435C136.383 51.8961 136.298 51.964 136.196 51.8961C136.06 51.8113 136.026 51.9131 136.111 52.2184C136.162 52.4729 136.128 52.7104 136.026 52.7613C135.908 52.8461 135.942 52.9818 136.128 53.1853C136.264 53.338 136.349 53.5924 136.281 53.7621C136.213 53.9487 136.264 54.0335 136.45 54.0335C136.586 54.0335 136.79 54.1861 136.891 54.3727C137.163 54.8986 137.214 56.4592 136.959 56.7476C136.739 57.002 136.722 57.0699 136.722 57.5109C136.722 57.6636 136.518 57.8671 136.264 57.9859C135.992 58.0876 135.738 58.2573 135.67 58.359C135.484 58.5965 135.178 58.0876 135.297 57.7314C135.416 57.3582 135.178 57.2395 134.822 57.4939C134.585 57.6636 134.585 57.7484 134.788 58.1046C134.907 58.3421 135.009 58.4269 135.026 58.2912C135.026 58.1555 135.059 58.0876 135.11 58.1385C135.212 58.2403 134.805 59.1224 134.652 59.1224C134.449 59.1224 134.483 59.767 134.686 59.8348C134.788 59.8688 134.788 59.9875 134.686 60.1232C134.568 60.3268 134.5 60.3268 134.279 60.1571C134.076 59.9875 133.838 59.9705 133.177 60.1402C132.719 60.2419 132.159 60.3268 131.938 60.3098C131.226 60.2419 130.954 60.3098 130.954 60.5133C130.954 60.8017 130.106 61.7516 129.733 61.8873C129.563 61.9382 129.428 62.1418 129.428 62.3284C129.428 62.515 129.326 62.7525 129.224 62.8542C129.105 62.956 128.834 63.1765 128.614 63.3462L128.223 63.6854L128.681 64.1943C128.936 64.4827 129.207 64.6693 129.309 64.6014C129.411 64.5505 129.428 64.5675 129.377 64.6693C129.309 64.7541 129.479 65.1442 129.733 65.5005C129.988 65.8567 130.191 66.2808 130.191 66.4165C130.191 66.5522 130.361 66.6879 130.581 66.7218C130.785 66.7557 130.954 66.8745 130.954 66.9762C130.954 67.095 131.124 66.9932 131.345 66.7557C131.667 66.3995 131.718 66.162 131.684 65.2291C131.667 64.6014 131.65 64.0416 131.616 63.9568C131.548 63.5328 131.667 63.5497 132.159 64.0247C132.719 64.5845 133.261 64.7371 133.092 64.2791C132.956 63.9399 133.278 63.3631 133.584 63.3631C133.719 63.3631 133.838 63.431 133.838 63.5328C133.838 63.8551 134.093 63.7024 134.296 63.2614C134.398 63.0239 134.466 62.7355 134.415 62.5998C134.364 62.4811 134.398 62.3284 134.5 62.2605C134.601 62.2096 134.686 62.2605 134.686 62.3962C134.686 62.7016 135.365 63.3122 135.772 63.3971C136.026 63.431 136.128 63.3122 136.247 62.8882C136.332 62.5828 136.501 62.3453 136.637 62.3453C137.01 62.3453 136.942 61.8704 136.552 61.7516C136.366 61.7008 136.213 61.582 136.213 61.4972C136.213 61.4293 136.366 61.3954 136.552 61.4463C136.739 61.4972 136.891 61.582 136.891 61.6499C136.891 61.7008 137.231 61.7516 137.655 61.7516C138.35 61.7516 138.418 61.7177 138.418 61.3276L138.435 60.9035L138.69 61.3785C138.978 61.9213 139.334 61.8195 139.215 61.2258C139.131 60.7508 139.453 60.683 139.843 61.0901C140.097 61.3276 140.131 61.3276 140.386 61.0901C140.522 60.9374 140.589 60.7339 140.539 60.649C140.471 60.5473 140.505 60.3607 140.606 60.2419C140.742 60.0723 140.708 59.9196 140.454 59.6313C140.267 59.4108 140.097 59.0885 140.097 58.8849C140.081 58.6813 140.047 58.4099 140.03 58.2742C140.013 58.1385 139.979 57.901 139.962 57.7484C139.962 57.5957 139.792 57.3073 139.606 57.0868C139.419 56.8663 139.266 56.5949 139.266 56.4592C139.266 56.2896 139.368 56.2556 139.606 56.3235C139.792 56.3913 139.945 56.3574 139.945 56.2556C139.945 56.1539 139.877 56.069 139.775 56.069C139.69 56.069 139.606 55.6959 139.606 55.2379C139.606 54.4406 139.555 54.3388 138.503 53.2532C137.892 52.6255 137.4 51.9979 137.4 51.8792C137.4 51.7604 137.299 51.6587 137.163 51.6587C137.027 51.6587 136.807 51.6078 136.654 51.5569C136.467 51.489 136.383 51.5399 136.383 51.7435ZM137.231 52.2354C137.231 52.2693 137.112 52.3372 136.976 52.405C136.841 52.4559 136.722 52.422 136.722 52.3372C136.722 52.2354 136.841 52.1675 136.976 52.1675C137.112 52.1675 137.231 52.2015 137.231 52.2354ZM134.127 61.7516C134.262 62.1248 134.127 62.2096 133.601 62.0739C133.244 61.9891 133.194 61.9213 133.346 61.7347C133.601 61.4124 133.991 61.4293 134.127 61.7516ZM132.888 62.2605C132.769 62.5489 132.379 62.5998 132.227 62.3623C132.159 62.2266 132.379 62.1079 132.854 62.0231C132.922 62.0231 132.939 62.1248 132.888 62.2605ZM131.412 62.5489C131.362 62.6846 131.311 62.6337 131.311 62.4471C131.294 62.2605 131.345 62.1588 131.395 62.2266C131.446 62.2775 131.463 62.4302 131.412 62.5489ZM131.904 62.6337C131.786 63.0917 131.379 63.5328 131.09 63.5328C131.022 63.5328 130.971 63.431 131.005 63.3122C131.022 63.1935 130.819 63.0917 130.496 63.0578C130.191 63.0239 129.937 62.9221 129.937 62.8203C129.937 62.7016 130.225 62.6846 130.768 62.7525C131.514 62.8542 131.616 62.8203 131.718 62.515C131.887 62.0061 132.023 62.1079 131.904 62.6337Z" fill="black"/>
<path d="M10.7545 60.225C10.5849 60.3607 10.1438 60.4794 9.80458 60.4794C9.44836 60.4794 9.15999 60.5473 9.15999 60.649C9.15999 60.7339 9.00732 60.8187 8.80376 60.8187C8.29487 60.8187 8.4645 61.3615 9.05821 61.6329C9.48228 61.8534 9.58406 61.8364 10.0251 61.5141C10.2795 61.3106 10.5849 61.1579 10.6697 61.1579C10.7715 61.1579 10.8054 61.0561 10.7545 60.9204C10.7036 60.7678 10.8054 60.5812 11.009 60.4455C11.3652 60.225 11.4839 59.9705 11.2295 59.9705C11.1447 59.9705 10.9411 60.0893 10.7545 60.225Z" fill="black"/>
<path d="M122.524 85.2793C122.371 85.5168 122.405 87.9595 122.558 88.5362C122.659 88.8585 122.643 88.8755 122.422 88.5871C121.879 87.9255 121.811 88.4684 122.252 89.8424C122.541 90.7244 122.982 91.3521 123.321 91.3521C123.423 91.3521 123.491 91.2164 123.491 91.0637C123.491 90.911 123.542 90.8432 123.609 90.8941C123.66 90.9619 123.626 91.1994 123.491 91.4199C123.253 91.861 123.372 92.4547 123.66 92.285C123.745 92.2341 123.83 92.2681 123.83 92.3529C123.83 92.6413 123.321 92.5734 123.219 92.285C123.151 92.1493 122.999 92.0306 122.863 92.0306C122.693 92.0306 122.761 92.2172 123.118 92.6582C123.389 93.0144 123.745 93.5403 123.898 93.8456C124.254 94.5581 124.508 94.6938 124.78 94.3206C125.068 93.9474 124.916 93.235 124.508 92.8618C124.203 92.5904 124.203 92.5734 124.593 92.3698C125.017 92.1324 125.577 92.302 125.17 92.5395C125 92.6582 125 92.743 125.187 92.9636C125.408 93.235 125.441 93.235 125.628 92.9636C125.815 92.7091 125.849 92.7091 126.001 92.9975C126.103 93.1671 126.239 93.235 126.307 93.1671C126.391 93.0993 126.34 92.8787 126.222 92.6921C125.832 92.0476 126.137 92.2002 126.917 93.0314C127.63 93.7947 127.748 94.0661 127.358 94.0661C127.29 94.0661 127.24 94.0153 127.256 93.9304C127.307 93.7608 126.832 93.0484 126.68 93.0484C126.442 93.0484 126.544 93.5742 126.798 93.659C126.968 93.7269 127.053 93.9983 127.053 94.4733C127.053 94.9313 127.104 95.0839 127.206 94.9313C127.324 94.7447 127.426 94.7447 127.748 94.9821C128.342 95.3893 128.444 95.3214 128.139 94.7277C127.986 94.4054 127.935 94.151 128.037 94.0831C128.122 94.0322 128.223 93.7778 128.274 93.5233C128.342 93.1501 128.274 93.0314 127.884 92.8618C127.358 92.6582 127.223 92.3698 127.647 92.3698C127.782 92.3698 127.901 92.4377 127.901 92.5395C127.901 92.743 128.071 92.76 128.393 92.5564C128.563 92.4377 128.58 92.3359 128.427 92.0476C128.189 91.6404 127.901 91.5726 127.901 91.9458C127.901 92.1833 127.85 92.1833 127.392 91.9458C127.104 91.7931 126.815 91.7253 126.731 91.7761C126.646 91.8101 126.527 91.7422 126.476 91.5895C126.391 91.369 126.222 91.3351 125.628 91.4199C125.051 91.5047 124.865 91.4878 124.797 91.2673C124.695 91.0298 124.882 90.945 125.492 90.9619C125.594 90.9789 125.696 90.928 125.696 90.8771C125.696 90.7075 125.102 90.3513 124.814 90.3343C124.475 90.3343 124.39 90.0968 124.475 89.4522C124.525 89.1469 124.644 88.9772 124.848 88.9772C125.272 88.9772 125.458 87.5524 125.085 86.9926C124.95 86.7721 124.814 86.2801 124.814 85.9069C124.814 85.2454 124.797 85.2454 124.254 85.3472C123.932 85.3981 123.66 85.3641 123.592 85.2624C123.423 85.0079 122.693 85.0249 122.524 85.2793Z" fill="black"/>
<path d="M128.41 94.2527C128.41 94.4224 128.631 94.7277 128.902 94.9313C129.19 95.1348 129.36 95.3893 129.309 95.5419C129.241 95.7285 129.173 95.7116 129.004 95.4741C128.681 95.05 128.546 95.2875 128.664 95.9999C128.732 96.3562 128.885 96.6106 129.021 96.6106C129.173 96.6106 129.258 96.7972 129.258 97.1025C129.258 97.4757 129.377 97.6284 129.733 97.781C130.005 97.8998 130.225 98.0694 130.225 98.1882C130.225 98.3069 130.276 98.5613 130.344 98.7479C130.429 99.0533 130.395 99.1042 130.021 99.1042C129.784 99.1042 129.597 99.0533 129.597 98.9685C129.597 98.8836 129.53 98.8158 129.428 98.8158C129.343 98.8158 129.309 99.0363 129.377 99.3586C129.462 99.7488 129.428 99.8505 129.275 99.7657C129.139 99.6809 129.038 99.7657 128.97 99.9862C128.851 100.427 128.783 100.427 128.41 99.9693C128.156 99.63 128.054 99.6131 127.664 99.7996C127.426 99.9014 127.223 100.105 127.223 100.258C127.223 100.41 127.07 100.512 126.799 100.512C126.561 100.512 126.341 100.614 126.307 100.716C126.273 100.834 126.188 101.174 126.086 101.445C126.001 101.733 125.95 102.056 126.001 102.174C126.103 102.48 126.544 102.412 126.544 102.073C126.544 101.92 126.663 101.632 126.799 101.462C127.053 101.14 127.053 101.14 127.053 101.496C127.053 101.886 127.29 102.005 127.477 101.7C127.528 101.615 127.681 101.581 127.816 101.649C127.986 101.7 128.071 101.615 128.071 101.377C128.071 101.072 128.122 101.038 128.393 101.191C128.664 101.326 128.732 101.53 128.715 102.242C128.698 103.006 128.749 103.158 129.173 103.498C129.445 103.718 129.818 103.905 130.021 103.939C130.225 103.973 130.378 104.142 130.412 104.38C130.479 104.787 130.853 104.804 130.887 104.397C130.887 104.261 130.954 104.023 131.022 103.854C131.107 103.667 131.073 103.362 130.937 103.09C130.632 102.48 130.649 102.327 131.005 102.276C131.175 102.259 131.294 102.344 131.294 102.531C131.294 102.683 131.412 102.972 131.548 103.158C131.769 103.464 131.786 103.447 131.803 102.853C131.803 102.514 131.887 102.174 131.972 102.124C132.074 102.073 132.142 101.869 132.142 101.666C132.142 101.038 131.412 98.6462 131.26 98.7479C131.158 98.8158 131.158 98.5783 131.226 98.2051C131.328 97.6453 131.311 97.5945 131.039 97.6793C130.836 97.7641 130.734 97.6962 130.666 97.4588C130.564 97.0686 130.276 97.0007 130.276 97.3739C130.276 97.5096 130.157 97.6284 130.005 97.6284C129.801 97.6284 129.767 97.5605 129.903 97.4079C129.988 97.2891 130.005 97.0516 129.92 96.865C129.699 96.3053 129.75 96.2374 130.276 96.3053L130.768 96.3731L130.446 95.8473C130.259 95.5419 130.106 95.1179 130.106 94.8973C130.106 94.2527 129.835 93.9983 129.105 93.9644C128.529 93.9304 128.41 93.9813 128.41 94.2527Z" fill="black"/>
<path d="M125.356 95.0669C125.356 95.1687 125.441 95.2874 125.526 95.3383C125.645 95.4062 125.679 95.8472 125.645 96.3731C125.577 97.323 125.645 97.4417 126.018 97.0685C126.188 96.9159 126.272 96.9159 126.323 97.0685C126.357 97.1873 126.51 97.2212 126.646 97.1703C127.002 97.0346 126.934 97.5096 126.544 97.8488C126.255 98.0863 126.239 98.1881 126.408 98.4765C126.527 98.6631 126.713 98.8157 126.815 98.8157C126.934 98.8157 127.053 98.9345 127.121 99.0702C127.273 99.4942 127.528 99.3585 127.731 98.7309C127.833 98.4086 128.003 98.1372 128.087 98.1372C128.189 98.1372 128.206 98.2051 128.155 98.3068C128.037 98.4934 128.562 98.5274 128.987 98.3747C129.394 98.222 129.309 97.7131 128.834 97.4587C128.495 97.2721 128.41 97.1025 128.41 96.5766C128.41 96.0508 128.359 95.932 128.071 95.932C127.884 95.932 127.731 95.9999 127.731 96.1016C127.731 96.1865 127.596 96.2713 127.409 96.2713C127.171 96.2713 127.121 96.1695 127.188 95.8472C127.256 95.491 127.188 95.4231 126.866 95.4231C126.646 95.4062 126.272 95.3044 126.035 95.1687C125.526 94.8803 125.356 94.8633 125.356 95.0669ZM128.02 96.6445C127.969 96.7802 127.918 96.7293 127.918 96.5427C127.901 96.3561 127.952 96.2543 128.003 96.3222C128.054 96.3731 128.071 96.5257 128.02 96.6445ZM127.901 97.8828C127.901 97.9676 127.816 97.9336 127.731 97.7979C127.646 97.6622 127.562 97.4587 127.562 97.3739C127.562 97.2721 127.646 97.323 127.731 97.4587C127.816 97.5944 127.901 97.781 127.901 97.8828ZM128.189 97.8319C128.138 97.9676 128.087 97.9167 128.087 97.7301C128.071 97.5435 128.121 97.4417 128.172 97.5096C128.223 97.5605 128.24 97.7131 128.189 97.8319ZM127.511 98.1711C127.46 98.3068 127.409 98.2559 127.409 98.0694C127.392 97.8828 127.443 97.781 127.494 97.8488C127.545 97.8997 127.562 98.0524 127.511 98.1711Z" fill="black"/>
<path d="M122.202 96.2713C122.134 96.5936 121.947 97.0686 121.76 97.323C121.574 97.5944 121.489 97.8828 121.54 97.9676C121.608 98.0694 121.591 98.1203 121.506 98.1033C121.302 98.0355 119.979 99.3925 119.844 99.8166C119.776 100.037 119.81 100.292 119.912 100.393C120.047 100.529 120.098 100.529 120.098 100.393C120.098 100.309 120.488 99.8336 120.946 99.3586C121.421 98.8836 121.794 98.4256 121.794 98.3239C121.794 98.0524 122.524 97.34 122.88 97.2721C123.338 97.1873 123.406 96.8481 122.982 96.7293C122.744 96.6784 122.643 96.5088 122.643 96.1865C122.643 95.9321 122.71 95.7794 122.812 95.8473C122.914 95.8981 122.982 95.8812 122.982 95.7794C122.982 95.6946 122.829 95.6267 122.643 95.6437C122.405 95.6607 122.269 95.8303 122.202 96.2713Z" fill="black"/>
<path d="M71.4821 98.1712C71.4143 98.273 71.4482 98.4087 71.55 98.4426C71.6687 98.4765 71.7535 98.6462 71.7535 98.8328C71.7535 99.0363 71.6687 99.1042 71.4991 99.0533C71.3634 98.9854 71.2446 99.0363 71.2446 99.1381C71.2446 99.2399 71.3294 99.3247 71.4143 99.3247C71.6348 99.3247 71.6348 100.054 71.4312 100.258C71.2955 100.41 71.6009 102.734 71.8383 103.362C71.991 103.752 72.6526 103.888 73.1954 103.616C74.0774 103.175 74.298 102.887 74.298 102.158C74.298 101.462 73.6194 99.8505 73.1784 99.4774C73.0427 99.3756 72.9409 99.189 72.9409 99.0872C72.9409 98.8328 72.0589 97.9677 71.8044 97.9677C71.6857 97.9677 71.55 98.0525 71.4821 98.1712Z" fill="black"/>
<path d="M119.64 101.666C119.555 101.733 119.369 102.073 119.233 102.412C119.114 102.768 118.945 103.057 118.86 103.057C118.792 103.057 118.639 103.277 118.555 103.549C118.453 103.82 118.181 104.176 117.961 104.329C117.622 104.549 117.571 104.651 117.74 104.855C117.893 105.058 117.859 105.092 117.486 105.092C117.231 105.092 116.909 105.211 116.773 105.347C116.621 105.482 116.366 105.601 116.18 105.601C115.959 105.601 115.857 105.72 115.857 105.957C115.857 106.161 115.552 106.687 115.179 107.128C114.619 107.806 114.382 107.959 113.737 108.044C113.33 108.112 112.94 108.23 112.889 108.332C112.821 108.417 112.702 108.451 112.617 108.4C112.482 108.315 112.38 108.943 112.448 109.384C112.465 109.452 112.397 109.672 112.295 109.859C112.143 110.13 112.058 110.164 111.735 109.978C111.532 109.859 111.227 109.791 111.057 109.825C110.904 109.842 110.718 109.74 110.667 109.604C110.514 109.231 110.039 109.536 109.717 110.198C109.428 110.758 109.445 111.385 109.717 112.844C109.954 114.049 110.175 114.405 110.599 114.303C110.887 114.218 110.938 114.286 110.921 114.778C110.921 115.1 110.972 115.711 111.023 116.152C111.159 117 111.142 116.983 112.431 116.966C113.025 116.966 113.143 117.017 113.143 117.289C113.143 117.679 113.415 117.899 113.567 117.645C113.635 117.543 113.805 117.509 113.975 117.56C114.144 117.611 114.433 117.492 114.636 117.306C114.84 117.102 115.009 117.034 115.009 117.136C115.009 117.221 115.128 117.306 115.264 117.306C115.399 117.306 115.518 117.39 115.518 117.492C115.518 117.611 115.671 117.645 115.874 117.594C116.434 117.441 116.706 117.645 116.706 118.171C116.706 118.764 116.807 118.781 117.74 118.238L118.487 117.831L118.69 118.205C118.877 118.578 118.894 118.578 119.08 118.086C119.182 117.814 119.216 117.458 119.165 117.289C119.097 117.119 119.199 116.695 119.352 116.339C119.555 115.932 119.589 115.694 119.471 115.66C119.148 115.541 119.437 114.863 120.047 114.286C120.37 113.998 120.692 113.743 120.794 113.743C120.878 113.743 120.912 113.37 120.845 112.844C120.726 111.708 120.997 111.284 121.845 111.335C122.761 111.402 122.812 111.063 121.981 110.334C121.404 109.842 121.269 109.638 121.37 109.35C121.438 109.112 121.353 108.824 121.133 108.502C120.828 108.078 120.794 107.942 120.98 107.552C121.116 107.229 121.116 107.06 120.98 106.924C120.743 106.687 121.065 106.347 121.693 106.178C122.303 106.025 122.405 105.805 121.879 105.669C121.37 105.55 121.319 105.262 121.811 105.262C122.235 105.262 122.812 104.973 122.812 104.736C122.812 104.651 122.643 104.498 122.439 104.414C121.947 104.193 121.404 103.854 121.269 103.684C121.218 103.616 121.065 103.565 120.929 103.599C120.777 103.633 120.709 103.532 120.743 103.311C120.76 103.107 120.607 102.802 120.353 102.582C120.132 102.378 119.979 102.107 120.03 101.971C120.132 101.683 119.912 101.496 119.64 101.666Z" fill="black"/>
<path d="M91.6851 104.244C91.3458 104.787 91.8717 105.533 93.8563 107.399C94.4331 107.942 94.8232 108.468 94.8232 108.705C94.8232 108.824 95.1625 109.163 95.5866 109.469C96.0106 109.757 96.3329 110.062 96.316 110.13C96.2311 110.486 96.8927 112.2 97.1641 112.301C97.6391 112.454 98.8943 114.71 98.9961 115.558C99.03 115.965 99.5389 116.712 100.302 117.475C100.557 117.73 100.76 118.001 100.76 118.086C100.76 118.154 101.439 118.883 102.27 119.697C103.763 121.173 103.797 121.19 104.322 121.003C104.747 120.868 104.916 120.868 105.103 121.071C105.306 121.275 105.323 121.411 105.154 121.767C104.933 122.242 104.662 122.377 104.662 122.021C104.662 121.767 104.441 122.004 104.39 122.31C104.356 122.496 104.526 122.564 105.001 122.564C105.578 122.564 106.188 122.937 106.053 123.226C106.036 123.276 106.29 123.378 106.646 123.463C107.003 123.531 107.444 123.65 107.63 123.734C108.224 124.006 108.529 124.074 108.631 123.955C108.835 123.751 110.158 123.955 110.785 124.26C111.43 124.6 113.974 124.99 114.415 124.837C114.551 124.769 114.67 124.82 114.67 124.939C114.67 125.041 114.772 125.108 114.89 125.058C114.992 125.024 115.331 125.092 115.637 125.227C116.383 125.533 116.57 125.516 116.451 125.125C116.366 124.854 116.417 124.82 116.705 124.888C116.909 124.939 117.045 125.125 117.045 125.346C117.062 125.702 117.062 125.702 117.299 125.38C117.435 125.193 117.554 125.125 117.554 125.244C117.554 125.346 117.842 125.482 118.198 125.533C118.537 125.6 118.995 125.702 119.182 125.787C119.42 125.872 119.861 125.855 120.369 125.702C120.827 125.583 121.099 125.465 120.963 125.465C120.827 125.448 120.777 125.397 120.827 125.346C120.895 125.278 121.031 125.295 121.15 125.397C121.489 125.651 122.083 125.617 122.32 125.346C122.473 125.159 122.575 125.159 122.744 125.295C123.134 125.617 125.509 125.634 126.544 125.329C127.053 125.176 127.579 125.075 127.698 125.092C127.833 125.108 128.02 125.058 128.139 124.956C128.24 124.871 128.444 124.854 128.563 124.922C128.783 125.058 129.869 124.905 130.055 124.701C130.327 124.43 129.886 124.379 128.325 124.481C127.867 124.515 127.426 124.447 127.341 124.362C127.256 124.243 127.087 124.345 126.866 124.65C126.68 124.905 126.442 125.058 126.34 125.007C126.12 124.871 125.136 124.735 124.118 124.701C123.559 124.701 123.253 124.769 123.151 124.939C123.033 125.125 122.982 125.142 122.982 124.973C122.982 124.82 122.863 124.786 122.659 124.854C122.473 124.905 122.286 124.871 122.218 124.769C122.168 124.684 122.201 124.6 122.303 124.6C122.405 124.6 122.439 124.515 122.371 124.413C122.286 124.277 122.235 124.277 122.151 124.413C122.015 124.617 121.387 124.583 121.184 124.379C120.963 124.159 120.251 124.26 120.149 124.532C120.098 124.667 119.962 124.752 119.827 124.701C119.708 124.65 119.589 124.701 119.538 124.82C119.504 124.956 119.386 124.922 119.182 124.718C118.809 124.345 118.537 124.413 118.317 124.905C118.232 125.108 118.063 125.278 117.944 125.278C117.672 125.278 117.655 125.007 117.91 124.854C118.164 124.684 117.435 124.209 117.13 124.328C116.773 124.464 116.366 124.277 116.366 123.989C116.366 123.734 116.332 123.718 115.179 123.684C114.619 123.667 114.415 123.599 114.365 123.378C114.331 123.158 114.399 123.107 114.653 123.158C115.128 123.243 116.061 122.92 115.976 122.683C115.942 122.581 115.45 122.53 114.721 122.547C113.907 122.581 113.347 122.496 113.008 122.327C112.736 122.191 112.465 122.123 112.397 122.174C112.346 122.242 112.193 122.14 112.058 121.97C111.837 121.665 111.82 121.682 111.549 122.106C111.328 122.428 111.142 122.53 110.802 122.479C110.548 122.462 110.039 122.428 109.666 122.411C109.14 122.394 108.936 122.31 108.818 122.021C108.716 121.818 108.478 121.631 108.258 121.597C108.037 121.563 107.63 121.427 107.325 121.275C107.003 121.088 106.782 121.054 106.731 121.173C106.697 121.292 106.494 121.292 106.154 121.19C105.866 121.122 105.561 121.088 105.476 121.139C105.391 121.207 105.357 121.003 105.425 120.664C105.476 120.359 105.544 119.528 105.595 118.832C105.68 117.102 105.798 116.763 106.205 116.983C106.579 117.17 107.206 116.915 107.206 116.576C107.206 116.44 107.155 116.44 107.054 116.61C106.952 116.763 106.867 116.78 106.799 116.644C106.731 116.542 106.714 116.389 106.765 116.305C106.816 116.22 106.714 116.118 106.528 116.067C106.188 115.982 106.121 115.881 105.951 115.049C105.815 114.49 105.493 114.473 104.933 114.982C104.475 115.406 104.509 115.609 105.035 115.609C105.205 115.609 105.34 115.694 105.34 115.796C105.34 115.915 105.188 115.948 104.967 115.881C104.747 115.83 104.526 115.779 104.458 115.779C104.373 115.779 104.322 115.694 104.322 115.592C104.322 115.49 104.204 115.304 104.068 115.168C103.932 115.015 103.814 114.676 103.814 114.405C103.814 113.998 103.746 113.913 103.423 113.913C103.203 113.913 102.881 113.811 102.711 113.675C102.423 113.472 102.406 113.404 102.626 113.15C102.965 112.742 103.016 112.132 102.728 111.894C102.592 111.776 102.524 111.555 102.575 111.419C102.66 111.216 102.609 111.165 102.406 111.25C102.219 111.318 102.117 111.267 102.117 111.114C102.117 110.978 101.931 110.826 101.693 110.758C101.456 110.707 101.269 110.554 101.269 110.419C101.269 110.198 101.184 110.147 100.591 110.113C100.455 110.096 100.336 109.944 100.336 109.757C100.336 109.553 100.2 109.401 99.9969 109.367C99.8103 109.333 99.5729 109.231 99.4711 109.146C99.3863 109.078 99.1488 109.045 98.9452 109.095C98.6908 109.163 98.5551 109.095 98.4703 108.841C98.4194 108.637 98.2837 108.485 98.1989 108.485C98.114 108.485 98.0462 108.4 98.0462 108.298C98.0462 108.078 97.7917 107.823 97.0284 107.297C96.7061 107.077 96.3329 106.788 96.2142 106.67C96.0954 106.551 95.9088 106.449 95.824 106.449C95.7392 106.449 95.6714 106.33 95.6714 106.195C95.6714 106.042 95.5866 105.839 95.5017 105.72C95.4 105.601 95.1794 105.33 94.9928 105.109C94.7214 104.787 94.5009 104.719 93.8224 104.719C93.2287 104.719 92.8555 104.617 92.6011 104.397C92.194 104.04 91.8377 103.99 91.6851 104.244ZM120.946 125.041C120.946 125.075 120.827 125.108 120.692 125.108C120.556 125.108 120.437 125.041 120.437 124.939C120.437 124.854 120.556 124.82 120.692 124.871C120.827 124.939 120.946 125.007 120.946 125.041Z" fill="black"/>
<path d="M62.4238 106.771C62.4238 107.06 62.4917 107.314 62.5935 107.382C62.6783 107.433 62.7122 107.586 62.6613 107.704C62.6104 107.84 62.6443 107.993 62.7461 108.061C62.8479 108.112 62.9327 108.264 62.9327 108.366C62.9327 108.485 62.8649 108.468 62.7461 108.315C62.5935 108.112 62.5765 108.112 62.6613 108.366C62.7122 108.536 62.7631 108.824 62.7631 109.011C62.7631 109.401 63.1532 109.435 63.4416 109.061C63.6282 108.841 63.6112 108.79 63.3059 108.705C63.1023 108.654 62.9836 108.536 63.0345 108.451C63.2041 108.179 62.9327 107.111 62.7292 107.229C62.6104 107.314 62.5765 107.162 62.6274 106.805C62.6613 106.517 62.6443 106.279 62.5595 106.279C62.4917 106.279 62.4238 106.5 62.4238 106.771ZM63.272 108.994C63.272 109.078 63.2041 109.163 63.1023 109.163C63.0175 109.163 62.9327 109.078 62.9327 108.994C62.9327 108.892 63.0175 108.824 63.1023 108.824C63.2041 108.824 63.272 108.892 63.272 108.994Z" fill="black"/>
<path d="M133.838 109.604C133.702 109.842 133.601 110.334 133.584 110.707C133.584 111.063 133.516 111.368 133.414 111.368C133.329 111.368 133.363 111.453 133.499 111.555C133.668 111.674 133.685 111.759 133.567 111.809C133.448 111.86 133.414 112.064 133.465 112.25C133.55 112.607 133.567 112.607 133.685 112.284C133.787 112.013 133.821 112.047 133.821 112.454C133.838 112.861 133.787 112.912 133.499 112.844C133.092 112.742 132.922 112.946 133.075 113.387C133.193 113.811 134.177 113.981 134.177 113.591C134.194 113.37 134.211 113.37 134.364 113.624C134.703 114.201 134.805 113.743 134.5 113.099C134.059 112.217 134.194 111.843 134.873 112.081C135.551 112.318 135.636 112.183 135.127 111.691C134.72 111.301 134.72 111.284 135.042 111.063C135.348 110.843 135.5 110.011 135.229 110.011C135.161 110.011 134.924 110.13 134.72 110.283C134.347 110.537 134.347 110.52 134.347 109.859C134.347 109.061 134.16 108.977 133.838 109.604Z" fill="black"/>
<path d="M129.699 110.52C129.309 110.927 128.936 111.182 128.766 111.131C128.613 111.08 127.901 110.995 127.189 110.927C126.459 110.876 125.865 110.758 125.865 110.69C125.865 110.52 125.255 110.368 125.068 110.503C124.983 110.554 124.865 110.741 124.797 110.91C124.729 111.08 124.593 111.165 124.508 111.114C124.271 110.961 123.66 111.657 123.66 112.081C123.66 112.25 123.592 112.386 123.525 112.386C123.44 112.386 123.406 112.607 123.457 112.878C123.491 113.166 123.406 113.54 123.253 113.777C123.1 113.981 122.982 114.405 122.982 114.693C122.982 115.27 122.541 116.288 122.286 116.288C122.201 116.288 122.151 116.491 122.201 116.746C122.235 117.017 122.286 117.339 122.286 117.492C122.303 117.679 122.422 117.746 122.693 117.696C123.033 117.628 123.084 117.696 123.117 118.255C123.151 118.612 123.084 119.273 122.965 119.731C122.727 120.715 122.863 120.902 123.677 120.766C124.22 120.664 124.271 120.613 124.288 120.053C124.322 117.39 124.424 116.627 124.729 116.525C125.187 116.372 125.289 116.576 125.051 117.17C124.865 117.662 124.899 117.746 125.34 118.137C125.696 118.476 125.781 118.662 125.696 118.917C125.56 119.273 125.781 119.68 126.103 119.68C126.205 119.68 126.425 119.528 126.595 119.341C126.748 119.154 126.968 119.002 127.07 119.002C127.206 119.002 127.189 119.104 127.019 119.29C126.595 119.782 126.544 120.308 126.9 120.63C127.206 120.902 127.239 120.902 127.562 120.613C127.765 120.427 127.867 120.189 127.816 120.003C127.765 119.85 127.782 119.663 127.85 119.629C127.918 119.578 127.986 119.256 127.986 118.883C127.969 118.357 127.918 118.255 127.664 118.289C127.29 118.357 126.9 117.865 127.002 117.458C127.053 117.288 126.849 116.763 126.561 116.271C126.137 115.592 126.069 115.355 126.222 115.168C126.323 115.032 126.527 114.931 126.646 114.931C126.765 114.931 127.053 114.693 127.256 114.405C127.545 114.015 127.731 113.913 128.02 113.998C128.325 114.066 128.41 114.015 128.41 113.743C128.41 113.285 127.986 113.133 127.46 113.404C127.239 113.523 126.781 113.641 126.442 113.641C126.018 113.658 125.73 113.794 125.509 114.066C125.204 114.439 124.678 114.456 124.678 114.082C124.678 113.998 124.525 113.76 124.322 113.557C124.05 113.285 123.983 113.082 124.067 112.675C124.237 111.809 124.39 111.759 126.544 111.911C129.428 112.098 129.937 112.081 129.937 111.691C129.937 111.589 130.123 111.267 130.361 110.961C130.615 110.622 130.751 110.283 130.683 110.113C130.53 109.723 130.445 109.757 129.699 110.52Z" fill="black"/>
<path d="M134.941 116.593C134.669 116.627 134.381 116.746 134.313 116.847C134.211 117 134.177 117 134.177 116.847C134.177 116.695 134.058 116.729 133.838 116.915C133.431 117.255 133.397 117.56 133.753 117.407C133.94 117.339 134.008 117.424 134.008 117.713C134.008 118.103 134.042 118.12 134.601 117.933C134.924 117.831 135.195 117.645 135.195 117.526C135.195 117.339 135.263 117.339 135.534 117.475C135.738 117.577 136.026 117.611 136.196 117.56C136.382 117.509 136.773 117.611 137.095 117.814C137.807 118.255 137.909 118.238 137.909 117.763C137.909 116.898 136.637 116.406 134.941 116.593Z" fill="black"/>
<path d="M132.294 124.667C132.261 124.701 131.769 124.786 131.209 124.854C130.496 124.922 130.106 125.058 129.937 125.278C129.801 125.465 129.326 125.753 128.885 125.957C128.393 126.177 128.054 126.449 127.969 126.686C127.918 126.89 127.748 127.178 127.613 127.348C127.426 127.551 127.426 127.653 127.562 127.738C127.918 127.958 129.038 127.449 129.648 126.822C129.987 126.465 130.564 126.092 130.988 125.957C131.938 125.651 133.024 124.973 132.905 124.769C132.803 124.6 132.43 124.549 132.294 124.667Z" fill="black"/>
</svg>
