<svg xmlns="http://www.w3.org/2000/svg" fill="none" viewBox="0 0 32 40">
  <path fill="#10FFD4" fill-rule="evenodd" d="M0 39a1 1 0 0 1 1-1h30a1 1 0 0 1 0 2H1a1 1 0 0 1-1-1Z" clip-rule="evenodd"/>
  <path fill="#10FFD4" fill-rule="evenodd" d="M4 18v20h5V18H4Zm-1-2a1 1 0 0 0-1 1v22a1 1 0 0 0 1 1h7a1 1 0 0 0 1-1V17a1 1 0 0 0-1-1H3Z" clip-rule="evenodd"/>
  <path fill="#10FFD4" fill-rule="evenodd" d="m9 0 16 6v14h-2V7.386l-12-4.5V38h8a1 1 0 0 0 1 1h5v1H9V0Z" clip-rule="evenodd"/>
  <path fill="#10FFD4" d="M12 9h2v2h-2V9Zm4 0h2v2h-2V9Zm4 0h2v2h-2V9Zm-8 4h2v2h-2v-2Zm4 0h2v2h-2v-2Zm4 0h2v2h-2v-2Zm-8 4h2v2h-2v-2Zm4 0h2v2h-2v-2Zm4 0h2v2h-2v-2Zm-8 4h2v2h-2v-2Zm4 0h2v2h-2v-2Zm-4 4h2v2h-2v-2Zm4 0h2v2h-2v-2Zm-4 4h2v2h-2v-2Zm4 0h2v2h-2v-2Zm-4 4h2v2h-2v-2Zm4 0h2v2h-2v-2Z"/>
  <path fill="#10FFD4" fill-rule="evenodd" d="M21 22v16h7V22h-7Zm-1-2a1 1 0 0 0-1 1v18a1 1 0 0 0 1 1h9a1 1 0 0 0 1-1V21a1 1 0 0 0-1-1h-9Z" clip-rule="evenodd"/>
  <path fill="#10FFD4" fill-rule="evenodd" d="M26 26h-3v-2h3v2Zm0 4h-3v-2h3v2Zm0 4h-3v-2h3v2Zm0 4h-3v-2h3v2ZM6 9v9H5V9h1Z" clip-rule="evenodd"/>
</svg>