<svg width="173" height="105" viewBox="0 0 173 105" fill="none" xmlns="http://www.w3.org/2000/svg">
<path d="M153.914 0.0857179C152.658 0.15357 150.589 0.255348 149.334 0.306237C148.078 0.357126 146.823 0.458904 146.535 0.526756C146.263 0.577645 145.839 0.611571 145.602 0.594608L145.178 0.543719L145.602 0.899942C145.941 1.17135 145.975 1.2392 145.738 1.25616C145.585 1.25616 145.398 1.17135 145.33 1.06957C145.28 0.967794 145.076 0.916905 144.906 0.967794C144.72 1.01868 144.465 0.950831 144.347 0.815127C144.058 0.543719 143.838 0.49283 143.99 0.747275C144.058 0.849053 143.838 0.916905 143.481 0.916905C142.973 0.916905 142.871 0.967794 142.956 1.18831C143.04 1.40883 142.99 1.44276 142.684 1.34098C141.734 1.06957 141.124 1.06957 140.903 1.35794C140.7 1.64631 140.683 1.64631 140.683 1.34098C140.683 1.05261 140.547 1.03565 138.766 1.13742C137.714 1.20528 136.357 1.29009 135.763 1.34098C135.153 1.39187 134.763 1.39187 134.881 1.32402C135.288 1.12046 135.068 0.916905 134.44 0.916905C134.084 0.916905 133.711 0.83209 133.592 0.713349C133.456 0.577645 131.726 0.509793 127.587 0.49283C121.667 0.458904 119.75 0.560682 118.546 0.967794C118.071 1.13742 117.681 1.15439 117.155 1.05261C116.68 0.950831 116.12 0.950831 115.526 1.08653C115.018 1.18831 114 1.30705 113.27 1.34098C111.32 1.44276 110.149 1.61239 110.149 1.78202C110.149 1.86683 110.302 1.93468 110.488 1.93468C110.675 1.93468 110.828 2.03646 110.828 2.17217C110.828 2.29091 111.082 2.4775 111.387 2.57928C111.761 2.69802 111.829 2.74891 111.591 2.76587C111.387 2.78283 111.133 2.88461 111.014 2.98639C110.845 3.17298 110.811 3.15602 110.862 2.96943C110.896 2.83372 110.743 2.71498 110.505 2.68106C110.268 2.63017 109.946 2.46054 109.776 2.27394C109.539 2.0195 109.233 1.93468 108.623 1.93468C108.165 1.93468 107.74 2.00254 107.69 2.10431C107.639 2.18913 107.316 2.27394 106.994 2.27394C106.672 2.27394 106.417 2.3418 106.417 2.44357C106.417 2.52839 106.248 2.6132 106.044 2.63017C105.824 2.63017 105.315 2.76587 104.891 2.9355C104.297 3.18995 104.144 3.32565 104.144 3.64795C104.127 3.97024 104.246 4.07202 104.636 4.12291C105.009 4.15684 105.06 4.20773 104.857 4.29254C104.585 4.39432 104.585 4.42825 104.891 4.81839C105.196 5.22551 105.264 5.24247 107.469 5.25943C109.759 5.2764 110.929 5.49691 110.251 5.76832C110.03 5.85314 109.895 5.81921 109.844 5.70047C109.776 5.49691 108.521 5.4121 108.063 5.59869C107.91 5.64958 107.842 5.81921 107.91 6.03973C107.978 6.34506 107.944 6.37899 107.639 6.29418C107.435 6.24329 106.841 6.31114 106.333 6.42988C105.824 6.54862 105.383 6.59951 105.332 6.56558C105.196 6.42988 104.551 6.70129 104.551 6.87092C104.551 6.9727 104.636 6.98966 104.755 6.92181C104.874 6.83699 104.891 6.87092 104.823 7.00662C104.721 7.15929 104.619 7.14233 104.382 6.93877C104.144 6.71825 103.89 6.68432 103.313 6.76914C102.821 6.83699 102.516 6.82003 102.448 6.70129C102.38 6.59951 102.143 6.51469 101.922 6.51469C101.702 6.51469 101.481 6.44684 101.43 6.36203C101.328 6.1924 99.7678 6.3281 99.6321 6.51469C99.5812 6.58255 99.4286 6.68432 99.2929 6.73521C99.0893 6.80307 99.0893 6.83699 99.3268 6.83699C99.6152 6.85395 99.9375 7.61729 99.7509 7.80388C99.7169 7.85477 99.1402 7.92262 98.5126 7.95655L97.3421 8.04136L97.8341 7.60033C98.2751 7.19321 98.2751 7.12536 98.0376 6.87092C97.8171 6.6504 97.6984 6.6504 97.4269 6.82003C97.0198 7.07447 96.8672 7.07447 97.0029 6.85395C97.1555 6.59951 95.9851 6.6504 94.9503 6.95573C94.3736 7.12536 94.0343 7.31196 94.0343 7.46462C94.0343 7.60033 93.9495 7.66818 93.8647 7.61729C93.7629 7.54944 93.729 7.44766 93.7799 7.36284C93.9156 7.14233 93.0675 6.68432 92.7452 6.80307C92.338 6.95573 91.7783 7.53247 92.0327 7.53247C92.1345 7.53247 92.1684 7.58336 92.1175 7.65122C91.897 7.85477 92.6095 8.19403 93.288 8.21099C93.8647 8.21099 94.0004 8.26188 93.9665 8.49937C93.9495 8.77077 94.1022 8.8047 95.2048 8.75381C96.1378 8.71988 96.5109 8.63507 96.6636 8.43151C96.7993 8.24492 96.9689 8.19403 97.1895 8.29581C97.41 8.38062 97.4439 8.44848 97.2912 8.49937C97.1216 8.56722 97.1555 8.65203 97.3761 8.82166C97.5626 8.95737 97.5966 9.04218 97.4778 9.05914C97.1725 9.05914 97.2064 9.3984 97.5118 9.3984C97.6475 9.3984 97.7662 9.33055 97.7662 9.24574C97.7662 9.17789 98.1394 9.14396 98.5974 9.19485C99.3438 9.2627 99.4964 9.21181 99.9035 8.8047C100.277 8.43151 100.311 8.31277 100.124 8.17707C99.9375 8.05833 99.9375 7.99048 100.107 7.92262C100.209 7.8887 100.311 7.73603 100.311 7.60033C100.311 7.2441 101.769 7.27803 101.905 7.63425C101.973 7.78692 101.99 7.93959 101.973 7.93959C101.939 7.95655 101.719 8.05833 101.481 8.16011C101.074 8.32974 100.684 9.02522 100.955 9.07611C101.481 9.17789 102.329 9.22877 104.942 9.33055C107.113 9.41537 108.012 9.38144 108.181 9.24574C108.368 9.09307 108.453 9.09307 108.538 9.24574C108.673 9.44929 110.522 9.34752 111.506 9.05914C112.049 8.90648 112.524 8.51633 112.524 8.22796C112.524 7.7021 110.183 7.58336 107.876 7.97351C107.13 8.09225 106.468 8.16011 106.383 8.10922C106.299 8.05833 105.891 7.99048 105.467 7.97351C104.704 7.92262 103.958 7.53247 104.653 7.53247C104.857 7.53247 105.06 7.48159 105.128 7.39677C105.196 7.32892 106.231 7.26107 107.401 7.26107C108.589 7.2441 110.013 7.22714 110.573 7.21018C111.133 7.19321 111.744 7.17625 111.93 7.19321C112.27 7.21018 112.27 7.21018 111.93 7.37981C111.693 7.48159 111.896 7.51551 112.609 7.44766C113.355 7.39677 113.525 7.41373 113.253 7.53247C112.745 7.73603 112.761 7.87173 113.304 7.87173C113.593 7.87173 113.779 7.76996 113.83 7.53247C113.881 7.32892 114.068 7.19321 114.305 7.19321C114.933 7.19321 115.747 6.83699 115.747 6.56558C115.747 6.37899 115.628 6.3281 115.306 6.41292C115.018 6.49773 114.916 6.46381 114.984 6.34506C115.035 6.26025 115.255 6.17543 115.459 6.17543C115.662 6.17543 116.069 6.05669 116.341 5.90403C116.629 5.75136 117.24 5.59869 117.698 5.56477C118.885 5.46299 119.258 5.32728 118.953 5.14069C118.8 5.03891 118.902 5.02195 119.241 5.0898C119.564 5.15765 119.818 5.10677 119.886 5.00499C119.954 4.90321 120.14 4.81839 120.31 4.81839C120.48 4.81839 120.785 4.6318 120.989 4.41128C121.379 4.00417 121.82 3.88543 123.703 3.69884C124.212 3.66491 124.873 3.49528 125.178 3.35958C125.484 3.20691 125.823 3.07121 125.959 3.05424C129.504 2.40965 130.471 2.18913 130.284 2.07039C130.182 2.00254 130.369 1.98557 130.708 2.05343C131.065 2.10431 131.438 2.07039 131.556 1.96861C131.794 1.79898 134.237 1.35794 134.355 1.49365C134.389 1.52757 134.305 1.68024 134.152 1.83291C133.965 2.0195 133.558 2.10431 132.914 2.10431C131.624 2.12128 128.096 2.81676 127.994 3.08817C127.96 3.22387 128.164 3.29172 128.707 3.29172C129.131 3.29172 129.487 3.35958 129.487 3.46135C129.487 3.78365 128.69 4.02113 127.112 4.15684C124.636 4.36039 121.972 4.76751 121.464 5.03891L121.006 5.2764L121.447 5.46299C121.684 5.58173 122.006 5.66654 122.193 5.66654C122.363 5.66654 122.549 5.7344 122.6 5.80225C122.634 5.8701 122.261 5.92099 121.752 5.90403C121.243 5.88706 120.785 5.93795 120.734 6.02277C120.683 6.10758 120.836 6.17543 121.073 6.17543C121.362 6.17543 121.48 6.24329 121.413 6.39595C121.26 6.7861 122.6 7.5664 123.584 7.66818C124.178 7.71907 124.415 7.68514 124.33 7.5664C124.262 7.44766 124.381 7.4307 124.754 7.53247C125.06 7.61729 125.348 7.65122 125.433 7.60033C125.84 7.34588 128.317 7.41373 129.555 7.71907C130.895 8.04136 131.319 8.21099 130.793 8.21099C130.403 8.21099 130.607 8.669 131.065 8.78774C131.421 8.88951 131.421 8.90648 131.132 9.127C130.827 9.36448 130.827 9.36448 131.132 9.44929C131.37 9.51715 131.353 9.53411 131.048 9.55107C130.827 9.55107 130.691 9.63589 130.759 9.73766C130.81 9.82248 130.98 9.85641 131.149 9.80552C131.336 9.73766 131.302 9.83944 131.014 10.0939L130.59 10.4671L130.98 10.3653C131.37 10.2805 131.37 10.2805 131.082 10.6028C130.81 10.8911 130.81 10.976 131.014 11.0947C131.217 11.2304 131.183 11.2643 130.895 11.2643C130.471 11.2643 130.369 11.5188 130.725 11.6714C130.861 11.7223 130.776 11.892 130.454 12.1464C130.047 12.5026 130.013 12.5874 130.216 12.8758C130.403 13.1133 130.59 13.1642 131.065 13.0794C131.404 13.0285 131.726 13.0454 131.777 13.1472C131.828 13.232 131.76 13.249 131.624 13.1981C131.472 13.1472 131.353 13.1812 131.353 13.2829C131.353 13.3847 131.506 13.4695 131.709 13.4695C131.947 13.4695 132.031 13.3677 131.998 13.1642C131.981 13.0115 132.031 12.8758 132.116 12.8758C132.201 12.8758 132.269 12.9776 132.235 13.0794C132.201 13.2151 132.354 13.2999 132.574 13.2999C132.863 13.2999 132.981 13.4017 132.998 13.6392C133.032 13.9954 132.812 14.0972 132.625 13.8088C132.489 13.5883 130.556 13.5883 130.437 13.7918C130.369 13.8766 130.437 13.9954 130.539 14.0463C130.657 14.0972 130.539 14.1141 130.284 14.0632C130.013 14.0123 129.843 14.0293 129.894 14.1141C129.945 14.1989 129.843 14.4703 129.657 14.6909L129.334 15.1149L129.877 15.4203C130.369 15.6747 130.522 15.6747 131.336 15.4712C132.388 15.2167 132.574 14.9792 131.93 14.6739C131.675 14.5721 131.523 14.4195 131.59 14.3686C131.641 14.3007 131.794 14.3516 131.896 14.4534C132.014 14.5721 132.269 14.6569 132.472 14.6569C132.947 14.6569 132.964 15.1998 132.506 15.8783C132.218 16.3023 132.116 16.3193 131.387 16.2345C130.624 16.1497 130.539 16.1836 130.132 16.6755C129.877 16.9639 129.64 17.2014 129.572 17.2014C129.385 17.2014 128.639 18.1004 128.639 18.3209C128.639 18.4566 128.775 18.5584 128.944 18.5754C129.165 18.5754 129.148 18.6093 128.859 18.7281C128.435 18.8977 128.045 19.5084 128.283 19.6441C128.367 19.6949 128.401 19.9155 128.334 20.119C128.266 20.4074 128.3 20.4583 128.554 20.3735C128.775 20.2887 128.825 20.3226 128.741 20.5092C128.69 20.6449 128.707 20.7636 128.792 20.7636C128.876 20.7636 128.842 21.052 128.724 21.3912C128.537 21.951 128.537 22.0528 128.758 22.1885C128.944 22.2903 128.961 22.3581 128.825 22.443C128.571 22.5956 128.876 23.4777 129.165 23.4777C129.283 23.4777 129.317 23.6643 129.266 23.9866C129.199 24.258 129.216 24.4955 129.3 24.4955C129.368 24.4955 129.521 24.8008 129.64 25.157C129.741 25.5133 129.945 25.8695 130.081 25.9204C130.216 25.9713 130.335 26.1748 130.335 26.3614C130.335 26.7346 130.539 26.7855 130.98 26.548C131.387 26.3444 132.88 26.8024 132.88 27.1417C132.88 27.2774 133.015 27.4301 133.185 27.481C133.338 27.5319 133.643 27.6506 133.847 27.7524C134.321 27.9899 135.119 27.7184 135.339 27.2435C135.424 27.0399 135.594 26.8703 135.712 26.8703C135.814 26.8703 135.95 26.7176 136.018 26.531C136.069 26.3614 136.374 25.9543 136.679 25.649C136.985 25.3436 137.29 24.8687 137.358 24.6142C137.426 24.3258 137.646 24.0714 137.901 23.9866C138.121 23.9018 138.528 23.6304 138.783 23.3929C139.037 23.1554 139.376 22.9179 139.546 22.867C139.699 22.8161 139.834 22.6635 139.834 22.5447C139.834 22.409 140.004 22.1546 140.191 21.968C140.428 21.7475 140.53 21.51 140.462 21.2895C140.411 21.1029 140.428 20.9672 140.496 20.9841C140.717 21.052 141.7 20.5431 141.599 20.4074C141.548 20.3226 141.87 20.2547 142.294 20.2547C142.871 20.2547 143.04 20.2038 142.956 20.0342C142.854 19.8815 142.888 19.8815 143.074 20.0172C143.431 20.2887 144.245 20.4583 144.245 20.2547C144.245 20.1699 144.364 20.0851 144.499 20.0851C144.635 20.0851 144.754 20.0003 144.754 19.8985C144.754 19.8137 144.839 19.7798 144.923 19.8306C145.025 19.8985 145.195 19.8815 145.313 19.7967C145.432 19.7119 145.941 19.5084 146.45 19.3387C147.01 19.1521 147.722 18.745 148.231 18.287C148.706 17.8799 149.283 17.5067 149.537 17.4389C149.809 17.388 150.08 17.2183 150.182 17.0657C150.318 16.8282 150.368 16.8112 150.504 17.0148C150.606 17.1844 150.86 17.2183 151.403 17.1335C153.846 16.7603 156.373 16.2006 157.103 15.8443C157.493 15.6578 157.866 15.5051 157.934 15.5051C158.019 15.5051 158.596 15.2846 159.223 15.0132L160.377 14.5382L159.393 14.4195C158.019 14.2668 156.797 14.0293 157.272 13.9954C157.578 13.9784 157.663 13.8936 157.612 13.5883C157.578 13.2829 157.646 13.2151 158.053 13.2151C158.409 13.2151 158.562 13.2999 158.596 13.5204C158.612 13.707 158.68 13.8936 158.748 13.9445C158.901 14.1141 160.682 14.2668 160.886 14.1311C160.987 14.0632 161.106 13.69 161.123 13.2829C161.157 12.5874 161.123 12.5366 160.546 12.2482C160.037 12.0107 160.003 11.9768 160.411 12.0616C160.953 12.1634 161.53 11.8072 161.174 11.5866C161.004 11.4679 161.038 11.434 161.259 11.434C161.479 11.434 161.547 11.3491 161.462 11.1117C161.36 10.7724 161.734 10.5858 162.582 10.5858C163.277 10.5858 163.701 10.0091 163.125 9.85641C162.904 9.80552 162.938 9.77159 163.243 9.73766C163.481 9.7207 163.735 9.70374 163.82 9.7207C164.075 9.77159 165.347 9.17789 165.55 8.90648C165.652 8.77077 165.856 8.71988 166.008 8.77077C166.161 8.82166 166.331 8.8047 166.382 8.71988C166.449 8.61811 166.365 8.55025 166.212 8.55025C166.059 8.55025 165.991 8.46544 166.042 8.38062C166.11 8.27885 165.94 8.21099 165.652 8.21099C165.16 8.21099 164.838 8.58418 165.041 8.90648C165.143 9.07611 164.38 9.127 164.21 8.9404C164.142 8.88951 164.244 8.71988 164.431 8.60114C164.906 8.26188 164.821 7.41373 164.295 7.05751C163.803 6.73521 164.041 6.56558 164.838 6.6504C165.279 6.70129 165.398 6.7861 165.33 6.98966C165.262 7.14233 165.296 7.21018 165.398 7.14233C165.516 7.05751 165.55 7.14233 165.499 7.36284C165.364 7.8887 165.618 7.75299 165.805 7.19321C165.907 6.90484 166.11 6.68432 166.246 6.68432C166.382 6.68432 166.466 6.56558 166.432 6.37899C166.398 6.17543 166.195 6.09062 165.737 6.05669C165.381 6.05669 165.041 5.98884 164.974 5.92099C164.906 5.83617 165.024 5.81921 165.211 5.8701C165.415 5.92099 165.686 5.90403 165.805 5.81921C165.974 5.71743 165.907 5.64958 165.584 5.51388C165.347 5.42906 165.092 5.25943 165.024 5.15765C164.94 5.02195 164.838 5.02195 164.668 5.17462C164.261 5.51388 164.176 5.17462 164.583 4.83536C164.889 4.56395 165.126 4.51306 165.669 4.59788C166.246 4.66573 166.331 4.64876 166.246 4.41128C166.178 4.22469 166.229 4.13987 166.432 4.12291C166.67 4.12291 166.67 4.08899 166.382 3.97024C165.957 3.80061 166.195 3.69884 167.298 3.5801C167.705 3.52921 168.095 3.41047 168.146 3.32565C168.197 3.22387 168.536 3.10513 168.875 3.03728C169.231 2.96943 169.469 2.85069 169.418 2.76587C169.367 2.68106 169.605 2.6132 169.927 2.6132C170.249 2.6132 170.554 2.54535 170.605 2.4775C170.656 2.39269 171.233 2.24002 171.895 2.12128C173.608 1.81594 173.201 1.57846 170.809 1.45972C169.401 1.40883 168.773 1.44276 168.604 1.57846C168.315 1.81594 167.586 1.66328 167.739 1.40883C167.806 1.32402 167.722 1.25616 167.586 1.25616C167.433 1.25616 167.331 1.34098 167.365 1.45972C167.382 1.5615 167.264 1.6972 167.094 1.73113C166.924 1.76505 166.823 1.6972 166.84 1.57846C166.873 1.45972 166.738 1.32402 166.551 1.29009C166.365 1.25616 166.263 1.27313 166.348 1.35794C166.415 1.42579 166.11 1.62935 165.669 1.79898C164.702 2.17217 164.6 2.17217 165.024 1.8838C165.194 1.74809 165.279 1.5615 165.211 1.44276C165.143 1.34098 165.211 1.22224 165.347 1.17135C165.499 1.12046 165.737 1.05261 165.89 1.00172C166.348 0.849053 166.11 0.781201 164.872 0.66246C164.227 0.594608 163.413 0.441941 163.074 0.3232C162.26 0.0348289 156.95 -0.100875 153.914 0.0857179ZM147.247 1.34098C147.247 1.62935 147.247 1.62935 146.857 1.47668C146.586 1.37491 146.586 1.35794 146.891 1.2392C147.061 1.17135 147.213 1.1035 147.23 1.1035C147.23 1.08653 147.247 1.20528 147.247 1.34098ZM163.583 1.42579C163.447 1.51061 163.176 1.57846 162.989 1.57846C162.718 1.5615 162.718 1.54454 163.074 1.42579C163.667 1.2392 163.888 1.2392 163.583 1.42579ZM112.303 1.6972C112.253 1.74809 112.1 1.76505 111.981 1.71417C111.845 1.66328 111.896 1.61239 112.083 1.61239C112.27 1.59542 112.371 1.64631 112.303 1.6972ZM113.152 2.91854C112.745 2.95246 112.439 3.08817 112.303 3.30869C112.032 3.74973 111.879 3.7158 111.964 3.22387C112.049 2.76587 112.558 2.6132 113.372 2.78283C113.711 2.85069 113.677 2.88461 113.152 2.91854ZM115.832 2.78283C115.883 2.86765 115.798 2.95246 115.645 2.95246C115.374 2.95246 115.374 2.96943 115.679 3.20691C115.984 3.44439 115.968 3.44439 115.543 3.27476C115.17 3.10513 115.119 3.02032 115.255 2.83372C115.493 2.56232 115.696 2.54535 115.832 2.78283ZM113.033 3.91936C113.033 4.07202 112.982 4.12291 112.914 4.0381C112.829 3.95328 112.711 3.83454 112.609 3.76669C112.507 3.69884 112.575 3.63098 112.745 3.63098C112.897 3.63098 113.033 3.74973 113.033 3.91936ZM112.694 4.20773C112.694 4.25862 112.626 4.34343 112.524 4.39432C112.439 4.44521 112.354 4.41128 112.354 4.32647C112.354 4.22469 112.439 4.13987 112.524 4.13987C112.626 4.13987 112.694 4.1738 112.694 4.20773ZM109.471 4.90321C109.352 5.03891 109.182 5.15765 109.081 5.15765C108.979 5.15765 109.047 5.03891 109.233 4.90321C109.657 4.58091 109.742 4.58091 109.471 4.90321ZM125.976 5.95492C125.857 5.98884 125.653 5.98884 125.552 5.95492C125.433 5.90403 125.518 5.8701 125.755 5.8701C125.993 5.8701 126.077 5.90403 125.976 5.95492ZM123.431 6.12455C123.312 6.15847 123.109 6.15847 123.007 6.12455C122.888 6.07366 122.973 6.03973 123.211 6.03973C123.448 6.03973 123.533 6.07366 123.431 6.12455ZM95.4762 7.21018C95.6628 7.49855 95.4592 7.5664 95.2218 7.27803C95.086 7.12536 95.086 7.02358 95.1878 7.02358C95.2896 7.02358 95.4253 7.1084 95.4762 7.21018ZM92.796 7.46462C92.7452 7.51551 92.5925 7.53247 92.4737 7.48159C92.338 7.4307 92.3889 7.37981 92.5755 7.37981C92.7621 7.36284 92.8639 7.41373 92.796 7.46462ZM159.936 10.4162C159.986 10.501 159.953 10.5858 159.868 10.5858C159.766 10.5858 159.681 10.501 159.681 10.4162C159.681 10.3144 159.715 10.2466 159.749 10.2466C159.8 10.2466 159.885 10.3144 159.936 10.4162ZM159.562 10.9251C159.07 11.1286 159.054 11.5527 159.528 11.6884C159.986 11.8411 159.868 11.9598 159.376 11.8241C159.155 11.7732 159.003 11.6036 159.003 11.417C159.003 11.2474 158.867 11.0269 158.714 10.942C158.477 10.8063 158.579 10.7724 159.172 10.7724C159.8 10.7724 159.868 10.8063 159.562 10.9251ZM161.089 10.8742C160.97 10.9081 160.733 10.9081 160.58 10.8742C160.411 10.8233 160.512 10.7894 160.784 10.7894C161.072 10.7894 161.191 10.8233 161.089 10.8742ZM161.157 11.1965C161.106 11.2474 160.953 11.2643 160.835 11.2134C160.699 11.1626 160.75 11.1117 160.936 11.1117C161.123 11.0947 161.225 11.1456 161.157 11.1965ZM129.233 21.9171C129.182 21.968 129.046 21.9171 128.927 21.7984C128.775 21.6287 128.792 21.6118 129.029 21.7135C129.199 21.7644 129.283 21.8662 129.233 21.9171Z" fill="black"/>
<path d="M96.4091 3.95324C95.9851 4.00413 95.6458 4.13983 95.6458 4.25857C95.6458 4.37732 95.4931 4.58087 95.3065 4.71658C95.12 4.85228 95.0012 5.00495 95.0521 5.05584C95.103 5.10672 95.7137 5.17458 96.3922 5.22547C97.0707 5.25939 97.7153 5.37813 97.8171 5.47991C97.9188 5.58169 98.292 5.6665 98.6313 5.6665C99.1741 5.6665 99.3098 5.58169 99.5134 5.15761C99.7678 4.66569 99.7678 4.64872 99.242 4.41124C98.9366 4.27554 98.5126 4.13983 98.2751 4.08894C98.0376 4.03806 97.6983 3.9702 97.5117 3.91931C97.3251 3.88539 96.8332 3.88539 96.4091 3.95324Z" fill="black"/>
<path d="M89.3355 4.71652C88.0124 4.92008 87.5374 5.15756 88.4534 5.15756C88.7757 5.15756 89.115 5.22541 89.2167 5.29327C89.3355 5.36112 88.8944 5.41201 88.2498 5.41201C87.3847 5.41201 87.0285 5.47986 86.9098 5.66645C86.6723 6.0566 87.1812 6.22623 88.3007 6.10749C89.3355 6.00571 90.1836 5.61556 89.7596 5.44593C89.6408 5.39504 89.7935 5.39504 90.1158 5.44593C90.5229 5.51379 90.6586 5.49682 90.5738 5.36112C90.489 5.22541 90.5907 5.15756 90.8452 5.15756C91.0657 5.15756 91.3541 5.07275 91.4898 4.98793C91.7103 4.83527 91.7103 4.80134 91.4898 4.64867C91.1844 4.46208 90.947 4.46208 89.3355 4.71652Z" fill="black"/>
<path d="M82.1602 5.98883C81.0407 6.09061 80.2265 6.2772 78.3266 6.87091C78.0382 6.95572 77.6141 7.02357 77.3767 7.02357C77.1392 7.02357 76.7151 7.10839 76.4098 7.21017C75.7652 7.44765 75.6804 7.85476 76.325 7.73602C76.5964 7.68513 76.8169 7.75298 76.9017 7.88869C77.0204 8.07528 77.1222 8.05832 77.3936 7.80387C77.6311 7.58335 77.7499 7.54943 77.7499 7.70209C77.7499 7.85476 77.9025 7.88869 78.2927 7.80387C78.8016 7.70209 78.8185 7.71906 78.5132 7.93958C78.1909 8.19402 78.1909 8.19402 78.6319 8.21098C78.8864 8.21098 79.2765 8.14313 79.514 8.04135C79.7515 7.95654 79.955 7.92261 79.955 7.95654C79.955 8.00743 79.7515 8.12617 79.497 8.22795C79.0899 8.38061 79.056 8.4315 79.3104 8.56721C79.4631 8.65202 79.9211 8.7538 80.3282 8.78773C80.7693 8.82165 81.0407 8.90647 81.0067 9.04217C80.905 9.51713 81.8549 9.58499 83.9244 9.24573C85.0609 9.05913 86.6724 8.87254 87.5036 8.82165C88.7419 8.7538 89.2168 8.65202 89.9293 8.27884C90.981 7.73602 90.8792 7.44765 89.6918 7.5155L88.8945 7.54943L89.166 7.14231C89.4204 6.7352 89.3865 6.51468 89.0811 6.51468C88.9963 6.51468 88.9794 6.5995 89.0472 6.71824C89.1151 6.83698 89.0981 6.85394 88.9624 6.78609C88.8606 6.71824 88.4874 6.75216 88.1312 6.85394C86.9099 7.22713 86.9777 7.1932 87.2491 7.36283C87.4527 7.49854 87.4188 7.53246 87.1304 7.53246C86.6724 7.53246 86.6045 7.82083 87.0456 7.92261C87.1982 7.9735 86.8929 8.00743 86.3501 8.02439C85.8073 8.02439 85.4002 7.9735 85.4511 7.88869C85.6546 7.56639 84.8913 7.1932 83.8396 7.07446C82.7709 6.97268 82.7539 6.95572 83.2628 6.75216C83.5512 6.63342 83.7039 6.51468 83.6021 6.49772C83.5173 6.48076 83.653 6.42987 83.9244 6.36202C84.2128 6.31113 84.4333 6.17542 84.4333 6.09061C84.4502 5.87009 83.7887 5.85313 82.1602 5.98883ZM81.804 7.54943L82.5843 7.68513L81.787 7.63424C81.363 7.60032 80.905 7.63424 80.7693 7.71906C80.5996 7.8378 80.6336 7.87172 80.888 7.88869C81.0746 7.88869 81.1425 7.93958 81.0407 7.9735C80.9389 8.02439 80.6675 7.9735 80.447 7.88869C80.1586 7.76995 80.1247 7.71906 80.3452 7.71906C80.4979 7.70209 80.6336 7.61728 80.6336 7.5155C80.6336 7.39676 80.43 7.3798 80.0907 7.44765C79.531 7.54943 79.531 7.54943 79.955 7.31194C80.2434 7.15928 80.4809 7.12535 80.7014 7.24409C80.871 7.32891 81.363 7.46461 81.804 7.54943ZM82.4147 7.1932C82.3638 7.27802 82.1602 7.36283 81.9736 7.36283C81.787 7.36283 81.6853 7.27802 81.7362 7.1932C81.787 7.09142 81.9906 7.02357 82.1772 7.02357C82.3638 7.02357 82.4656 7.09142 82.4147 7.1932ZM82.245 8.71987C82.3129 8.82165 82.1263 8.8895 81.787 8.87254C81.2612 8.85558 81.2442 8.85558 81.6513 8.71987C81.8888 8.65202 82.0924 8.58417 82.1093 8.56721C82.1263 8.55024 82.1942 8.6181 82.245 8.71987Z" fill="black"/>
<path d="M71.9314 9.34749C71.6431 9.39838 71.3886 9.58497 71.2699 9.83942C71.1681 10.0599 70.9815 10.2465 70.8797 10.2465C70.761 10.2465 70.3199 10.4331 69.8789 10.6706C69.4379 10.9081 68.9968 11.0947 68.8951 11.0947C68.7933 11.0947 68.5728 11.1965 68.4371 11.3322C68.2844 11.4509 67.8094 11.6884 67.3684 11.858C66.9274 12.0276 66.6051 12.2142 66.6559 12.2991C66.6899 12.3669 66.8256 12.4008 66.9443 12.3669C67.2666 12.2482 67.7925 12.7401 67.6737 13.0454C67.5211 13.4356 67.9282 13.5204 68.7763 13.249C69.1834 13.1133 69.828 12.9945 70.1842 12.9776C70.5574 12.9606 71.0494 12.8079 71.2868 12.6383C71.8636 12.2312 73.8143 11.5866 73.9331 11.7732C73.984 11.8411 73.7634 11.9598 73.4581 12.0107C73.1697 12.0785 72.7626 12.2312 72.593 12.3669C72.2707 12.6213 72.2707 12.6213 72.576 12.8419C72.8644 13.0624 72.8474 13.0963 72.3555 13.2659C71.7279 13.4865 71.7109 13.5204 72.0841 13.8766C72.3046 14.1141 72.61 14.1311 73.8991 14.0462C75.6463 13.9105 75.6124 13.9105 76.2909 13.9445C76.5623 13.9614 76.7489 14.0293 76.6811 14.0802C76.6302 14.1311 75.7142 14.1989 74.6625 14.2328C72.118 14.2837 71.3038 14.4364 71.3038 14.8435C71.3038 15.4033 71.7788 15.6747 72.7965 15.6747C73.526 15.6747 73.6956 15.7256 73.5429 15.8782C73.4242 15.997 73.3394 16.2005 73.3394 16.3532C73.3394 16.6077 73.5429 16.6246 74.8321 16.5907C75.6463 16.5568 76.698 16.455 77.156 16.3532C77.631 16.2514 78.3434 16.1327 78.7675 16.0988L79.5309 16.0309L78.8523 16.1666C77.4614 16.455 77.1391 16.6755 77.2409 17.354C77.2578 17.5237 77.1221 17.5576 76.6132 17.4558C75.9177 17.3371 75.7651 17.2522 75.9177 17.0996C75.9856 17.0487 76.1722 17.0826 76.3588 17.1844C76.7659 17.4049 76.9694 17.2353 76.6471 16.93C76.4606 16.7434 76.3079 16.7264 75.9347 16.8791C74.9848 17.2522 72.8474 17.4049 72.2537 17.1335C72.0162 17.0148 71.9654 17.0317 72.0502 17.1674C72.135 17.3201 71.9484 17.371 71.3886 17.3371C70.4896 17.3031 70.6762 17.0996 71.7788 16.93C72.6608 16.7942 72.8305 16.5568 72.3385 16.1666C72.0671 15.9461 71.694 15.8613 70.9985 15.8782C70.4726 15.8952 69.6584 15.7765 69.2174 15.6238C68.7763 15.4711 68.3014 15.3354 68.1826 15.3354C68.0469 15.3354 67.8603 15.2167 67.7416 15.081C67.4532 14.7417 66.0792 14.7417 65.4007 15.0979C65.0953 15.2337 64.7052 15.3185 64.5186 15.2506C64.1624 15.1319 64.0436 14.8265 64.349 14.8265C64.4508 14.8265 64.5186 14.8944 64.5186 14.9962C64.5186 15.081 64.6034 15.1658 64.7052 15.1658C64.79 15.1658 64.8409 15.0979 64.79 15.0131C64.7391 14.9283 64.807 14.8265 64.9427 14.7587C65.0784 14.7078 65.1971 14.5891 65.1971 14.4873C65.1971 14.2837 64.3829 14.4364 64.0097 14.7248C63.7722 14.9283 62.8902 15.3354 62.7205 15.3354C62.6866 15.3354 62.7036 15.0301 62.7545 14.6569C62.8393 14.1141 62.8053 13.9614 62.5679 13.8766C62.4152 13.8088 62.2286 13.8427 62.1438 13.9614C61.9742 14.2498 61.1599 14.6569 60.7698 14.6569C60.5493 14.6569 60.4814 14.5721 60.5662 14.3685C60.651 14.148 60.6171 14.1141 60.3457 14.2159C60.1761 14.3007 59.8707 14.3855 59.6842 14.4025C58.5307 14.5721 56.4781 15.0131 56.2407 15.1658C56.0201 15.3015 56.071 15.3185 56.4612 15.2506C56.9022 15.1658 56.9192 15.1658 56.6478 15.3354C56.4103 15.5051 56.2407 15.4881 55.8844 15.3185C55.4095 15.081 53.8319 14.9962 53.8319 15.1997C53.8319 15.2845 53.6793 15.3354 53.5096 15.3354C53.323 15.3354 53.0516 15.4711 52.899 15.6238C52.407 16.1157 50.5072 15.8274 50.7107 15.2845C50.7616 15.1319 50.5411 15.064 49.8965 15.0301C48.7261 14.9792 48.0645 14.8435 48.0645 14.623C48.0645 14.5382 47.5556 14.4703 46.8432 14.4873C46.1646 14.4873 45.1129 14.4194 44.5023 14.3176C43.8916 14.2159 42.7551 14.0802 41.9578 14.0123C40.8891 13.9275 40.5329 13.8427 40.5669 13.6731C40.6008 13.4865 40.3972 13.4525 39.6678 13.5034C39.0063 13.5374 38.7179 13.4865 38.65 13.3168C38.5991 13.1981 38.4465 13.1302 38.3108 13.1981C38.1751 13.249 38.0054 13.1811 37.9206 13.0285C37.8019 12.8249 37.6492 12.8419 36.7841 13.1472C36.2243 13.3338 35.2744 13.5204 34.6637 13.5543C34.0531 13.5882 33.1031 13.7239 32.5434 13.8766C32.0005 14.0293 31.3051 14.148 30.9997 14.148C30.406 14.148 29.1168 14.5721 27.6919 15.2337C27.1152 15.5051 26.1483 15.7595 25.3171 15.8613C24.5368 15.9631 23.6717 16.1497 23.4173 16.2854C23.1458 16.4211 22.7896 16.5228 22.603 16.5228C22.179 16.5228 22.1959 16.8112 22.62 16.9469C23.078 17.0996 23.4003 17.6763 23.1458 17.9308C22.8575 18.2191 22.9253 18.3888 23.2985 18.3888C23.536 18.3888 23.6039 18.4736 23.519 18.6771C23.3664 19.1012 22.7896 19.5762 22.4673 19.5592C21.9924 19.5253 21.1612 19.2708 21.4495 19.2539C21.6022 19.2539 21.8227 19.1182 21.9415 18.9825C22.2129 18.6432 22.0263 18.6432 20.4996 18.9994C19.0408 19.3217 18.2266 19.5083 17.0222 19.7458C15.9875 19.9663 15.6312 20.1868 16.0553 20.3565C16.3098 20.4583 16.3098 20.5091 16.0044 20.9332C15.5464 21.5608 15.733 21.6626 17.2427 21.6457C17.9043 21.6287 18.5319 21.6966 18.6337 21.7814C18.7694 21.9001 19.0408 21.8662 19.4479 21.6966C20.1604 21.4082 20.6523 21.3573 20.2452 21.6117C20.0416 21.7474 20.0416 21.7814 20.2282 21.7814C20.5844 21.7814 19.6345 22.6126 19.1426 22.7313C18.9051 22.7822 18.4471 22.7822 18.1248 22.7313C17.7855 22.6634 17.5311 22.6804 17.5311 22.7822C17.5311 23.0536 16.4794 23.325 15.8687 23.2063C15.292 23.0875 14.8509 23.2402 13.9349 23.8509C13.6975 24.0205 13.3752 24.1562 13.2225 24.1562C12.9511 24.1562 11.7467 24.6651 11.594 24.8517C11.5432 24.9026 11.2887 25.0043 11.0343 25.0722C10.5593 25.1909 10.1352 25.8864 10.3388 26.2087C10.3897 26.2935 10.237 26.4292 10.0165 26.514C9.66027 26.6497 9.59241 26.7855 9.60938 27.2774C9.62634 27.8202 9.67723 27.888 10.0504 27.888C10.3049 27.888 10.7798 27.8202 11.1191 27.7354C11.6958 27.5997 11.7467 27.6166 11.594 27.888C11.4923 28.0577 11.2718 28.2443 11.1021 28.3121C10.9155 28.363 10.6611 28.6005 10.5084 28.821C10.3557 29.0585 10.1013 29.2451 9.94864 29.2451C9.74508 29.2451 9.71115 29.296 9.84686 29.4317C9.98256 29.5674 10.1352 29.5674 10.4066 29.4147C10.6611 29.279 10.7459 29.279 10.678 29.3978C10.5084 29.6522 10.678 29.6352 11.2548 29.3299C11.8485 29.0246 12.6797 29.1603 12.544 29.5165C12.4252 29.8388 12.9511 29.8218 13.1886 29.4826C13.3412 29.296 13.4939 29.2621 13.7992 29.3808C14.2063 29.5335 14.2063 29.5335 13.46 30.0932C13.0359 30.3986 12.3574 30.7887 11.9333 30.9753C11.5092 31.1619 11.0173 31.3655 10.8307 31.4503C10.6441 31.5351 9.91471 31.7895 9.21923 32.0101C7.67559 32.5189 7.01404 32.8073 7.01404 33.0109C7.01404 33.0957 6.86137 33.0787 6.69174 32.9939C6.36944 32.8073 5.82663 32.96 3.87588 33.7064C2.73936 34.1474 2.53581 34.1983 1.89121 34.2661C1.07699 34.351 -0.195237 34.9955 0.0252817 35.2161C0.12706 35.3178 0.313653 35.3178 0.534172 35.1991C0.720765 35.0973 1.09395 35.0125 1.36536 35.0125C1.6198 35.0125 2.06084 34.8938 2.34921 34.7411C2.62062 34.6054 3.01077 34.5206 3.19736 34.5715C3.38396 34.6224 3.68929 34.5375 3.85892 34.4188C4.02855 34.2831 4.23211 34.2152 4.31692 34.2492C4.38477 34.3001 4.48655 34.2661 4.5544 34.1644C4.741 33.8421 5.50433 33.9778 5.60611 34.334C5.70789 34.7241 5.84359 34.7581 6.13196 34.4697C6.26767 34.334 6.38641 34.334 6.573 34.4867C6.77656 34.6563 6.86137 34.6224 7.01404 34.351C7.1667 34.0626 7.14974 33.9947 6.92922 33.9947C6.79352 33.9947 6.67478 33.876 6.67478 33.7233C6.67478 33.5198 6.77656 33.4689 7.09885 33.5537C7.37026 33.6215 7.67559 33.5537 7.947 33.3841C8.16752 33.2484 8.43893 33.1635 8.52374 33.2314C8.7273 33.3501 9.84686 32.8752 10.2031 32.5189C10.3388 32.4002 10.5084 32.3324 10.5932 32.3832C10.678 32.4511 10.7459 32.4002 10.7459 32.2984C10.7459 32.1967 10.9495 32.1627 11.2718 32.2136C11.5771 32.2645 11.7467 32.2475 11.6958 32.1458C11.6449 32.0609 11.8994 31.9422 12.2726 31.8744C12.6458 31.8065 13.1207 31.6369 13.3243 31.4672C13.6466 31.2298 14.1046 31.0432 15.3259 30.6869C15.3768 30.67 15.6312 30.5682 15.8857 30.4664C16.1571 30.3477 16.4964 30.2629 16.649 30.2629C16.8017 30.2629 17.2427 30.0763 17.6159 29.8388C17.9891 29.6183 18.4641 29.4147 18.6507 29.4147C19.1595 29.4147 19.5497 28.9398 19.2104 28.7192C19.0238 28.6005 19.0408 28.5666 19.3122 28.5496C19.4988 28.5326 19.7363 28.5326 19.8381 28.5496C19.9568 28.5666 20.0755 28.4648 20.1434 28.3121C20.1943 28.1764 20.4318 28.0577 20.6693 28.0577C20.9067 28.0577 21.0933 27.9729 21.0933 27.888C21.0933 27.7863 21.229 27.7184 21.3987 27.7184C21.5683 27.7184 21.8397 27.6166 22.0263 27.4979C22.5013 27.1756 22.9593 27.0229 22.9593 27.1926C22.9593 27.2604 22.7557 27.4131 22.5182 27.5149C22.2807 27.6336 22.145 27.8032 22.1959 27.888C22.2638 27.9898 22.0772 28.1425 21.7888 28.2443C21.5004 28.346 21.263 28.4987 21.263 28.5835C21.263 28.8549 22.162 28.7362 23.3494 28.3291C23.977 28.1086 24.4859 27.9559 24.4859 28.0068C24.4859 28.0577 24.5877 28.0238 24.7064 27.922C24.9609 27.7015 25.9956 27.6336 26.3858 27.8032C26.5724 27.8711 26.9795 27.7693 27.4545 27.5488C28.1499 27.2095 28.4553 26.8703 28.0482 26.8703C27.9633 26.8703 27.8785 26.9381 27.8785 27.0399C27.8785 27.1247 27.8107 27.2095 27.7259 27.2095C27.641 27.2095 27.5902 27.0738 27.6241 26.9042C27.641 26.7176 27.7937 26.6328 28.0312 26.6497C28.2178 26.6837 28.3874 26.6158 28.3874 26.531C28.3874 26.4292 28.574 26.3614 28.8115 26.3614C29.3034 26.3614 29.3204 26.7346 28.8285 26.8703C28.6419 26.9212 28.4722 27.0569 28.4383 27.1586C28.3874 27.3113 28.5231 27.3113 28.9472 27.1756C29.3543 27.0569 29.6766 27.0569 30.0159 27.1756C30.4908 27.3452 30.4908 27.3622 30.1346 27.464C29.9141 27.5318 29.7445 27.6675 29.7445 27.7523C29.7445 27.8541 29.8632 27.8711 30.0498 27.7863C30.2025 27.7184 30.881 27.6336 31.5425 27.5827C32.4585 27.5318 32.8826 27.5827 33.3067 27.8032C33.6459 27.9729 34.0191 28.0407 34.3075 27.9898C34.5959 27.905 34.6807 27.922 34.5111 28.0407C34.3245 28.1595 34.3584 28.2612 34.7146 28.5666C34.9521 28.7701 35.1896 29.1263 35.2405 29.3469C35.3083 29.5674 35.4271 29.754 35.5119 29.754C35.7833 29.754 35.478 31.0092 35.1048 31.4333C34.8673 31.7047 34.8334 31.8065 35.003 31.7556C35.1896 31.6878 35.2574 31.7726 35.2574 32.044C35.2574 32.2645 35.2065 32.4002 35.1387 32.3493C35.0539 32.3154 35.003 32.4002 35.003 32.5359C35.003 32.9261 35.2744 32.8752 35.5797 32.4341C35.7324 32.2306 35.8851 32.1118 35.936 32.1627C35.9868 32.2136 35.8002 32.4511 35.5119 32.6886C34.9012 33.2144 34.8842 33.3162 35.3931 33.3332H35.7663L35.3931 33.4858C35.0708 33.6215 35.02 33.7572 35.0708 34.1983C35.1217 34.6732 35.1896 34.7581 35.6306 34.792C35.9699 34.8259 36.2582 34.7241 36.4448 34.5036C36.7332 34.1813 36.7671 34.1813 36.9707 34.4697C37.1743 34.7411 37.1912 34.7241 37.3778 34.334L37.5474 33.9099L37.4626 34.3679C37.4117 34.6224 37.4457 34.8768 37.5474 34.9277C37.6323 34.9786 37.7171 35.1313 37.7171 35.233C37.7171 35.3687 37.6662 35.3518 37.5644 35.1991C37.4457 35.0125 37.3778 35.0295 37.2421 35.2839C37.1403 35.4536 37.0046 35.5553 36.9537 35.4875C36.7841 35.3178 36.3091 35.8098 36.4448 36.0133C36.4957 36.0981 36.4618 36.2169 36.36 36.2847C36.1056 36.4544 36.1565 36.6579 36.5636 37.0481C36.7671 37.2347 36.835 37.3873 36.7163 37.3873C36.5975 37.3873 36.5297 37.54 36.5636 37.7605C36.5975 37.981 36.7163 38.1337 36.852 38.0998C37.0046 38.0659 36.9707 38.2355 36.7332 38.6426C36.4957 39.0327 36.4448 39.2872 36.5636 39.355C36.6823 39.4229 36.6654 39.5077 36.5297 39.5925C36.36 39.6943 36.4448 39.847 36.8011 40.2032C37.1573 40.5425 37.2082 40.6273 36.9537 40.5255C36.5127 40.3559 36.2074 40.3559 35.7324 40.5085C35.4949 40.5764 35.3422 40.5594 35.3422 40.4576C35.3422 40.3728 35.5119 40.2541 35.7324 40.2202C36.0547 40.1693 36.0547 40.1523 35.6815 40.1693C35.3253 40.1862 35.2574 40.271 35.2914 40.6442C35.3083 40.9156 35.2405 41.1192 35.1217 41.1192C35.003 41.1192 35.1048 41.221 35.3422 41.3397C35.5797 41.4585 35.7833 41.645 35.7833 41.7638C35.8002 41.8825 35.8172 42.0352 35.8342 42.12C35.8342 42.2048 36.0038 42.3405 36.1904 42.3914C36.377 42.4593 36.4957 42.578 36.4448 42.6628C36.377 42.7476 36.4618 42.8664 36.5975 42.9173C36.7502 42.9682 36.818 43.0869 36.7671 43.1717C36.7163 43.2565 36.7841 43.3244 36.9028 43.3244C37.0216 43.3244 37.2591 43.4431 37.4457 43.5788C37.734 43.7993 37.734 43.8163 37.293 43.7824C36.7841 43.7485 36.7163 43.8333 36.2922 45.1564C36.0038 46.0385 35.0369 47.8365 34.6128 48.2776C34.4941 48.3963 34.2057 48.7695 33.9852 49.0918C33.7647 49.4141 33.2728 50.0078 32.8996 50.4149C31.9666 51.4157 31.6613 51.9246 31.3559 52.9085C31.2202 53.3665 30.8131 54.1298 30.4399 54.5709C29.8632 55.2494 29.7953 55.436 29.948 55.7074C30.1007 55.9449 30.0668 56.1484 29.8462 56.6403C29.5918 57.1492 29.5748 57.3528 29.7275 57.692C29.8462 57.9295 29.8802 58.2518 29.8293 58.4215C29.7784 58.5911 29.8123 58.7777 29.8971 58.8286C29.9819 58.8964 30.0159 59.2017 29.965 59.541C29.8971 59.9651 29.931 60.2026 30.1007 60.3043C30.3042 60.44 30.3042 60.474 30.1007 60.6097C29.8802 60.7454 29.8802 60.915 30.0837 61.7632C30.2194 62.306 30.3212 63.0184 30.3212 63.3407C30.3382 63.9005 30.3721 63.9344 30.9828 63.9853C31.3899 64.0192 31.6104 64.121 31.6104 64.2906C31.6104 64.4942 31.9327 64.6129 32.3568 64.5451C32.4416 64.5281 32.4585 64.6299 32.4076 64.7826C32.3398 64.9352 32.3907 65.037 32.5264 65.037C32.9505 65.037 33.2897 65.6307 33.2897 66.3941C33.2897 67.1404 33.4254 69.193 33.4763 69.193C33.4933 69.193 33.5272 69.6001 33.5611 70.109C33.612 70.7705 33.7138 71.0758 33.9682 71.2455C34.1548 71.3812 34.4602 71.7544 34.6637 72.0767C35.0199 72.6364 35.02 72.7043 34.7655 73.0944C34.4941 73.5185 34.3414 73.5864 33.7816 73.5355C33.612 73.5185 33.4763 73.5524 33.4763 73.6373C33.4763 73.9256 34.8673 75.3845 35.0369 75.2827C35.2405 75.147 36.36 76.3174 36.36 76.6397C36.36 76.7754 36.2413 77.0977 36.1056 77.3522C35.9699 77.6236 35.8511 77.9628 35.8511 78.0985C35.8511 78.4378 36.1734 78.7771 36.4957 78.7771C36.8859 78.7771 38.0563 80.1341 38.0563 80.5921C38.0563 80.8635 38.1242 80.9822 38.2768 80.9144C38.3786 80.8635 38.6161 80.7617 38.8027 80.7108C39.0571 80.6091 39.0911 80.4734 39.0063 79.9814C38.9554 79.6422 38.9045 79.2351 38.9045 79.0654C38.9045 78.9128 38.8197 78.7771 38.7179 78.7771C38.6331 78.7771 38.5991 78.8788 38.65 78.9806C38.7179 79.0993 38.6161 79.0145 38.4295 78.794C38.1072 78.4039 38.0903 78.4039 38.0054 78.7092C37.9545 78.9467 37.9206 78.9128 37.9037 78.5735C37.9037 78.3191 37.9715 78.0646 38.0563 78.0137C38.3108 77.861 38.2599 77.5896 37.9885 77.5896C37.734 77.5896 37.5135 76.6058 37.751 76.4701C37.8188 76.4192 37.8867 76.3005 37.8867 76.2156C37.8867 76.1139 37.8188 76.0969 37.7171 76.1478C37.6153 76.1987 37.5474 76.063 37.5474 75.8425C37.5474 75.4184 36.9028 73.9935 36.6654 73.8917C36.4618 73.7899 36.5127 72.9248 36.7332 72.7043C36.835 72.6025 36.8689 72.4499 36.8011 72.382C36.7332 72.3141 36.6145 72.365 36.5297 72.5007C36.394 72.7043 36.36 72.6704 36.36 72.382C36.36 72.1784 36.2922 71.9579 36.1904 71.907C36.1056 71.8561 36.0208 71.7204 36.0208 71.6017C36.0208 71.4999 36.1395 71.5678 36.2922 71.7544C36.5466 72.0597 36.5466 72.0597 36.4448 71.5678C36.3091 70.9401 36.2074 70.8384 36.0377 71.1267C35.936 71.2794 35.8172 71.1946 35.5628 70.8044C35.2574 70.3295 35.2574 70.1938 35.444 69.2608C35.6815 68.0734 35.7324 68.0055 36.1395 68.1752C36.3091 68.26 36.5127 68.2939 36.5805 68.277C36.818 68.2261 37.4287 68.9215 37.3439 69.1421C37.293 69.2608 37.31 69.7867 37.3778 70.2956C37.4626 70.9571 37.4457 71.3642 37.276 71.6696C37.0725 72.0936 37.1064 72.3311 37.3948 72.3311C37.4626 72.3311 37.4796 72.1615 37.4287 71.941C37.3778 71.7204 37.4796 71.8053 37.6492 72.1615C37.8188 72.4838 38.0563 72.857 38.1751 72.9757C38.2938 73.0944 38.3956 73.2641 38.3956 73.3489C38.3956 73.4337 38.5313 73.5355 38.7179 73.6033C38.9384 73.6712 39.0063 73.8069 38.9384 74.1292C38.8875 74.4684 38.9384 74.5702 39.2268 74.655C39.4134 74.7059 39.583 74.8756 39.583 75.0452C39.583 75.2148 39.7526 75.3845 39.9562 75.4353C40.2954 75.5371 40.2954 75.5541 40.041 75.9612C39.8714 76.1987 39.7526 76.487 39.7526 76.5888C39.7526 76.8093 40.3972 77.42 40.6347 77.42C40.7195 77.42 40.8722 77.6236 40.9909 77.878C41.0927 78.1494 41.3811 78.5396 41.6355 78.7771C41.873 79.0145 42.2123 79.4725 42.3819 79.7948C42.5346 80.1171 42.8569 80.626 43.0604 80.9144C43.4336 81.3894 43.5015 81.7625 43.5015 83.1874C43.5015 84.2391 43.4675 84.3748 43.2131 84.3748C42.8569 84.3748 42.9247 85.1212 43.3657 85.7828C43.5693 86.1051 44.0103 86.5122 44.3326 86.6818C44.6549 86.8514 44.9942 87.1737 45.079 87.3773C45.2317 87.7166 46.2155 88.1576 46.8092 88.1576C46.9619 88.1576 47.3181 88.3951 47.6235 88.7004C48.1323 89.2263 49.8795 90.1423 50.3545 90.1423C50.4732 90.1423 50.6938 90.244 50.8125 90.3458C51.1687 90.6851 52.0678 91.16 52.3561 91.16C52.4918 91.16 52.8141 91.2618 53.0686 91.3975C53.5605 91.652 54.0694 91.5672 55.0533 91.0922C55.3416 90.9395 55.7148 90.8208 55.8675 90.8208C56.563 90.8208 57.4111 91.3636 58.0557 92.2287C59.1074 93.6366 59.6163 94.0438 60.5493 94.1964C61.0073 94.2643 61.5331 94.4 61.7197 94.5018C62.6866 95.0106 63.3482 95.1972 64.0776 95.1463C64.7052 95.1124 64.8239 95.1463 64.6204 95.299C64.3829 95.4517 64.4338 95.5874 64.9936 96.1981C66.5372 97.9622 66.8425 98.5389 66.5033 99.0987C66.2828 99.438 66.5372 99.9469 67.0631 100.218C67.5211 100.439 67.5889 100.439 67.7416 100.184C67.8942 99.9129 67.8942 99.9129 67.9112 100.184C67.9112 100.337 68.1657 100.591 68.4879 100.744C69.0817 101.033 69.37 101.423 69.0986 101.592C68.8951 101.711 69.0817 102.186 69.3191 102.186C69.4209 102.186 69.6754 102.356 69.8959 102.559C70.2521 102.881 70.286 102.898 70.286 102.627C70.286 102.423 70.3708 102.356 70.5574 102.423C70.7101 102.474 70.9645 102.525 71.1342 102.525C71.4904 102.525 71.7279 103.017 71.4734 103.272C71.236 103.509 71.2699 103.713 71.5582 103.713C71.7109 103.713 71.7618 103.611 71.7109 103.458C71.5582 103.051 72.0841 103.323 72.3894 103.814C72.6608 104.205 72.6778 104.205 73.2545 103.933C73.8991 103.628 73.967 103.441 73.5938 102.932C73.2545 102.491 73.2715 102.474 73.8483 102.22C74.1366 102.084 74.3571 101.881 74.3571 101.762C74.3571 101.643 74.4759 101.507 74.6116 101.44C74.8491 101.355 74.9848 100.32 74.7643 100.32C74.7134 100.32 74.1705 100.591 73.5768 100.914C72.3555 101.592 72.2198 101.609 71.7788 101.219C71.5582 101.033 71.4734 101.016 71.4734 101.168C71.4734 101.338 71.4225 101.338 71.236 101.168C71.1002 101.066 71.0154 100.88 71.0663 100.761C71.1172 100.642 70.9476 100.456 70.7101 100.354C70.4726 100.252 70.286 100.049 70.286 99.896C70.286 99.7603 70.2012 99.6415 70.1164 99.6415C70.0146 99.6415 69.8619 99.438 69.7771 99.1666C69.6754 98.9121 69.5227 98.5389 69.4209 98.3524C69.2852 98.0809 69.2852 97.8944 69.4209 97.6399C69.5227 97.4533 69.6075 97.0971 69.6075 96.8596C69.6075 96.6221 69.6923 96.4186 69.7771 96.4186C69.8789 96.4186 69.9468 96.0115 69.9468 95.5195C69.9468 94.9598 70.0655 94.4 70.2691 94.0268C70.4557 93.6875 70.5574 93.2465 70.5235 93.0599C70.4726 92.8733 70.5065 92.6697 70.6253 92.6019C70.744 92.534 70.6422 92.3475 70.3369 92.076C70.0825 91.8555 69.7432 91.5502 69.5905 91.4145C69.2513 91.0922 67.2327 90.8038 66.9443 91.0243C66.7068 91.2109 65.2989 91.2449 65.0275 91.0752C64.9257 91.0074 64.7391 91.0583 64.6034 91.16C64.3999 91.3297 64.2981 91.3297 64.0945 91.16C63.9588 91.0583 63.7553 91.0243 63.6365 91.0922C63.5178 91.16 63.6365 90.9904 63.891 90.702C64.1624 90.4137 64.3999 89.9217 64.4677 89.5316C64.5186 89.1754 64.6373 88.7683 64.7391 88.6495C64.8239 88.5477 64.8579 88.446 64.807 88.446C64.7561 88.446 64.8918 88.2594 65.1123 88.0219C65.3498 87.8014 65.5364 87.496 65.5364 87.3603C65.5364 87.2246 65.6212 86.9023 65.7399 86.6309C65.8417 86.3765 65.9435 86.0203 65.9435 85.8676C65.9605 85.7149 66.0114 85.5283 66.0962 85.4605C66.164 85.3926 66.2149 85.206 66.2149 85.0534C66.2149 84.8837 66.3336 84.6632 66.4694 84.5445C66.6899 84.3579 66.7068 84.3748 66.622 84.6123C66.4694 85.0025 66.7747 84.9516 67.0291 84.5445C67.1648 84.324 67.1648 84.2052 67.0631 84.2052C66.9443 84.2052 66.9443 84.0865 67.0631 83.849C67.1818 83.6624 67.2157 83.3231 67.1648 83.1026C67.0631 82.7294 66.9952 82.7125 66.0114 82.7634C65.4176 82.7803 64.4338 82.933 63.8231 83.0857C62.941 83.3231 62.6527 83.4588 62.5 83.7981C62.3982 84.0356 62.3134 84.307 62.3134 84.3918C62.3134 84.4936 62.1268 84.9685 61.9063 85.4435C61.4992 86.3595 60.7528 86.9023 59.769 87.0211C58.853 87.1228 57.5638 87.4112 57.2245 87.5978C56.9192 87.7674 56.8004 87.7335 56.4442 87.3773C56.2237 87.1398 55.8166 86.9193 55.5621 86.8684C55.1041 86.7666 54.8327 86.3595 54.5953 85.3078C54.5444 85.0194 54.3578 84.6632 54.2051 84.4936C54.0524 84.324 53.9167 83.866 53.8998 83.4758C53.8828 83.0857 53.798 82.5768 53.7132 82.3393C53.6114 82.1018 53.5605 81.7625 53.5944 81.5759C53.8658 79.8966 54.5104 77.9628 55.0193 77.2504C55.2568 76.9111 55.3925 76.4192 55.4434 75.7067C55.5452 74.1631 55.9184 73.7051 58.1405 72.382C60.6171 70.8893 61.4992 70.567 61.9233 70.991C62.0081 71.0758 62.483 71.1776 62.975 71.1776C63.5687 71.1946 63.8401 71.2794 63.8401 71.4321C63.8401 71.5508 63.9419 71.6696 64.0606 71.6865C64.7731 71.7713 65.2989 71.7374 65.4007 71.5847C65.5194 71.3981 66.0792 71.2794 65.9774 71.449C65.9435 71.5169 65.9605 71.7035 66.0283 71.8731C66.1301 72.1445 66.164 72.1445 66.4694 71.907C66.8086 71.6526 66.8086 71.6526 66.4185 71.3473C66.0453 71.0589 66.0453 71.0419 66.3676 70.7705C66.5372 70.6348 66.7068 70.4143 66.7577 70.2956C66.8595 69.9733 70.4217 69.9224 70.9306 70.2277C71.1342 70.3634 71.3038 70.5839 71.3038 70.7027C71.3038 71.1267 71.8636 71.1776 72.3555 70.8044C72.9323 70.3804 73.3394 70.4143 73.6108 70.9401C73.7125 71.1437 73.9161 71.449 74.0688 71.6187C74.425 72.0088 74.425 72.382 74.1027 72.9927C73.984 73.2471 73.8822 73.6542 73.9161 73.8747C74.0348 74.9095 74.2384 75.7237 74.3741 75.7237C74.4589 75.7237 74.5268 75.8425 74.5268 75.9782C74.5268 76.1139 74.6794 76.3683 74.866 76.521C75.0526 76.6906 75.2053 77.0299 75.2053 77.2843C75.2053 77.6405 75.2731 77.7253 75.4767 77.6405C75.6294 77.5896 75.816 77.6405 75.9008 77.7762C76.0365 77.9798 76.0874 77.9798 76.2061 77.7593C76.2909 77.6236 76.3757 77.42 76.3927 77.3352C76.3927 77.2334 76.5114 77.0129 76.6302 76.8263C77.0882 76.0799 77.2409 75.147 77.0543 74.0613C76.9694 73.4676 76.9355 72.9248 76.9864 72.84C77.0373 72.7721 76.9525 72.2124 76.7998 71.6356C76.257 69.4983 77.19 67.6324 79.3612 66.5637C79.6326 66.428 80.1755 65.9869 80.5656 65.5798C81.0236 65.1049 81.3968 64.8674 81.7021 64.8674C81.9396 64.8674 82.194 64.7826 82.2449 64.6978C82.4655 64.3585 83.6868 63.68 84.0939 63.68C84.6028 63.68 85.0438 63.205 84.7215 63.0184C84.5689 62.9166 84.7215 62.764 85.1965 62.5435C85.8411 62.2212 85.875 62.2212 85.7054 62.5095C85.6206 62.6961 85.417 62.8318 85.2474 62.8488C85.0947 62.8488 85.0438 62.8997 85.1626 62.9336C85.2813 62.9845 85.5188 62.9336 85.7054 62.8318C86.0107 62.6792 86.0616 62.4926 86.0616 61.5087C86.0616 60.8641 85.9768 60.2704 85.892 60.1856C85.7563 60.0499 85.7732 59.8463 85.9089 59.5071C86.0107 59.2357 86.1295 58.8625 86.1634 58.6929C86.2652 58.1161 86.5196 58.0483 86.4857 58.5911C86.4687 58.8795 86.3669 59.2017 86.2652 59.3035C86.1464 59.4223 86.0616 59.6598 86.0616 59.8463C86.0616 60.1686 86.1125 60.1347 86.4687 59.6937C86.6892 59.4223 86.8419 59.1169 86.791 59.0321C86.7232 58.9473 86.7741 58.9303 86.8758 58.9982C86.9946 59.066 87.266 58.9134 87.5204 58.642C87.8597 58.2688 87.9445 58.0483 87.8767 57.6242C87.8258 57.3189 87.8597 57.0305 87.9445 56.9796C88.0293 56.9117 88.0972 56.9966 88.0972 57.1323C88.0972 57.5224 88.199 57.4715 89.0132 56.81C89.4033 56.4877 89.8274 55.9618 89.9461 55.6395C90.1667 55.1137 90.2854 55.0458 91.1335 54.8762C92.321 54.6217 93.2709 54.2146 92.762 54.1807C92.5754 54.1637 92.779 54.045 93.237 53.9263C93.678 53.8075 94.1869 53.7397 94.3565 53.7906C94.5261 53.8414 94.7297 53.7906 94.7806 53.6888C94.8484 53.587 95.035 53.5022 95.2216 53.5022C95.5779 53.5022 95.8153 53.0103 95.5609 52.7558C95.4422 52.6371 95.3913 52.671 95.3913 52.8746C95.3913 53.2817 95.069 53.2308 94.8993 52.7728C94.7806 52.5183 94.8145 52.3487 94.9841 52.213C95.1199 52.1112 95.2216 51.9077 95.2216 51.772C95.2216 51.2631 96.3242 50.5167 97.7661 50.0248C98.5633 49.7534 99.3776 49.4311 99.5811 49.3123C99.7847 49.1766 100.175 49.0579 100.463 49.0579C100.955 49.0409 101.227 48.7695 100.785 48.7356C100.48 48.7186 101.176 48.4642 101.769 48.3624C102.041 48.3115 102.465 48.1928 102.719 48.091C102.991 47.9892 103.228 47.9722 103.279 48.074C103.33 48.1588 102.855 48.4811 102.244 48.7865C101.26 49.2614 101.091 49.4141 101.057 49.8382C101.023 50.1096 101.108 50.4319 101.243 50.5506C101.515 50.822 102.007 50.8729 102.007 50.6185C102.007 50.5167 102.159 50.4488 102.346 50.4488C102.533 50.4488 102.685 50.381 102.685 50.2962C102.685 50.0587 104.008 49.2275 104.195 49.3462C104.297 49.3971 104.466 49.3971 104.585 49.3293C104.958 49.0918 107.503 48.2606 107.588 48.3285C107.622 48.3794 107.757 48.2606 107.893 48.074C108.029 47.8874 108.249 47.7348 108.402 47.7348C108.775 47.7348 109.64 47.1919 109.64 46.9375C109.64 46.8188 109.521 46.717 109.386 46.717C109.08 46.717 109.063 46.6491 109.335 46.2081C109.504 45.9536 109.504 45.8349 109.335 45.6653C109.182 45.5126 108.911 45.6992 108.114 46.5134C107.554 47.0902 107.096 47.4973 107.096 47.3955C107.096 47.2937 106.943 47.2937 106.723 47.3785C106.265 47.5312 104.84 47.2768 104.975 47.0562C105.094 46.8696 105.908 46.9036 105.908 47.0902C105.908 47.158 106.061 47.2259 106.248 47.2259C106.434 47.2259 106.587 47.158 106.587 47.0562C106.587 46.9714 106.79 46.7848 107.062 46.6491C107.52 46.3947 107.503 46.3947 106.587 46.3777C105.501 46.3777 105.179 46.2251 105.332 45.784C105.416 45.5635 105.382 45.5126 105.213 45.5635C105.077 45.6144 104.992 45.7331 105.009 45.8349C105.043 45.9367 104.941 45.9876 104.806 45.9367C104.483 45.801 104.483 46.1063 104.806 46.4456C105.145 46.7848 105.128 46.8696 104.721 46.7679C104.365 46.6661 104.178 46.1911 104.263 45.6314C104.297 45.4448 104.585 45.0376 104.908 44.7323L105.484 44.1556L105.026 44.2573C104.331 44.427 104.45 44.2065 105.23 43.9011C106.587 43.3583 106.214 42.3745 104.67 42.4253C103.635 42.4593 101.396 43.1548 100.378 43.7485C99.4285 44.3082 99.3267 44.2913 100.005 43.6806C100.667 43.1208 101.922 42.4762 102.397 42.4762C102.584 42.4762 102.94 42.2557 103.194 41.9843C103.432 41.6959 103.839 41.3906 104.11 41.2888C104.399 41.187 105.993 41.1192 108.147 41.1362C110.285 41.1531 111.761 41.0853 111.828 40.9835C111.879 40.8987 112.1 40.7799 112.32 40.7121C112.524 40.6442 112.897 40.4067 113.168 40.2032C113.728 39.7452 114.593 39.4229 115.306 39.4229H115.832L115.068 40.1693C113.847 41.3397 113.033 42.2557 113.033 42.4593C113.033 42.561 112.914 42.6459 112.778 42.6459C112.626 42.6459 112.473 42.7646 112.422 42.9003C112.354 43.036 112.252 43.1039 112.168 43.053C112.015 42.9682 111.506 43.3583 111.506 43.5788C111.506 43.6297 111.676 43.6467 111.896 43.5788C112.1 43.5279 111.947 43.6806 111.54 43.9351C110.353 44.6645 110.607 44.8511 112.948 44.9359C117.274 45.1225 116.934 45.0716 116.663 45.3769C116.374 45.6822 116.358 46.0385 116.612 46.0385C116.697 46.0385 116.748 45.9706 116.68 45.8858C116.629 45.801 116.663 45.6653 116.765 45.6144C116.866 45.5465 116.934 45.5635 116.917 45.6483C116.832 46.1572 116.951 46.3268 117.358 46.242C118.003 46.1233 119.021 44.5118 118.461 44.5118C118.376 44.5118 118.291 44.5796 118.291 44.6814C118.291 44.7662 118.223 44.8511 118.156 44.8511C118.071 44.8511 118.003 44.7323 118.003 44.5966C118.003 44.4609 118.071 44.3931 118.139 44.427C118.19 44.4779 118.342 44.3931 118.461 44.2573C118.631 44.0538 118.614 44.0029 118.393 44.0029C118.24 44.0029 117.986 44.1556 117.833 44.3422C117.664 44.5288 117.46 44.6814 117.375 44.6814C117.29 44.6814 117.392 44.4948 117.596 44.2743C117.884 43.969 117.918 43.8502 117.748 43.7824C117.63 43.7315 117.748 43.7145 118.037 43.7145C118.376 43.7485 118.546 43.6636 118.597 43.4601C118.631 43.2565 118.563 43.2056 118.308 43.2735C117.884 43.3753 117.799 42.9173 118.206 42.7476C118.58 42.6119 118.512 42.3236 118.088 42.137C117.867 42.0522 117.799 41.9843 117.918 41.9843C118.037 41.9673 118.088 41.8825 118.02 41.7638C117.935 41.645 117.833 41.679 117.664 41.8825C117.545 42.0691 117.443 42.103 117.443 42.0013C117.443 41.8825 117.324 41.7977 117.189 41.7977C117.053 41.7977 116.934 41.8486 116.934 41.9334C116.934 42.0013 116.714 42.0691 116.442 42.0691C116.086 42.0861 115.967 42.0352 116.035 41.8656C116.086 41.7299 116.222 41.6281 116.358 41.6281C116.816 41.6281 116.595 41.3227 116.052 41.221L115.492 41.1022L116.069 40.6103C116.459 40.288 116.697 40.1693 116.782 40.288C116.934 40.5594 117.138 40.2032 117.002 39.8639C116.951 39.7113 116.968 39.5925 117.07 39.5925C117.155 39.5925 117.274 39.4738 117.341 39.3381C117.409 39.1515 117.307 39.0836 116.968 39.0836C116.646 39.0836 116.578 39.1345 116.731 39.2363C116.883 39.3211 116.782 39.372 116.442 39.355C116.154 39.3381 115.916 39.3211 115.916 39.3042C115.916 39.2702 116.256 39.1006 116.68 38.897C117.392 38.5578 117.511 38.4221 117.715 37.523C117.986 36.4374 117.935 36.2169 117.409 36.1151C116.832 35.9794 116.493 35.3518 116.866 35.1313C117.257 34.9107 116.646 34.4188 116.052 34.4867C115.747 34.5036 115.577 34.4527 115.611 34.317C115.662 34.0795 114.831 33.8081 114.424 33.9438C114.254 33.9947 114.203 33.9608 114.305 33.876C114.627 33.6215 114.576 33.2823 114.152 32.8921C113.745 32.5189 113.745 32.485 114.034 32.3832C114.356 32.2815 114.475 31.5351 114.203 31.3485C114.118 31.2976 114.169 31.0771 114.322 30.8566C114.559 30.4834 114.559 30.4495 114.254 30.2798C114.017 30.1611 113.915 29.9236 113.915 29.5335C113.915 29.2112 113.796 28.7362 113.66 28.4648C113.525 28.1764 113.44 27.6675 113.491 27.2435C113.525 26.8533 113.508 26.531 113.44 26.531C113.236 26.531 112.846 27.0399 112.948 27.2095C112.999 27.2943 112.948 27.3283 112.812 27.2774C112.677 27.2265 112.151 27.5997 111.591 28.1425C111.048 28.6514 110.505 29.0755 110.404 29.0755C110.302 29.0755 109.895 29.2281 109.488 29.4317C108.877 29.7201 108.724 29.737 108.487 29.5504C107.876 29.0585 107.588 28.7023 107.554 28.4139C107.537 28.0746 108.046 26.9381 108.283 26.7855C108.385 26.7176 108.419 26.5989 108.351 26.514C108.3 26.4292 108.317 26.3783 108.402 26.3953C108.47 26.4292 108.538 26.3783 108.538 26.2935C108.538 26.1917 108.317 26.1069 108.029 26.073C107.757 26.056 107.333 25.9882 107.13 25.9373C106.79 25.8525 106.756 25.8016 106.943 25.5811C107.113 25.3606 107.113 25.2927 106.909 25.174C106.417 24.8686 105.84 24.3937 105.586 24.1053C105.433 23.9526 105.23 23.8169 105.111 23.8169C104.823 23.8169 104.823 24.1562 105.111 24.1562C105.213 24.1562 105.179 24.241 105.009 24.3428C104.704 24.5294 104.433 24.4954 102.414 24.1223C101.43 23.9526 101.362 23.9526 101.006 24.3089C100.802 24.5124 100.599 24.8686 100.582 25.0892C100.531 25.632 100.175 26.0221 99.5133 26.3105C98.8348 26.5819 98.7839 26.7515 99.3945 26.5989C99.8016 26.4971 99.8356 26.514 99.7168 26.8872C99.632 27.1078 99.5811 27.3961 99.5811 27.4979C99.5811 27.6166 99.5302 27.7184 99.4624 27.7184C99.3945 27.7184 99.0044 27.9898 98.5973 28.3121C98.1902 28.6344 97.783 28.9058 97.7152 28.9058C97.5456 28.9058 97.0876 29.3469 97.0876 29.4826C97.0876 29.5335 97.1554 29.5843 97.2572 29.5843C97.5625 29.5843 98.275 30.3138 98.275 30.6361C98.275 31.0601 97.6473 32.3663 97.2911 32.6886C96.6465 33.2653 94.6619 34.1983 93.695 34.3679L92.6772 34.5375L92.762 35.2839C92.8129 35.725 92.779 36.0303 92.6772 36.0303C92.5924 36.0303 92.5076 36.2169 92.5076 36.4374C92.5076 36.6749 92.4397 36.8954 92.3718 36.9463C92.304 36.9802 92.2192 37.2686 92.2022 37.5909C92.1683 37.981 91.9987 38.2694 91.6594 38.5408C91.371 38.7613 91.1844 39.0158 91.2353 39.1006C91.3032 39.1854 91.2693 39.2533 91.1675 39.2533C91.0827 39.2533 90.9809 39.1515 90.93 39.0327C90.8791 38.897 90.7264 38.9479 90.4211 39.2363C89.9631 39.6604 89.6238 39.5925 89.6238 39.0836C89.6238 38.914 89.4881 38.6596 89.3355 38.5408C89.1658 38.4221 89.0132 38.2016 89.0132 38.0659C88.9962 37.9301 88.9284 37.6757 88.8605 37.523C88.7587 37.2686 88.8096 37.2516 89.2337 37.3704C90.2006 37.6587 90.2175 37.6587 90.2175 37.2177C90.2175 36.8445 90.1497 36.7936 89.6917 36.8106C89.2507 36.8276 89.1658 36.7936 89.2337 36.5222C89.2846 36.3356 89.3864 36.149 89.4712 36.0981C89.556 36.0473 89.6238 35.8267 89.6238 35.5893C89.6238 35.3687 89.6917 35.1821 89.7595 35.1821C89.9801 35.1821 90.489 34.1983 90.3193 34.0965C90.2345 34.0456 89.573 33.9608 88.8435 33.9099C88.0632 33.859 87.4187 33.7233 87.266 33.5876C87.1133 33.4519 86.6723 33.2484 86.2821 33.1127C85.875 32.9939 85.5527 32.7904 85.5527 32.6886C85.5527 32.3832 84.976 31.8404 84.501 31.7047C84.2975 31.6369 83.8564 31.4842 83.5511 31.3485C83.127 31.1449 82.8726 31.128 82.3637 31.2637C82.0244 31.3655 81.6852 31.4503 81.6343 31.4503C81.4986 31.4503 81.6852 30.5682 81.9735 29.8727C82.228 29.2451 82.0923 29.0755 81.3798 29.0755C81.0575 29.0755 80.8031 29.0246 80.8031 28.9737C80.8031 28.821 82.3467 26.8703 82.4655 26.8703C82.5333 26.8703 83.0422 26.531 83.585 26.1069C84.1448 25.6998 84.8064 25.3097 85.0608 25.2588C85.3152 25.1909 85.5697 25.0552 85.6206 24.9195C85.6715 24.7838 85.9768 24.6312 86.2991 24.5633C86.6384 24.5124 86.9098 24.3937 86.9098 24.3089C86.9098 24.224 87.0115 24.1732 87.1303 24.1901C87.2321 24.224 87.3169 24.1392 87.2829 24.0035C87.2321 23.783 87.3847 23.783 88.182 24.0714C88.4195 24.1562 88.4534 24.1392 88.2838 24.0205C88.1141 23.9017 88.199 23.8169 88.64 23.6643C88.9453 23.5625 89.3185 23.325 89.4542 23.1384C89.5899 22.9518 89.8274 22.7991 89.9631 22.7991C90.1158 22.7991 90.3193 22.7143 90.4211 22.6126C90.5398 22.4938 90.9809 22.392 91.4389 22.3581C92.3549 22.2733 94.136 21.4591 94.7806 20.8145C95.1538 20.4413 96.2564 19.7458 96.4769 19.7458C96.5278 19.7458 96.1037 20.1868 95.5439 20.7127C95.0011 21.2555 94.5431 21.7644 94.5431 21.8662C94.5431 21.968 94.2039 22.1546 93.7798 22.2733C92.8638 22.5447 92.8468 22.9009 93.7628 22.8331C94.3396 22.7822 94.3904 22.7991 94.2887 23.1214C94.153 23.5964 94.577 23.5964 95.4422 23.1384C95.7814 22.9518 96.1885 22.7991 96.3242 22.7991C96.4599 22.7991 96.6974 22.6465 96.867 22.4599C97.2233 22.1037 97.9696 22.1546 97.8339 22.5447C97.6982 22.884 98.9874 23.0366 99.6999 22.7822C100.192 22.6126 100.26 22.5108 100.124 22.2733C100.039 22.1037 99.8695 22.0019 99.7338 22.0528C99.5981 22.1037 99.4624 21.9849 99.4115 21.7474C99.3097 21.3912 98.6821 20.8993 97.8848 20.56C97.6643 20.4583 97.6134 20.3226 97.6982 19.9663C97.7661 19.6949 97.8509 19.4574 97.8848 19.4065C97.9866 19.2878 98.258 19.7967 98.1732 19.9494C98.0884 20.0681 98.1902 20.102 98.8348 20.1529C98.9365 20.1699 99.0383 20.0172 99.0553 19.8306C99.1062 18.8128 99.1062 18.8298 99.4454 19.2539C99.7508 19.6271 99.7847 19.6271 99.8865 19.3557C99.9543 19.203 100.141 19.0673 100.294 19.0673C100.446 19.0673 100.785 18.9485 101.057 18.8128C101.311 18.6771 101.634 18.5584 101.735 18.5584C101.854 18.5584 102.126 18.3718 102.346 18.1343C102.651 17.812 102.685 17.6763 102.55 17.4897C102.312 17.2014 102.702 16.7942 103.466 16.5228C103.737 16.4211 104.042 16.1497 104.161 15.9291C104.331 15.5559 104.314 15.5051 104.042 15.5051C103.449 15.5051 103.517 15.1828 104.144 15.0131C104.619 14.8774 104.874 14.8944 105.247 15.081C105.518 15.2337 105.925 15.2845 106.214 15.2337C106.841 15.1149 107.113 15.4542 106.519 15.6068C106.01 15.7256 105.569 16.1836 105.925 16.1836C106.078 16.2005 106.01 16.3193 105.756 16.5398C105.535 16.7264 105.416 16.93 105.484 16.9978C105.552 17.0657 105.654 17.0148 105.688 16.896C105.739 16.7942 105.874 16.6925 106.01 16.6925C106.231 16.6925 106.315 16.4889 106.265 16.1327C106.265 16.0648 106.332 16.0139 106.417 16.0139C106.689 16.0139 107.944 15.1488 107.944 14.9622C107.944 14.8605 107.808 14.8435 107.656 14.9114C107.028 15.1658 106.756 15.1997 106.756 15.0131C106.756 14.9114 106.943 14.8265 107.181 14.8265C107.469 14.8265 107.672 14.7078 107.774 14.4364C107.859 14.2328 107.927 14.165 107.927 14.2668C107.944 14.3855 108.063 14.4873 108.198 14.4873C108.351 14.4873 108.402 14.5891 108.334 14.7757C108.266 14.9622 108.283 15.0131 108.419 14.9283C108.538 14.8605 108.622 14.8774 108.622 14.9453C108.622 15.0301 108.826 15.2167 109.097 15.3694L109.555 15.6577L109.08 15.6747C108.809 15.6747 108.639 15.6068 108.707 15.522C108.86 15.2506 108.453 15.1149 108.181 15.3354C108.012 15.5051 107.995 15.6068 108.13 15.7765C108.232 15.8952 108.249 16.0818 108.181 16.2005C108.097 16.3532 108.215 16.3702 108.656 16.2854C109.114 16.2005 109.25 16.2345 109.25 16.438C109.25 16.6246 109.063 16.6925 108.538 16.6925C107.401 16.6925 106.163 17.5067 106.502 18.0495C106.756 18.4566 108.962 17.9308 108.962 17.4558C108.962 17.3371 109.063 17.1505 109.199 17.0487C109.386 16.896 109.437 16.913 109.403 17.1505C109.386 17.388 109.538 17.4728 110.03 17.5067C110.488 17.5406 110.658 17.4897 110.658 17.3031C110.658 17.1674 110.488 17.0317 110.285 16.9978C110.081 16.9639 109.878 16.8282 109.844 16.6925C109.776 16.4719 109.793 16.4719 110.013 16.6585C110.234 16.8282 110.302 16.8282 110.37 16.6585C110.437 16.4889 110.471 16.4889 110.471 16.6416C110.488 16.7603 110.641 16.8621 110.828 16.8621C111.082 16.8621 111.15 16.9469 111.099 17.2353C111.048 17.4558 111.014 17.7611 111.014 17.9138C110.997 18.0834 110.862 18.2191 110.709 18.2191C110.556 18.2191 110.302 18.3209 110.166 18.4397C110.013 18.5754 109.521 18.8128 109.046 18.9825C107.995 19.3557 107.808 19.5083 108.08 19.7797C108.368 20.0681 108.334 20.2377 107.995 20.2377C107.825 20.2377 107.401 20.3056 107.062 20.3904C106.672 20.4922 106.112 20.4922 105.552 20.3904C104.823 20.2547 104.568 20.2886 104.059 20.5431C103.16 21.0011 102.787 21.4082 103.008 21.6796C103.296 22.0189 103.992 22.1037 104.772 21.8831C105.162 21.7644 105.756 21.6966 106.078 21.7135C106.4 21.7305 106.841 21.7474 107.062 21.7644C107.282 21.7644 107.401 21.8492 107.35 21.951C107.299 22.0358 107.367 22.1206 107.52 22.1206C107.689 22.1206 107.774 22.2394 107.74 22.409C107.706 22.5786 107.859 22.9009 108.063 23.1384C108.283 23.3759 108.453 23.6812 108.453 23.8509C108.453 24.258 108.707 24.3597 109.199 24.1392C109.555 23.9696 109.691 24.0035 110.081 24.3089C110.336 24.4954 110.709 24.6651 110.929 24.6651C111.15 24.6651 111.71 24.8177 112.185 25.0043C112.643 25.1909 113.033 25.3097 113.033 25.2588C113.033 25.2079 113.185 25.3266 113.389 25.5302C113.796 25.9373 114.237 25.7168 114.101 25.174C114 24.8177 113.542 24.699 113.542 25.0213C113.542 25.1231 113.44 25.174 113.338 25.1231C113.219 25.0892 113.135 24.9026 113.168 24.7329C113.185 24.5463 113.033 24.241 112.778 24.0205C112.541 23.8169 112.354 23.5794 112.354 23.4946C112.354 23.4098 112.202 23.308 112.015 23.2571C111.828 23.2063 111.676 23.0366 111.676 22.867C111.676 22.5956 111.693 22.5956 112.015 22.884C112.202 23.0536 112.405 23.1384 112.473 23.0875C112.524 23.0197 112.694 23.1214 112.829 23.325C113.033 23.6134 113.101 23.6303 113.338 23.4437C113.491 23.325 113.559 23.308 113.491 23.4098C113.423 23.5286 113.542 23.6473 113.779 23.7152C114 23.766 114.22 23.9696 114.271 24.1562C114.373 24.5294 114.797 24.6142 115 24.3089C115.051 24.2071 115 24.0544 114.882 23.9696C114.712 23.8678 114.695 23.8169 114.865 23.8169C114.967 23.8169 115.068 23.6643 115.068 23.4777C115.068 23.2741 115.153 23.1893 115.306 23.2402C115.425 23.2911 115.662 23.2063 115.815 23.0366C116.069 22.7991 116.069 22.7143 115.849 22.392C115.679 22.1206 115.662 21.934 115.781 21.7135C115.967 21.3743 115.73 21.1028 115.221 21.1028C114.933 21.1028 114.729 20.7975 114.627 20.2038C114.593 20.0342 114.661 19.9154 114.814 19.9154C115.119 19.9154 115.136 19.7288 114.865 19.4235C114.678 19.2369 114.695 19.22 114.865 19.3048C114.984 19.3726 115.187 19.3557 115.289 19.2539C115.56 19.0334 116.307 19.661 116.391 20.1699C116.459 20.56 116.765 20.9841 116.9 20.8654C116.934 20.8145 117.121 20.8484 117.29 20.9332C117.681 21.1537 118.122 20.9671 118.291 20.5261C118.41 20.2208 118.529 20.1699 119.038 20.2208C119.428 20.2717 119.648 20.2208 119.648 20.0851C119.648 19.8306 120.072 19.4065 120.361 19.4065C120.48 19.4065 120.768 19.2539 120.988 19.0843L121.379 18.7789L120.904 18.4397C120.632 18.2531 120.31 18.1343 120.174 18.1852C120.039 18.2361 119.988 18.1852 120.055 18.0665C120.123 17.9647 120.072 17.8799 119.937 17.8799C119.818 17.8799 119.53 17.6933 119.309 17.4388C119.021 17.1505 118.783 17.0487 118.512 17.1165C118.308 17.1674 118.088 17.1165 118.02 17.0148C117.969 16.913 117.647 16.7264 117.341 16.5907C117.019 16.455 116.765 16.2854 116.765 16.2175C116.765 15.997 117.562 15.6238 117.765 15.7425C118.088 15.9461 118.325 15.6747 118.088 15.3694C117.918 15.1658 117.918 15.0979 118.088 15.0471C118.648 14.8435 117.935 13.9105 117.019 13.6561C116.663 13.5543 116.307 13.5204 116.222 13.5713C116.154 13.6222 116.086 13.5374 116.086 13.3847C116.086 13.232 116.018 13.1472 115.933 13.1981C115.849 13.249 115.747 13.1472 115.696 12.9606C115.628 12.6892 115.458 12.6213 114.865 12.6213C114.458 12.6213 114.017 12.7231 113.881 12.8249C113.677 13.0115 113.677 12.9945 113.864 12.7401C114.034 12.5365 114.034 12.4517 113.898 12.4517C113.779 12.4517 113.745 12.3669 113.796 12.2821C113.847 12.1803 113.779 12.1125 113.643 12.1125C113.491 12.1125 113.372 11.9937 113.372 11.858C113.372 11.7223 113.202 11.5696 112.999 11.5357C112.778 11.4848 112.456 11.417 112.269 11.3831C112.032 11.3322 112.066 11.2982 112.405 11.2813C112.66 11.2643 112.863 11.1625 112.863 11.0438C112.863 10.5519 112.269 10.2974 110.912 10.1956C109.81 10.1108 109.504 10.1448 109.267 10.3653C108.979 10.6197 108.962 10.6197 108.962 10.3653C108.962 10.009 108.13 9.99208 106.587 10.3313C105.298 10.6197 104.975 10.6367 105.569 10.3822L105.993 10.2126L105.569 10.043C104.416 9.60194 101.159 10.6028 99.7677 11.8411C99.5981 11.9937 99.4115 12.1125 99.3436 12.1125C99.191 12.1294 98.5464 12.9606 98.6482 13.0285C98.6651 13.0624 99.1231 13.1642 99.632 13.249L100.565 13.4356L99.5642 13.4016C98.4276 13.3847 98.2241 13.5882 98.8008 14.1311C99.0553 14.3685 99.3097 14.4534 99.5133 14.3855C99.7338 14.3176 99.8016 14.3516 99.7338 14.4703C99.5981 14.6739 99.7508 14.7078 100.735 14.6908C101.108 14.6739 101.294 14.7078 101.159 14.7757C100.752 14.9453 100.48 15.2845 100.429 15.7086C100.395 15.9291 100.26 16.0988 100.124 16.0988C99.9882 16.0988 99.615 16.3193 99.2758 16.5737C98.6482 17.0487 98.3428 17.1674 98.5294 16.8621C98.5803 16.7603 98.5294 16.6925 98.3937 16.6925C98.1053 16.6925 97.4947 17.3371 97.6643 17.4897C97.7152 17.5576 97.5286 17.7102 97.2233 17.829C96.7992 18.0156 96.6635 18.0156 96.5447 17.846C96.3242 17.4897 96.4769 17.1335 96.9519 16.896C97.9357 16.4211 97.5965 15.3015 96.5617 15.6577C96.0867 15.8104 96.0528 15.8104 96.1546 15.5051C96.2394 15.2337 96.1885 15.1658 95.9171 15.1658C95.527 15.1658 95.4082 14.5721 95.7475 14.4534C95.9002 14.4025 95.9002 14.2837 95.7475 13.9954C95.5948 13.707 95.5779 13.5543 95.7305 13.3847C95.985 13.0794 95.7814 12.4517 95.4252 12.4348C95.2725 12.4348 95.4591 12.2991 95.8662 12.1294C96.2733 11.9768 96.6635 11.7562 96.7144 11.6545C96.7822 11.5527 97.2572 11.4339 97.7661 11.4C98.9196 11.2813 101.515 10.1278 101.142 9.89031C101.006 9.80549 100.599 9.73764 100.226 9.73764C99.8525 9.73764 99.2419 9.68675 98.8687 9.63586C98.0545 9.53408 96.8162 9.77157 96.867 10.043C96.901 10.1448 96.7992 10.1956 96.6465 10.1278C96.5108 10.0769 96.2224 10.1787 96.0189 10.3653C95.8153 10.5519 95.51 10.7554 95.3234 10.8233C95.1199 10.8911 95.035 11.0438 95.1029 11.2473C95.2047 11.6375 94.7127 12.1294 93.9155 12.4517C93.6101 12.5705 93.3557 12.7062 93.3557 12.774C93.3557 12.8419 93.203 12.8928 92.9995 12.9097C92.5245 12.9436 91.829 13.4186 91.829 13.707C91.829 13.8257 91.6424 14.0293 91.405 14.148C91.1166 14.3007 90.9809 14.5042 91.0148 14.7248C91.0487 14.9962 90.9639 15.0979 90.5907 15.1319C90.3024 15.1658 89.9801 15.081 89.7935 14.9114C89.539 14.6908 89.4203 14.6739 89.0132 14.8605C88.7418 14.9792 88.4534 15.1658 88.3855 15.2845C88.3177 15.4033 87.9445 15.5559 87.5883 15.6068C86.8589 15.7256 86.6553 16.1157 87.2829 16.2175C87.4865 16.2514 87.6731 16.3702 87.724 16.5059C87.7749 16.6585 87.6901 16.6925 87.4356 16.6077C87.1812 16.5398 86.9776 16.6246 86.7062 16.896C86.35 17.2692 86.1634 17.3031 84.3992 17.3371C82.8386 17.354 82.4655 17.3201 82.3806 17.0996C82.3298 16.9469 82.1771 16.896 81.9735 16.9469C81.5155 17.0996 81.1593 16.8451 81.5834 16.6755C81.8887 16.5568 81.8887 16.5568 81.5834 16.438C81.3968 16.3532 81.2272 16.3871 81.1423 16.5228C81.0406 16.6755 80.9897 16.6416 80.9388 16.3532C80.9218 16.1327 80.7861 15.9291 80.6504 15.8782C80.5147 15.8274 80.4638 15.8782 80.5147 15.9631C80.5656 16.0479 80.396 16.0988 80.1076 16.0479L79.5987 15.98L80.0567 15.7425C80.379 15.5729 80.5826 15.5559 80.7013 15.6747C80.9218 15.8952 81.1932 15.8952 81.0575 15.6747C81.0066 15.5899 81.0575 15.5559 81.2102 15.6068C81.3459 15.6577 81.4986 15.7934 81.5325 15.9122C81.5834 16.0479 82.0075 16.1327 82.669 16.1497C83.2627 16.1666 83.8395 16.2684 83.9752 16.3702C84.1618 16.5228 84.2975 16.4889 84.5858 16.2005C84.8064 16.0139 85.0778 15.8443 85.1795 15.8443C85.417 15.8443 85.434 15.7425 85.2304 15.3524C85.1117 15.1319 85.1456 15.064 85.4001 15.0471C85.5697 15.0301 85.7224 15.1319 85.7224 15.2676C85.7224 15.4033 85.7732 15.5051 85.8241 15.5051C86.0446 15.5051 86.9098 14.7926 86.9098 14.606C86.9098 14.4194 86.1973 14.0293 85.3492 13.7579C84.9421 13.6222 84.959 13.3508 85.3831 13.1302C85.5697 13.0285 85.7224 12.8419 85.7224 12.7062C85.7224 12.1294 86.4687 11.3322 87.3508 10.942C87.8597 10.7215 88.2668 10.484 88.2668 10.4162C88.2668 10.2296 87.8088 10.0769 87.249 10.0769C86.6553 10.0769 85.7224 10.4331 86.0277 10.5349C86.1295 10.5858 86.2312 10.6876 86.2312 10.7724C86.2312 10.8742 86.0955 10.8742 85.9089 10.7554C85.2474 10.4162 84.5349 10.5519 83.9921 11.1286C83.7038 11.4339 83.4154 11.858 83.3306 12.0616C83.2458 12.2821 83.1101 12.4517 83.0252 12.4517C82.8386 12.4517 82.8726 12.1294 83.0761 11.8071C83.1609 11.6714 83.0931 11.4509 82.9065 11.2473C82.5503 10.8572 81.8209 10.8063 81.8209 11.1795C81.8209 11.5018 81.5834 11.5018 80.6843 11.1625C80.1076 10.942 79.8701 10.925 79.4121 11.0777C78.9711 11.2304 78.9032 11.2304 79.0729 11.0608C79.3612 10.7724 79.3273 10.5858 78.9711 10.5858C78.8014 10.5858 78.547 10.3992 78.4283 10.1617C78.1569 9.65282 77.7837 9.51712 76.5623 9.46623C76.0534 9.44927 74.9 9.38142 74.0179 9.34749C73.1358 9.2966 72.1859 9.2966 71.9314 9.34749ZM104.636 10.8402C104.365 10.9929 103.992 11.3491 103.805 11.6545L103.5 12.1973L103.33 11.7732C103.245 11.5527 103.245 11.3322 103.313 11.3152C103.398 11.2813 103.72 11.1116 104.042 10.925C104.365 10.7554 104.755 10.6028 104.891 10.6028C105.026 10.6028 104.924 10.7045 104.636 10.8402ZM109.352 11.1116C109.437 11.4339 109.538 11.4679 110.183 11.3831C110.811 11.2982 110.845 11.2982 110.488 11.4679C110.251 11.5527 109.725 11.6545 109.301 11.6714C108.555 11.7053 108.538 11.6884 108.843 11.3831C109.013 11.2134 109.097 11.0099 109.046 10.925C108.979 10.8233 109.013 10.7554 109.097 10.7554C109.182 10.7554 109.301 10.925 109.352 11.1116ZM103.076 12.0616C102.923 12.1125 102.906 12.2312 103.025 12.4687C103.211 12.8079 102.974 12.9436 102.77 12.6213C102.617 12.3669 102.804 11.9428 103.059 11.9598C103.228 11.9598 103.228 11.9937 103.076 12.0616ZM113.118 12.2821C113.067 12.3669 112.88 12.4517 112.727 12.4348C112.49 12.4348 112.507 12.4008 112.778 12.2821C113.236 12.0955 113.236 12.0955 113.118 12.2821ZM115.577 13.6391C115.442 13.7239 115.17 13.7918 114.984 13.7918C114.712 13.7748 114.712 13.7579 115.068 13.6391C115.662 13.4525 115.883 13.4525 115.577 13.6391ZM117.341 14.3516C117.257 14.4873 117.307 14.5042 117.528 14.4194C117.715 14.3516 117.901 14.3855 117.969 14.5212C118.071 14.6908 117.816 14.7926 116.985 14.9453C115.662 15.1828 115.374 15.1319 116.51 14.8435C116.934 14.7417 117.257 14.5891 117.257 14.5212C117.223 14.3176 117.274 14.148 117.375 14.148C117.426 14.148 117.409 14.2328 117.341 14.3516ZM100.429 14.4194C100.378 14.4703 100.226 14.4873 100.107 14.4364C99.9713 14.3855 100.022 14.3346 100.209 14.3346C100.395 14.3176 100.497 14.3685 100.429 14.4194ZM116.595 14.5551C116.595 14.5891 116.442 14.6569 116.256 14.7078C116.069 14.7587 115.95 14.7248 116.018 14.6399C116.103 14.4873 116.595 14.4194 116.595 14.5551ZM59.3788 14.7587C59.3279 14.8096 59.1753 14.8265 59.0565 14.7757C58.9208 14.7248 58.9717 14.6739 59.1583 14.6739C59.3449 14.6569 59.4467 14.7078 59.3788 14.7587ZM103.534 14.8265C103.534 14.9114 103.364 14.9962 103.16 14.9962C102.838 14.9962 102.821 14.9622 103.025 14.8265C103.347 14.606 103.534 14.606 103.534 14.8265ZM106.044 14.7757C105.874 14.8096 105.603 14.8096 105.45 14.7757C105.281 14.7248 105.416 14.6908 105.739 14.6908C106.061 14.6908 106.197 14.7248 106.044 14.7757ZM58.0727 14.9962C57.937 15.081 57.6995 15.1488 57.5638 15.1488C57.3941 15.1488 57.4281 15.0979 57.6486 14.9962C58.1066 14.7926 58.378 14.7926 58.0727 14.9962ZM95.052 14.9962C95.052 15.081 94.9841 15.1658 94.8824 15.1658C94.7976 15.1658 94.7127 15.081 94.7127 14.9962C94.7127 14.8944 94.7976 14.8265 94.8824 14.8265C94.9841 14.8265 95.052 14.8944 95.052 14.9962ZM92.1683 15.3694C92.1683 15.4372 91.9817 15.6238 91.7442 15.7765C91.2184 16.1157 91.1844 16.4211 91.6764 16.3023C91.8799 16.2514 91.9817 16.2684 91.8969 16.3362C91.7103 16.4889 90.4211 16.9469 89.7426 17.0996C89.4542 17.1674 89.2167 17.371 89.115 17.6254C88.9962 17.9138 88.8775 18.0156 88.6739 17.9308C88.4025 17.829 88.4025 17.812 88.6909 17.6085C88.8605 17.4728 88.9284 17.3031 88.8435 17.1674C88.7757 17.0487 88.7757 16.9978 88.8605 17.0657C89.0301 17.2183 89.6578 16.896 89.539 16.7094C89.5051 16.6246 89.8104 16.4719 90.2345 16.3702C90.6586 16.2684 90.947 16.0988 90.8961 16.0139C90.8282 15.9122 90.7095 15.8952 90.6077 15.9461C90.5059 16.0139 90.472 15.9291 90.5059 15.7425C90.5398 15.522 90.6925 15.4372 90.93 15.4711C91.1335 15.5051 91.3371 15.4542 91.388 15.3524C91.5067 15.1658 92.1683 15.1658 92.1683 15.3694ZM54.3408 15.5899C53.5605 15.8952 53.1195 15.8952 53.6623 15.6068C53.8998 15.4711 54.273 15.3694 54.5104 15.3694C54.8836 15.3694 54.8497 15.3863 54.3408 15.5899ZM117.952 15.4711C117.952 15.539 117.681 15.5729 117.358 15.539C117.036 15.5051 116.765 15.4372 116.765 15.4033C116.765 15.3694 117.036 15.3354 117.358 15.3354C117.681 15.3354 117.952 15.4033 117.952 15.4711ZM95.6287 16.0479C95.527 16.4041 95.2047 16.7434 95.1029 16.6246C95.0181 16.5398 95.4761 15.6747 95.6118 15.6747C95.6966 15.6747 95.6966 15.8443 95.6287 16.0479ZM108.877 16.0139C108.826 16.0988 108.69 16.1836 108.605 16.1836C108.504 16.1836 108.487 16.0988 108.538 16.0139C108.588 15.9122 108.724 15.8443 108.809 15.8443C108.911 15.8443 108.928 15.9122 108.877 16.0139ZM103.703 16.1836C103.703 16.2684 103.618 16.3532 103.517 16.3532C103.432 16.3532 103.398 16.2684 103.449 16.1836C103.5 16.0818 103.584 16.0139 103.635 16.0139C103.669 16.0139 103.703 16.0818 103.703 16.1836ZM109.929 16.1157C109.878 16.1666 109.725 16.1836 109.606 16.1327C109.471 16.0818 109.521 16.0309 109.708 16.0309C109.895 16.0139 109.996 16.0648 109.929 16.1157ZM98.1902 17.1844C98.1393 17.2862 98.0036 17.371 97.9018 17.371C97.8 17.371 97.8 17.2692 97.9357 17.1165C98.1732 16.8282 98.3767 16.896 98.1902 17.1844ZM87.5883 17.2692C87.5883 17.3031 87.4695 17.371 87.3338 17.4388C87.1981 17.4897 87.0794 17.4558 87.0794 17.371C87.0794 17.2692 87.1981 17.2014 87.3338 17.2014C87.4695 17.2014 87.5883 17.2353 87.5883 17.2692ZM110.285 17.3201C110.115 17.354 109.844 17.354 109.691 17.3201C109.521 17.2692 109.657 17.2353 109.979 17.2353C110.302 17.2353 110.437 17.2692 110.285 17.3201ZM76.732 18.1513C76.732 18.1852 76.5793 18.2191 76.3757 18.2191C76.1891 18.2191 76.0704 18.1513 76.1383 18.0495C76.2231 17.9138 76.732 17.9986 76.732 18.1513ZM88.5552 18.3209C88.5043 18.3718 88.3516 18.3888 88.2329 18.3379C88.0972 18.287 88.1481 18.2361 88.3347 18.2361C88.5212 18.2191 88.623 18.27 88.5552 18.3209ZM64.9427 18.5584C64.7561 18.6263 64.349 18.7959 64.0267 18.9146C63.4669 19.1182 63.4669 19.1351 63.8571 19.2878C64.0776 19.3726 64.6543 19.3896 65.1123 19.3217L65.9605 19.22L65.4176 19.5592C65.1123 19.7458 64.6034 19.8985 64.2133 19.8815C63.399 19.8815 62.7884 20.0511 62.9071 20.2717C62.9919 20.4074 62.6357 20.5091 62.2625 20.4413C62.1947 20.4243 61.8554 20.5431 61.5162 20.6788C61.1769 20.8145 60.8716 20.8993 60.8207 20.8484C60.685 20.7127 61.9911 20.2208 62.2456 20.3226C62.3643 20.3734 62.517 20.3226 62.5848 20.2208C62.7884 19.8985 61.2956 20.2208 60.7528 20.6279C60.3457 20.8993 60.1761 20.9332 59.8877 20.7975C59.5824 20.6448 59.5654 20.6109 59.8199 20.6109C59.9725 20.594 60.1082 20.5091 60.1082 20.4243C60.1082 20.3226 60.2609 20.2547 60.4305 20.2547C60.6171 20.2547 60.8716 20.136 61.0242 20.0003C61.1599 19.8645 61.4144 19.7628 61.584 19.7797C61.7536 19.7797 62.025 19.7797 62.2116 19.7797C62.8393 19.7119 62.1438 19.2369 61.4822 19.2708L60.8716 19.2878L61.4313 19.3557C61.7197 19.3896 61.9742 19.4914 61.9742 19.5931C61.9742 19.678 61.9572 19.7458 61.9402 19.7458C61.9063 19.7288 61.4653 19.6271 60.9564 19.5083L60.0234 19.3048L61.3805 19.0843C62.1268 18.9655 63.2294 18.762 63.8401 18.6432C65.1293 18.3718 65.4176 18.3548 64.9427 18.5584ZM112.185 18.5414C112.185 18.6263 112.388 18.745 112.626 18.7959C113.219 18.9485 112.965 19.1691 112.066 19.2878C111.455 19.3557 111.37 19.3387 111.472 19.0843C111.676 18.5584 112.185 18.1682 112.185 18.5414ZM120.904 18.7111C120.971 18.7959 120.853 18.8298 120.666 18.7789C120.276 18.6771 120.225 18.5584 120.564 18.5584C120.7 18.5584 120.853 18.6263 120.904 18.7111ZM24.9439 18.9994C24.893 19.0503 24.7404 19.0673 24.6216 19.0164C24.4859 18.9655 24.5368 18.9146 24.7234 18.9146C24.91 18.8977 25.0118 18.9485 24.9439 18.9994ZM97.5456 19.6101C97.5456 19.9154 97.5116 20.0681 97.4777 19.9494C97.4268 19.8476 97.2402 19.7458 97.0536 19.7458C96.8501 19.7458 96.7483 19.6949 96.7992 19.6271C96.867 19.5762 96.8331 19.4235 96.7313 19.2878C96.5787 19.1182 96.6465 19.0673 97.0367 19.0673C97.4947 19.0673 97.5456 19.1182 97.5456 19.6101ZM93.4405 20.1868C93.7798 20.4413 93.7798 20.4583 93.3727 20.3904C93.1352 20.3565 92.9316 20.2377 92.8807 20.119C92.7959 19.8476 93.0334 19.8645 93.4405 20.1868ZM21.3478 21.2725C21.2969 21.3573 21.1442 21.4421 21.0424 21.4421C20.9237 21.4421 20.9407 21.3743 21.0933 21.2725C21.4156 21.0689 21.4835 21.0689 21.3478 21.2725ZM106.417 21.4591C106.417 21.5439 106.298 21.6117 106.163 21.6117C106.01 21.6117 105.959 21.51 106.01 21.3573C106.112 21.1028 106.417 21.1707 106.417 21.4591ZM108.538 22.7991C108.487 22.884 108.368 22.9688 108.266 22.9688C108.181 22.9688 108.114 22.884 108.114 22.7991C108.114 22.6974 108.232 22.6295 108.385 22.6295C108.521 22.6295 108.588 22.6974 108.538 22.7991ZM64.5695 24.8177C64.8579 25.0722 65.723 24.9704 66.8086 24.5972C66.9952 24.5294 66.7747 24.682 66.2997 24.9365C65.8417 25.1909 65.0784 25.4623 64.6034 25.5302C64.1454 25.615 63.6705 25.7846 63.5856 25.9203C63.3651 26.2087 60.8207 26.4462 60.4475 26.1917C60.227 26.0391 60.227 26.0221 60.4475 26.0052C60.5832 25.9882 60.8376 26.0052 61.0073 26.0221C61.1769 26.0391 61.5162 25.9203 61.7706 25.7507C62.025 25.5811 62.5 25.4115 62.8223 25.3436C63.3482 25.2588 63.416 25.1909 63.4669 24.716C63.5178 24.2071 63.5517 24.1732 63.891 24.3767C64.0945 24.4954 64.3999 24.682 64.5695 24.8177ZM113.83 25.4454C113.779 25.4963 113.626 25.5132 113.508 25.4623C113.372 25.4115 113.423 25.3606 113.61 25.3606C113.796 25.3436 113.898 25.3945 113.83 25.4454ZM26.3519 26.1239C26.3519 26.1578 26.2331 26.1917 26.0974 26.1917C25.9617 26.1917 25.843 26.1239 25.843 26.0221C25.843 25.9373 25.9617 25.9034 26.0974 25.9543C26.2331 26.0221 26.3519 26.09 26.3519 26.1239ZM24.9439 26.2935C24.893 26.3444 24.7404 26.3614 24.6216 26.3105C24.4859 26.2596 24.5368 26.2087 24.7234 26.2087C24.91 26.1917 25.0118 26.2426 24.9439 26.2935ZM24.2315 26.531C24.0788 26.7685 23.4681 27.0738 23.4681 26.9212C23.4681 26.8024 23.8753 26.548 24.2824 26.3783C24.3163 26.3783 24.2824 26.4292 24.2315 26.531ZM18.7694 28.1764C18.6507 28.2103 18.4132 28.2103 18.2605 28.1764C18.0909 28.1255 18.1927 28.0916 18.4641 28.0916C18.7524 28.0916 18.8712 28.1255 18.7694 28.1764ZM19.7363 28.1255C19.7363 28.1595 19.5836 28.2273 19.397 28.2782C19.2104 28.3291 19.0917 28.2952 19.1595 28.2103C19.2444 28.0577 19.7363 27.9898 19.7363 28.1255ZM37.0046 29.4995C36.9537 29.5504 36.852 29.4656 36.8011 29.296C36.6993 29.0585 36.7163 29.0415 36.8859 29.1942C37.0046 29.3129 37.0555 29.4486 37.0046 29.4995ZM37.293 29.9236C37.3439 30.0084 37.3269 30.0932 37.2251 30.0932C37.1403 30.0932 37.0046 30.0084 36.9537 29.9236C36.9028 29.8218 36.9198 29.754 37.0216 29.754C37.1064 29.754 37.2421 29.8218 37.293 29.9236ZM36.4448 30.2629C36.377 30.3646 36.4109 30.5512 36.5127 30.67C36.6484 30.8226 36.6314 30.8905 36.4448 30.8905C36.3091 30.8905 36.2413 30.8226 36.2922 30.7548C36.3261 30.6869 36.2752 30.5682 36.1734 30.5004C36.0377 30.4325 36.0547 30.3477 36.2074 30.2459C36.5127 30.0593 36.5636 30.0593 36.4448 30.2629ZM14.6474 30.4325C14.6474 30.5173 14.6135 30.6021 14.5795 30.6021C14.5286 30.6021 14.4438 30.5173 14.3929 30.4325C14.3421 30.3307 14.376 30.2629 14.4608 30.2629C14.5626 30.2629 14.6474 30.3307 14.6474 30.4325ZM37.8867 31.1958C37.6492 31.4842 37.1064 31.5351 36.9707 31.2976C36.9028 31.2128 37.0046 31.1789 37.1912 31.2298C37.3608 31.2806 37.5644 31.2298 37.6153 31.128C37.6831 31.0262 37.8188 30.9414 37.9206 30.9414C38.0394 30.9414 38.0224 31.0432 37.8867 31.1958ZM37.6492 31.8235C37.7171 31.9252 37.7001 31.9592 37.5814 31.8913C37.4796 31.8404 37.3269 31.9083 37.2421 32.0609C37.1403 32.2475 37.0555 32.2815 36.9707 32.1458C36.9028 32.044 36.9368 31.9592 37.0385 31.9592C37.1403 31.9592 37.1743 31.8744 37.1234 31.7895C37.0725 31.6878 37.1403 31.6199 37.276 31.6199C37.4117 31.6199 37.5814 31.7047 37.6492 31.8235ZM36.5297 32.3663C36.5297 32.4002 36.394 32.5359 36.2413 32.6547C35.9699 32.8752 35.9529 32.8582 36.1734 32.5868C36.394 32.3154 36.5297 32.2306 36.5297 32.3663ZM37.2082 33.0618C37.2082 33.1975 37.1743 33.3162 37.1403 33.3162C37.1064 33.3162 37.0385 33.1975 36.9707 33.0618C36.9198 32.9261 36.9537 32.8073 37.0385 32.8073C37.1403 32.8073 37.2082 32.9261 37.2082 33.0618ZM38.3447 32.9091C38.2938 32.96 38.1411 32.9769 38.0224 32.9261C37.8867 32.8752 37.9376 32.8243 38.1242 32.8243C38.3108 32.8073 38.4126 32.8582 38.3447 32.9091ZM36.3261 34.2152C36.2243 34.4188 36.1225 34.6054 36.1056 34.6224C36.0886 34.6563 36.0717 34.4527 36.0717 34.1813C36.0717 33.8421 36.1395 33.7064 36.2922 33.7742C36.4788 33.8421 36.4788 33.9438 36.3261 34.2152ZM71.9145 36.2169C72.0502 36.4544 71.6431 38.914 71.4565 38.914C71.3717 38.914 71.3038 38.8631 71.3038 38.7783C71.3038 38.7104 71.236 38.5578 71.1511 38.4221C71.0324 38.2355 70.9306 38.2185 70.744 38.3712C70.5744 38.5239 70.5065 38.5239 70.5065 38.3542C70.5065 38.2524 70.4557 37.981 70.3878 37.7605C70.286 37.4721 70.3369 37.3534 70.6592 37.2347L71.0494 37.065H70.6762C70.1673 37.0481 70.1842 36.9463 70.761 36.4544C71.2529 36.0133 71.7279 35.9116 71.9145 36.2169ZM114.39 36.0981C114.39 36.1321 114.135 36.2508 113.847 36.3526C113.338 36.5222 113.321 36.5053 113.61 36.2847C113.915 36.0473 114.39 35.9455 114.39 36.0981ZM36.6993 36.7088C36.6993 36.7936 36.6654 36.8784 36.6314 36.8784C36.5805 36.8784 36.4957 36.7936 36.4448 36.7088C36.394 36.607 36.4279 36.5392 36.5127 36.5392C36.6145 36.5392 36.6993 36.607 36.6993 36.7088ZM71.4734 39.6773C71.4734 39.7113 71.2529 39.9827 70.9645 40.271C70.6422 40.5933 70.4557 40.6951 70.4557 40.5425C70.4557 40.4067 70.6592 40.1353 70.8967 39.9487C71.3547 39.5925 71.4734 39.5247 71.4734 39.6773ZM38.4974 41.7299C38.4974 41.9165 38.684 42.0861 39.0402 42.2048C39.4812 42.3575 39.5491 42.4423 39.3794 42.6119C39.2268 42.7646 39.2268 42.8155 39.3794 42.8155C39.4982 42.8155 39.583 42.9851 39.583 43.1887C39.583 43.477 39.5321 43.511 39.4303 43.3413C39.3455 43.2056 39.1928 43.1717 39.0741 43.2396C38.9384 43.3244 38.8875 43.2905 38.9384 43.1378C38.9893 43.0021 38.8197 42.6968 38.5822 42.4593C38.1072 42.0013 37.9545 41.4585 38.3108 41.4585C38.4295 41.4585 38.5143 41.5772 38.4974 41.7299ZM80.5147 43.2565C80.6674 43.3074 80.7183 43.494 80.6843 43.7485C80.5826 44.2065 81.1084 44.5796 81.6003 44.3931C81.8548 44.2913 81.8718 44.3252 81.7021 44.5457C81.5834 44.6814 81.5325 44.8511 81.5834 44.9019C81.6512 44.9528 81.6343 45.1394 81.5664 45.3091C81.3968 45.6992 81.3629 45.801 81.3289 46.1233C81.3289 46.259 81.2272 46.3777 81.1254 46.3777C81.0236 46.3777 80.9727 46.259 81.0406 46.1233C81.1084 45.9197 80.9897 45.9028 80.3281 45.9876C79.8871 46.0385 79.3952 46.1572 79.2425 46.242C78.8693 46.4286 78.1399 46.242 78.0212 45.9367C77.9703 45.801 77.8006 45.6992 77.631 45.6992C77.4274 45.6992 77.5123 45.5805 77.9024 45.343C78.53 44.9698 78.4961 44.7493 77.8346 44.9189C77.5631 44.9868 77.4444 45.1055 77.5123 45.2242C77.5801 45.343 77.5631 45.3599 77.4444 45.2921C77.3426 45.2242 77.0034 45.3091 76.698 45.4617C76.3927 45.6314 75.9177 45.8179 75.6294 45.8858C75.358 45.9536 74.9339 46.0724 74.6964 46.1402C74.2723 46.242 74.2723 46.242 74.6116 45.9706C74.9339 45.6822 74.9169 45.6822 74.2384 45.7501C73.8313 45.801 73.509 45.8179 73.509 45.784C73.509 45.6314 75.3919 44.6984 76.1043 44.5118C76.5454 44.3931 76.9525 44.2234 77.0034 44.1556C77.0543 44.0708 77.173 44.0029 77.2917 44.0029C77.3935 44.0029 77.3257 44.1216 77.1391 44.2573C76.9694 44.3931 76.9016 44.5118 77.0203 44.5118C77.3766 44.5118 78.089 44.1895 78.089 44.0199C78.089 43.9181 77.9872 43.8842 77.8515 43.9351C77.7158 43.9859 77.5631 43.9351 77.4783 43.8163C77.4105 43.6976 77.4274 43.6467 77.5123 43.7145C77.5971 43.7654 78.089 43.6636 78.5979 43.494C79.5648 43.1548 80.0906 43.0869 80.5147 43.2565ZM38.9893 43.8502C38.9214 43.9351 38.6331 43.9859 38.3447 43.9859C37.9885 43.969 37.9206 43.9351 38.1411 43.8842C38.3277 43.8333 38.5483 43.7315 38.6331 43.6467C38.8197 43.477 39.108 43.6297 38.9893 43.8502ZM104.127 44.3422C104.263 44.5627 104.042 44.5627 103.703 44.3422C103.483 44.2065 103.483 44.1725 103.737 44.1725C103.89 44.1725 104.076 44.2404 104.127 44.3422ZM105.908 46.6491C105.908 46.6831 105.756 46.717 105.552 46.717C105.366 46.717 105.247 46.6491 105.315 46.5474C105.399 46.4116 105.908 46.4965 105.908 46.6491ZM83.602 46.9714C83.7038 47.0054 83.4154 47.0393 82.9743 47.0393C82.5163 47.0562 82.1601 46.9884 82.1601 46.9205C82.1601 46.8018 83.2118 46.8357 83.602 46.9714ZM80.4638 47.158C80.4638 47.3107 79.3952 48.3115 79.1746 48.3794C78.6149 48.532 78.4283 48.6677 77.8685 49.3293C77.173 50.1605 76.9016 50.7542 76.9016 51.4157C76.9016 51.7041 76.6471 52.0943 76.1552 52.5862C75.341 53.4174 74.883 53.5361 74.8491 52.9424C74.7982 51.9585 75.5446 50.5506 76.9864 48.9561C77.6989 48.1588 77.8515 47.7348 77.2409 48.2776C77.1051 48.3963 77.173 48.2776 77.4105 48.0231C77.6649 47.7348 77.9363 47.5821 78.1229 47.616C78.2756 47.6669 78.547 47.5991 78.7166 47.4803C79.1577 47.175 80.4638 46.9375 80.4638 47.158ZM83.3475 47.6669C83.9073 47.9044 83.9582 47.9044 84.2296 47.5821C84.6537 47.0562 85.1456 47.1241 85.3661 47.7517C85.7732 48.9222 85.0269 49.5837 84.4162 48.5829C84.043 47.9383 83.7038 47.9044 83.8225 48.5151C83.8903 48.8713 83.7886 49.0748 83.3815 49.4311C83.0931 49.6685 82.8047 50.0757 82.7538 50.3301C82.652 50.7033 82.0414 51.297 81.753 51.297C81.7021 51.297 81.6852 50.9747 81.7021 50.5676C81.736 49.94 81.7021 49.8551 81.3968 49.906C81.2102 49.94 80.9388 50.0757 80.7861 50.2114C80.6504 50.3471 80.4638 50.4488 80.379 50.4488C80.3112 50.4488 80.5995 50.1096 81.0406 49.6855C81.4816 49.2614 81.7869 48.8374 81.736 48.7525C81.6852 48.6677 81.7191 48.5659 81.8209 48.4981C82.1092 48.3115 82.0075 48.074 81.5664 47.8705C81.3289 47.7687 81.1423 47.5651 81.1423 47.4294C81.1423 47.2428 81.295 47.2089 81.9566 47.3107C82.3976 47.3785 83.0252 47.5312 83.3475 47.6669ZM83.7546 47.4294C83.7038 47.4973 83.602 47.5651 83.5002 47.5651C83.4154 47.5651 83.3475 47.4973 83.3475 47.4294C83.3475 47.3446 83.4663 47.2768 83.602 47.2768C83.7377 47.2768 83.8055 47.3446 83.7546 47.4294ZM89.2846 50.0587C89.2676 50.6185 88.2498 51.0086 87.1642 50.8729C86.6892 50.8051 86.0107 50.839 85.6715 50.9238C84.8572 51.1443 84.8572 50.8899 85.6884 50.4997C86.0955 50.2962 86.7062 50.1944 87.4695 50.1944C88.0972 50.1944 88.6061 50.1435 88.6061 50.0587C88.6061 49.9908 88.7587 49.94 88.9453 49.94C89.1319 49.94 89.2846 49.9908 89.2846 50.0587ZM85.3831 51.7211C85.3831 51.8398 84.043 52.5014 82.8386 52.9424C81.1932 53.57 80.4977 53.7057 80.1246 53.5022C79.6835 53.2647 79.6835 52.9933 80.1246 52.9933C80.3112 52.9933 80.4638 53.0951 80.4638 53.1968C80.4638 53.3665 80.4977 53.3665 80.5995 53.2138C80.6674 53.0951 81.1763 52.7728 81.736 52.5014C82.5503 52.0773 82.8726 52.0094 83.5172 52.0773C84.06 52.1451 84.2126 52.1282 84.043 52.0094C83.8564 51.8737 83.9243 51.8228 84.3823 51.755C84.7046 51.7211 85.0608 51.6702 85.1795 51.6702C85.2813 51.6532 85.3831 51.6702 85.3831 51.7211ZM81.0575 52.654C81.0066 52.7388 80.8031 52.8237 80.6165 52.8237C80.4469 52.8237 80.2942 52.7388 80.2942 52.654C80.2942 52.5523 80.4977 52.4844 80.7352 52.4844C80.9727 52.4844 81.1254 52.5523 81.0575 52.654ZM85.8072 58.7777C85.9938 59.066 85.7902 59.1339 85.5527 58.8455C85.417 58.6929 85.417 58.5911 85.5188 58.5911C85.6206 58.5911 85.7563 58.6759 85.8072 58.7777ZM85.8072 61.6444C85.8581 61.7462 85.7902 61.7632 85.6545 61.7123C85.3492 61.5935 85.2983 61.4748 85.5358 61.4748C85.6375 61.4748 85.7563 61.5426 85.8072 61.6444ZM65.7908 70.1259C65.8417 70.2107 65.7739 70.2956 65.6212 70.2956C65.4685 70.2956 65.4007 70.2107 65.4516 70.1259C65.5025 70.0241 65.5873 69.9563 65.6212 69.9563C65.6551 69.9563 65.7399 70.0241 65.7908 70.1259ZM67.7077 97.6738C67.8773 98.064 67.8603 98.0809 67.3005 98.064C66.8086 98.0301 66.7577 97.9961 66.9952 97.8265C67.2666 97.6229 67.2666 97.606 67.0122 97.5042C66.8425 97.4533 66.7238 97.2498 66.7238 97.0801C66.7238 96.7748 66.7577 96.7748 67.1139 97.0123C67.3345 97.148 67.6059 97.4533 67.7077 97.6738Z" fill="black"/>
<path d="M94.1191 9.77152C93.6611 9.85634 92.9656 9.94115 92.5924 9.95811C92.2192 9.99204 91.6085 10.1108 91.2523 10.2295C90.7265 10.4161 90.6416 10.484 90.8622 10.6197C91.2693 10.8402 91.0148 11.2643 90.455 11.2643C90.1836 11.2643 89.9631 11.1795 89.9631 11.0946C89.9631 10.8741 89.3524 10.8741 88.9284 11.0946C88.5043 11.3321 88.6909 11.6883 89.4712 12.0785C89.8953 12.282 90.0479 12.4686 90.031 12.757C90.014 13.215 90.0479 13.215 92.1344 12.774C92.9995 12.6043 93.3218 12.4347 93.9494 11.824C94.3735 11.4339 94.7128 10.942 94.7128 10.7554C94.7128 10.5688 94.8315 10.4161 94.9672 10.4161C95.2386 10.4161 95.2556 10.3143 95.0859 9.90723C94.9842 9.68671 94.8145 9.66974 94.1191 9.77152ZM94.3735 10.942C94.594 11.0946 94.594 11.1116 94.3396 11.0437C94.1869 10.9929 94.0342 11.0268 93.9833 11.1455C93.9494 11.2473 93.8816 11.2134 93.8137 11.0437C93.695 10.7214 93.9833 10.6536 94.3735 10.942Z" fill="black"/>
<path d="M18.9391 29.6522C18.4642 29.8558 18.0062 30.0763 17.9383 30.1441C17.8705 30.212 17.65 30.2629 17.4464 30.2629C17.2259 30.2629 16.9714 30.3816 16.8527 30.5173C16.734 30.653 16.5813 30.7378 16.5134 30.6869C16.2929 30.5512 15.326 30.9583 15.1564 31.2637C14.9189 31.7217 15.2073 32.027 15.7671 31.8743C16.0385 31.7895 16.3777 31.7217 16.5134 31.6878C16.6491 31.6538 16.9036 31.569 17.1071 31.4672C17.2937 31.3655 17.7348 31.1789 18.091 31.0432C18.6338 30.8226 18.8034 30.6021 18.7525 30.0932C18.7525 30.0423 19.007 30.0254 19.3293 30.0593C19.8551 30.1272 19.906 30.0932 19.906 29.6861C19.906 29.4486 19.8891 29.2451 19.8721 29.262C19.8382 29.262 19.4311 29.4486 18.9391 29.6522Z" fill="black"/>
<path d="M73 80.4903C72.7625 80.5582 72.2197 80.7108 71.7787 80.8296C71.3376 80.9313 70.8457 81.1688 70.693 81.3385C70.5404 81.5251 70.2859 81.6608 70.1333 81.6608C69.8958 81.6608 69.8958 81.6947 70.1163 81.8304C70.3368 81.9661 70.3029 82.017 69.9976 82.1018C69.4887 82.2375 69.5056 82.4411 70.0145 82.5428C70.252 82.5937 70.5913 82.4919 70.8118 82.3223C71.0323 82.1527 71.3376 82 71.4903 82C71.643 82 71.9313 81.8474 72.1519 81.6608C72.4233 81.4233 72.7625 81.3215 73.2375 81.3385C73.6276 81.3554 73.7973 81.3893 73.6446 81.4402C73.475 81.4742 73.3393 81.5759 73.3393 81.6608C73.3393 81.8134 74.391 82.1696 74.8659 82.1696C75.0016 82.1696 75.5105 82.3562 75.9685 82.5937C76.4774 82.8312 76.9694 82.9669 77.2068 82.8991C77.5122 82.8312 77.58 82.8821 77.58 83.2383C77.58 83.4588 77.6988 83.7472 77.8345 83.8659C77.9702 83.9847 78.0889 84.1713 78.0889 84.29C78.0889 84.4088 78.2077 84.5954 78.3434 84.7141C78.496 84.8328 78.5808 85.0364 78.5299 85.1551C78.4112 85.4435 81.9904 85.3587 82.7537 85.0703L83.2457 84.8668L82.7537 84.4597C82.4654 84.2391 82.0413 84.0525 81.8038 84.0356C81.4985 84.0356 81.3628 83.9508 81.3797 83.7642C81.3967 83.5776 81.1592 83.4079 80.6673 83.2722C79.9548 83.0517 78.9371 82.2036 78.9371 81.7965C78.9371 81.6947 78.8862 81.6438 78.8353 81.7116C78.7674 81.7625 78.6148 81.7116 78.4791 81.5759C78.1907 81.2706 77.6818 81.2367 77.8514 81.5251C77.9362 81.6608 77.8854 81.6777 77.6818 81.6099C77.5122 81.542 77.2747 81.4911 77.139 81.4911C77.0033 81.4911 76.9185 81.4063 76.9524 81.2876C77.0542 80.7787 74.0348 80.168 73 80.4903ZM79.1915 84.3748C79.2594 84.4766 79.0728 84.5445 78.7844 84.5445C78.496 84.5445 78.2585 84.4597 78.2585 84.3748C78.2585 84.2731 78.4451 84.2052 78.6657 84.2052C78.9031 84.2052 79.1406 84.2731 79.1915 84.3748Z" fill="black"/>
<path d="M84.2295 85.2229C83.6698 85.4943 83.6528 85.7318 84.2295 85.7318C84.4501 85.7318 84.5349 85.8675 84.5349 86.2068C84.5349 86.4612 84.6197 86.7666 84.7384 86.8853C85.0607 87.2076 84.4331 87.3263 83.3984 87.1398C82.5841 86.9871 82.4654 87.004 82.3297 87.2755C82.194 87.5129 82.2618 87.6317 82.7029 87.8352C83.2796 88.1236 83.585 88.1915 83.4492 87.9709C83.4153 87.9031 83.8224 87.8352 84.3822 87.8522C85.3152 87.8522 85.4509 87.9031 85.7562 88.3272L86.0955 88.8021L86.5196 88.2084C86.9267 87.5978 87.1641 87.462 87.2829 87.7674C87.3168 87.8692 87.5204 87.8352 87.8087 87.6826C88.3007 87.4281 89.3354 87.479 89.4202 87.7674C89.4542 87.8522 89.6068 87.937 89.7595 87.937C89.8952 87.937 89.963 87.8861 89.9122 87.8183C89.8443 87.7674 89.9291 87.6147 90.0987 87.496C90.3702 87.2924 90.3362 87.2246 89.7595 86.6648C89.4202 86.3425 88.9792 86.0711 88.7926 86.0711C88.589 86.0711 88.4364 85.9693 88.4364 85.8336C88.4364 85.4943 87.0454 85.1551 86.1294 85.3077C85.5696 85.3926 85.2813 85.3586 85.0777 85.172C84.8233 84.9685 84.7045 84.9854 84.2295 85.2229Z" fill="black"/>
</svg>
