<svg width="61" height="100" viewBox="0 0 61 100" fill="none" xmlns="http://www.w3.org/2000/svg">
<path d="M12.8148 0.084462C12.5264 0.18624 12.3398 0.372833 12.3398 0.559426C12.3398 0.729056 12.238 0.86476 12.1023 0.86476C11.9836 0.86476 11.6782 1.01743 11.4408 1.20402C11.1863 1.40758 10.7622 1.54328 10.406 1.54328C10.0159 1.54328 9.74445 1.62809 9.69356 1.79772C9.62571 1.96735 9.45608 2.01824 9.2186 1.95039C8.52312 1.78076 7.59015 3.17173 7.74282 4.12166C7.74282 4.20647 7.67497 4.25736 7.57319 4.25736C7.35267 4.25736 6.91163 4.68143 6.91163 4.88499C6.91163 4.96981 6.69111 5.17336 6.40274 5.32603C6.04652 5.54655 5.94474 5.71618 6.01259 5.91973C6.08044 6.0724 5.79207 5.85188 5.368 5.41084C4.7234 4.73232 3.65473 4.08773 3.16281 4.08773C3.07799 4.08773 3.01014 4.30825 3.01014 4.56269C3.01014 4.90195 3.12888 5.12247 3.43422 5.27514C3.65473 5.39388 3.89222 5.64833 3.96007 5.81796C4.01096 6.00455 4.1297 6.0724 4.24844 6.00455C4.38414 5.9367 4.36718 5.98759 4.23148 6.15722C3.97703 6.47951 4.11274 7.19196 4.48592 7.51426C4.62163 7.633 4.82518 7.92137 4.92696 8.15885C5.16444 8.71863 5.24926 11.6702 5.0457 11.8059C4.92696 11.8737 4.94392 12.0264 5.06266 12.2469C5.24926 12.6201 4.97785 13.7566 4.68948 13.7566C4.60466 13.7566 4.53681 13.8584 4.53681 13.9772C4.53681 14.0959 4.2654 14.2995 3.94311 14.4352C3.51903 14.6048 3.3494 14.7744 3.3494 15.0458C3.3494 15.2494 3.23066 15.4529 3.09496 15.5208C2.90836 15.5886 2.85747 15.7413 2.92533 16.0127C3.0271 16.3689 2.94229 16.4538 2.26377 16.7082C1.5174 16.9966 1.48347 17.0475 1.48347 17.6581C1.48347 18.0652 1.39866 18.3366 1.22903 18.4045C1.09332 18.4554 0.974581 18.6929 0.974581 18.9134C0.974581 19.1678 0.838877 19.4223 0.635321 19.5241C0.448728 19.6258 0.329987 19.7785 0.380876 19.8803C0.601395 20.2195 0.618358 21.39 0.414802 21.39C0.296061 21.39 0.465691 21.6105 0.771025 21.8819C1.0594 22.1533 1.31384 22.4587 1.31384 22.5604C1.31384 22.6622 1.39866 22.747 1.48347 22.747C1.58525 22.747 1.6531 22.6622 1.6531 22.5435C1.6531 22.4417 1.68703 22.3908 1.73792 22.4417C1.87362 22.5774 1.63614 23.0863 1.43258 23.0863C1.3308 23.0863 0.957618 23.4086 0.584432 23.7987C-0.00927328 24.4603 -0.0601623 24.596 0.0416157 25.2067C0.0925047 25.5799 0.245172 26.0039 0.380876 26.1566C0.669247 26.4619 0.720136 26.8181 0.465691 26.8181C0.0246527 26.8181 0.380876 27.344 1.04243 27.6833C1.60221 27.9547 1.90755 28.277 2.26377 28.9216C2.51821 29.3965 2.8914 30.0072 3.09496 30.2956C3.29851 30.567 3.70562 31.3812 4.02792 32.0767C4.33325 32.7722 4.7234 33.5525 4.91 33.8069C5.07963 34.0444 5.21533 34.3667 5.21533 34.4854C5.21533 34.6211 5.368 34.8756 5.55459 35.0452C5.74118 35.2148 5.89385 35.4862 5.89385 35.6559C5.89385 35.8255 5.9617 35.9951 6.04652 36.046C6.40274 36.2665 7.43748 38.0477 7.35267 38.2851C7.2 38.6922 7.55622 39.3538 8.38741 40.185C9.18467 40.9992 11.4916 42.458 12.4755 42.7803C12.7639 42.8821 13.0183 43.0178 13.0183 43.0857C13.0183 43.1535 13.2897 43.3571 13.612 43.5437C13.9343 43.7133 14.2057 43.9169 14.2057 44.0017C14.2057 44.1713 14.6468 44.6293 14.7994 44.6293C15.1048 44.6293 15.6645 45.4096 15.8511 46.122C16.3431 47.954 16.7162 51.9234 16.377 51.9234C16.3091 51.9234 16.2413 52.11 16.2413 52.3475C16.2413 52.5849 16.2922 52.7715 16.377 52.7715C16.6145 52.7715 16.818 59.7094 16.5805 60.3031C16.4788 60.5745 16.5127 60.8459 16.6993 61.1852C16.8689 61.5414 16.9198 61.9316 16.835 62.5422C16.7502 63.2038 16.818 63.577 17.0894 64.2046C17.276 64.6456 17.4287 65.1545 17.4287 65.3411C17.4287 65.5107 17.5135 65.6634 17.5983 65.6634C17.7001 65.6634 17.7849 65.9857 17.768 66.3759C17.768 66.783 17.768 67.2579 17.7849 67.4445C17.8019 67.8008 17.6662 69.7685 17.5135 71.1764C17.4796 71.6344 17.4287 72.2111 17.4287 72.4317C17.4287 72.72 17.3608 72.8048 17.1573 72.72C16.9368 72.6352 16.9028 72.7031 17.0046 73.0762C17.0555 73.3477 17.2251 73.67 17.3608 73.8226C17.4965 73.9583 17.5983 74.1958 17.5983 74.3145C17.5983 74.4333 17.8019 74.8743 18.0394 75.2984C18.3447 75.8243 18.4465 76.1805 18.3786 76.5197C18.226 77.3 18.4634 78.674 18.8197 79.0642C18.9893 79.2508 19.0571 79.4034 18.9384 79.4034C18.8197 79.4034 18.7857 79.5731 18.8536 79.9123C18.9045 80.1837 19.0062 80.6757 19.0571 80.964C19.2437 81.9649 19.7865 82.2702 20.1428 81.5917C20.2954 81.3372 20.2785 81.1846 20.1258 80.998C20.024 80.8623 19.9901 80.7605 20.058 80.7605C20.1258 80.7605 20.0919 80.6417 19.9731 80.506C19.8544 80.3703 19.8205 80.2516 19.9053 80.2516C19.9731 80.2516 19.9562 80.1668 19.8374 80.048C19.5491 79.7597 19.583 79.5222 19.9053 79.6409C20.1088 79.7257 20.1597 79.6749 20.0749 79.4883C20.024 79.3356 20.041 79.2677 20.1428 79.3186C20.2445 79.3695 20.3124 79.5391 20.3124 79.6749C20.3124 79.8106 20.3972 79.9123 20.499 79.9123C20.5838 79.9123 20.6347 79.9802 20.5838 80.048C20.5329 80.1329 20.5668 80.4552 20.6517 80.7774C20.7365 81.0997 20.8383 81.7274 20.9061 82.1854C20.957 82.6603 21.0927 83.0844 21.1945 83.1523C21.3471 83.254 21.3132 83.3219 21.0757 83.4067C20.8891 83.4746 20.6856 83.5594 20.6347 83.5763C20.5838 83.6103 20.5499 83.4237 20.5838 83.1692C20.6347 82.7112 20.4311 82.4568 20.0071 82.4568C19.8714 82.4568 19.8374 82.5416 19.9223 82.6603C20.1428 83.0335 20.1258 83.3049 19.8714 83.3049C19.7526 83.3049 19.566 83.4576 19.4643 83.6272C19.2607 84.0343 19.2437 84.3397 19.4473 84.0004C19.6678 83.6442 20.3124 84.0683 20.3124 84.5772C20.3124 84.8146 20.2276 85.0012 20.1258 85.0012C20.0071 85.0012 19.9731 85.1878 20.024 85.5101C20.0919 85.8324 20.041 86.0869 19.8883 86.2565C19.7526 86.3922 19.6848 86.6297 19.7357 86.7654C19.8544 87.0877 20.2615 87.1216 20.3463 86.8502C20.3972 86.6975 20.516 86.6975 20.7874 86.8502C20.9909 86.9689 21.2454 87.0029 21.3302 86.952C21.432 86.9011 21.4489 86.9689 21.398 87.1046C21.3471 87.2573 21.3641 87.3761 21.4659 87.3761C21.7712 87.3761 21.415 88.2921 21.0248 88.4956C20.8213 88.5974 20.7025 88.7331 20.7874 88.8009C20.8552 88.8688 20.9061 88.9875 20.9061 89.0384C20.94 89.3777 21.2114 89.9205 21.3471 89.9205C21.432 89.9205 21.4828 89.9714 21.4659 90.0392C21.432 90.2767 21.7882 91.0231 22.0596 91.2606C22.2123 91.3793 22.3819 91.7016 22.4328 91.973C22.5006 92.2444 22.6194 92.4819 22.7042 92.4819C22.789 92.4989 22.9586 92.5158 23.0774 92.5328C23.1791 92.5328 23.3318 92.8551 23.3827 93.2283C23.4336 93.6015 23.5014 93.822 23.5184 93.7372C23.5354 93.6354 23.705 93.822 23.9086 94.1273C24.18 94.5684 24.3496 94.6701 24.638 94.6023C24.8754 94.5344 25.1469 94.6362 25.4183 94.8907C25.6388 95.0942 25.8763 95.2469 25.9441 95.213C26.0289 95.196 26.0798 95.2639 26.0798 95.3656C26.0798 95.5522 25.8593 95.5183 25.1469 95.2639C24.9263 95.179 24.9942 95.3147 25.3843 95.671C25.7914 96.0611 25.995 96.1629 26.0798 96.0102C26.2664 95.7388 26.6057 95.9763 26.47 96.2986C26.4191 96.4343 26.436 96.5361 26.5209 96.5191C26.8092 96.4513 27.2672 96.7396 27.2672 96.9771C27.2672 97.1298 27.4538 97.2146 27.7761 97.2146C28.1663 97.2146 28.2511 97.1467 28.1663 96.9432C28.1154 96.7905 27.9458 96.7057 27.7592 96.7566C27.5726 96.8075 27.4369 96.7736 27.4369 96.6887C27.4369 96.3664 28.1154 96.553 28.302 96.9093C28.4207 97.1298 28.4886 97.3333 28.4716 97.3842C28.4546 97.4351 28.5564 97.5369 28.726 97.6387C28.8957 97.7235 29.1332 97.9101 29.2689 98.0288C29.5572 98.3002 29.8117 98.3002 29.8117 98.0119C29.8117 97.8762 29.8626 97.8931 29.9813 98.0627C30.0661 98.1984 30.2018 98.3172 30.2697 98.3342C30.3375 98.3342 30.6259 98.4359 30.8803 98.5377C31.1518 98.6565 31.4232 98.7073 31.508 98.6565C31.5928 98.6056 31.6946 98.6395 31.7624 98.7413C31.8303 98.843 31.949 98.877 32.0338 98.8261C32.1186 98.7582 32.1865 98.7922 32.1865 98.8939C32.1865 98.9957 32.5258 99.0636 32.9498 99.0466C33.3739 99.0466 33.8319 99.1314 33.9676 99.2502C34.1203 99.3689 34.2899 99.4198 34.3578 99.3519C34.4256 99.2841 34.3238 99.1145 34.1542 98.9957C33.8828 98.7752 33.9507 98.7582 34.8158 98.8261C35.613 98.877 35.7657 98.86 35.6809 98.6565C35.63 98.5038 35.6978 98.402 35.8505 98.402C35.9862 98.402 36.1389 98.2833 36.1898 98.1476C36.2576 98.0119 36.3764 97.8931 36.4612 97.8931C36.563 97.8931 36.546 97.9949 36.4273 98.1476C36.2576 98.3511 36.2576 98.402 36.4951 98.402C36.6478 98.402 36.7665 98.2663 36.7665 98.0627C36.7665 97.7913 36.6478 97.7235 36.1728 97.7235C35.2907 97.7235 33.4587 96.7566 32.4579 95.7727C31.966 95.2808 31.6098 94.8058 31.6437 94.7041C31.6776 94.6023 31.491 94.3987 31.2535 94.2291C30.6938 93.8559 29.8117 92.6007 29.8117 92.1427C29.8117 91.9052 29.9474 91.7525 30.2358 91.6847C30.7446 91.5659 30.8973 91.1418 30.6598 90.5142C30.4563 89.9884 30.5411 89.8357 31.4571 89.0215C31.7794 88.7331 31.966 88.4447 31.8981 88.326C31.8303 88.2242 31.7455 87.9867 31.7285 87.8171C31.6437 87.2912 31.3384 87.0368 30.8125 87.0368C30.2697 87.0368 29.201 86.4601 28.9805 86.036C28.5903 85.3405 29.2519 84.3227 30.1001 84.3227C30.5241 84.3227 30.7616 84.0683 30.4732 83.8817C30.3375 83.7969 30.3545 83.729 30.5072 83.6442C30.6768 83.5255 30.6598 83.3558 30.4393 82.796L30.1679 82.0666L30.6768 81.5917C30.9652 81.3203 31.3044 81.0997 31.4401 81.0997C31.7115 81.0997 31.7455 80.7096 31.508 80.2516C31.3553 79.9802 31.2026 79.9293 30.592 80.0141L29.8456 80.1159L29.4385 79.2169C29.201 78.708 29.0823 78.2669 29.1671 78.25C29.2519 78.216 29.6251 78.3009 29.9983 78.4535C30.7955 78.7758 31.3384 78.7928 31.9321 78.5214C32.3731 78.3348 32.5088 77.8259 32.1695 77.6054C32.0508 77.5375 32.0338 77.2661 32.1017 76.9099C32.1865 76.4688 32.1356 76.2314 31.9151 75.9939C31.6267 75.6716 31.6267 75.6546 31.9321 75.7734C32.1526 75.8582 32.2035 75.8412 32.1186 75.7055C32.0338 75.5528 32.2204 75.502 32.7802 75.502C34.5952 75.502 36.9361 74.6538 36.9361 74.0092C36.9361 73.8396 37.004 73.636 37.0888 73.5512C37.6825 72.8897 37.5977 71.4308 36.9531 71.4308C36.6138 71.4308 36.4273 71.1255 36.4273 70.5148C36.4273 70.0738 36.0201 69.6667 35.2059 69.2596C34.9006 69.0899 34.6122 68.8185 34.5783 68.6319C34.5274 68.3096 34.5274 68.3096 34.8497 68.5811C35.0363 68.7507 35.4264 68.8864 35.7148 68.8864C36.0201 68.8864 36.2576 68.9542 36.2576 69.0391C36.2576 69.2596 37.0549 69.4462 38.2084 69.4801C39.6163 69.5479 40.2439 69.1748 40.4305 68.2248C40.4984 67.9365 40.5832 67.699 40.651 67.699C40.8546 67.699 41.2956 66.783 41.4144 66.1553C41.4822 65.7652 41.7367 65.375 42.1099 65.0358C42.5339 64.6626 42.6696 64.4251 42.5848 64.2046C42.483 63.9502 42.4661 63.9502 42.3473 64.2894C42.2116 64.6287 41.7536 64.934 41.601 64.7813C41.5501 64.7474 41.7027 64.4421 41.9402 64.1367C42.1777 63.8145 42.3643 63.3904 42.3643 63.2038C42.3643 62.9833 42.4661 62.8306 42.6357 62.8306C42.8223 62.8306 42.8732 62.9493 42.8223 63.2207C42.7884 63.4413 42.8562 63.6448 42.975 63.6957C43.1276 63.7466 43.2633 63.543 43.399 63.0681C43.8401 61.4736 43.9419 61.2361 44.4168 60.7272C45.0784 60.0317 45.2989 58.9121 44.9936 58.0131C44.773 57.4024 44.7052 55.4856 44.8918 55.5365C45.0275 55.5704 46.4354 54.1286 46.4354 53.9589C46.4354 53.8741 46.6729 53.7724 46.9443 53.7045C47.2327 53.6367 47.4532 53.5179 47.4532 53.4161C47.4532 53.3144 47.6737 53.2804 48.0469 53.3483C48.4201 53.4161 48.6406 53.3992 48.6406 53.2804C48.6406 53.1956 48.5558 53.1108 48.454 53.1108C48.3692 53.1108 48.3183 53.0429 48.3692 52.9581C48.5558 52.6698 50.6762 52.0761 51.5752 52.0761C52.4403 52.0591 52.5082 52.0252 52.593 51.6011C52.6608 51.3466 52.9153 51.0413 53.2376 50.8547C53.6617 50.6172 53.7465 50.4815 53.6617 50.1762C53.5768 49.8369 53.8822 49.0397 54.8491 47.1568C55.0017 46.8684 55.0357 46.4274 54.9848 45.8676C54.9 45.206 54.9339 44.9686 55.1883 44.7311C55.4767 44.4427 55.6803 43.0517 55.6294 41.6608C55.6294 41.3724 55.5954 40.3885 55.5615 39.4556C55.4937 37.8441 55.6124 37.3352 56.0365 37.3352C56.2231 37.3352 56.5963 36.8094 56.9694 35.9782C57.5631 34.6381 57.6989 34.4176 58.106 34.0444C58.6318 33.5525 59.9719 31.6865 60.1754 31.1607C60.5656 30.1429 60.5486 28.9216 60.1246 27.4288C59.8871 26.6146 59.6496 25.9021 59.5987 25.8513C59.5309 25.7834 59.0389 25.6816 58.4961 25.6138C57.4105 25.495 57.3935 25.4781 56.0195 24.155C55.5106 23.68 54.6794 23.0354 54.1536 22.747C53.3054 22.2551 53.1528 22.2212 52.4742 22.3738C51.9314 22.4926 51.6261 22.4587 51.2868 22.289C51.0324 22.1533 50.761 22.1024 50.6592 22.1533C50.5744 22.2212 50.303 22.1533 50.0825 22.0007C49.5736 21.6614 48.5728 21.4748 48.7254 21.7462C48.8102 21.8819 48.7254 21.8989 48.454 21.8141C47.9621 21.6444 47.6568 21.3561 47.7416 21.1186C47.7755 20.9998 47.6907 20.7963 47.538 20.6606C47.4023 20.5079 47.2836 20.3213 47.2836 20.2195C47.2836 20.1178 47.2157 20.0329 47.1139 20.0329C47.0291 20.0329 46.9443 20.1008 46.9443 20.2026C46.9443 20.3892 45.7399 19.8803 45.5533 19.6089C45.4855 19.5071 45.4176 19.5071 45.4176 19.5919C45.4176 19.6767 45.3159 19.6428 45.1802 19.541C44.9427 19.3544 44.5186 19.2187 43.7722 19.1C43.3142 19.0321 42.7205 19.4392 42.517 19.9821C42.2456 20.6945 42.1947 20.3383 42.4491 19.6089C42.7884 18.625 42.7714 18.5572 42.0759 18.4554C41.6858 18.3875 41.3465 18.2009 41.2108 17.9974C41.0921 17.8108 40.9055 17.6581 40.7698 17.6581C40.5323 17.6581 40.5323 17.4206 40.7698 16.4368C40.8376 16.0975 40.7698 15.8431 40.4814 15.4699C40.2609 15.1985 39.9895 14.961 39.9047 14.961C39.7011 14.944 39.311 13.6379 39.311 12.9424C39.311 12.5523 38.6494 11.3988 38.6324 11.755C38.6324 11.8229 38.2084 11.4666 37.6655 10.9577C37.1397 10.4489 36.6308 10.0248 36.5121 10.0248C36.3933 10.0248 36.071 9.90604 35.7657 9.75337C35.155 9.44804 33.1873 9.27841 33.0347 9.51589C32.8481 9.82122 31.5928 9.3293 30.8634 8.65078C30.4563 8.29455 30.0492 7.98922 29.9643 7.98922C29.8795 7.98922 29.8117 7.81959 29.8117 7.59907C29.7947 7.39551 29.659 7.05625 29.4894 6.8527C29.0144 6.27596 27.6235 5.4787 27.2842 5.56351C26.911 5.66529 26.6566 5.34299 26.8771 5.05462C27.1315 4.71536 27.0297 4.35914 26.6396 4.17254C26.4191 4.08773 26.2495 3.95203 26.2495 3.88417C26.2495 3.79936 26.1137 3.74847 25.9441 3.74847C25.7745 3.74847 25.537 3.64669 25.4352 3.54491C25.2656 3.37528 25.1808 3.37528 25.062 3.57884C24.9603 3.73151 24.8924 3.74847 24.8924 3.62973C24.8924 3.52795 24.8415 3.32439 24.7906 3.17173C24.7228 3.0021 24.7737 2.90032 24.9263 2.90032C25.062 2.90032 25.3165 2.78158 25.5031 2.64587C25.7914 2.39143 25.6897 2.39143 24.2139 2.45928C23.3318 2.51017 22.5515 2.56106 22.4837 2.56106C22.3988 2.56106 22.348 2.66284 22.348 2.78158C22.348 2.91728 22.1614 3.10388 21.9408 3.22262C21.432 3.49402 20.3124 3.18869 20.3124 2.78158C20.3124 2.56106 20.1088 2.5441 18.8705 2.64587L17.4287 2.76462V2.32358C17.4287 1.83165 16.6145 1.20402 15.9529 1.20402C15.6645 1.20402 15.5628 1.10224 15.5628 0.813871C15.5628 0.321944 15.444 0.18624 15.1217 0.304981C14.986 0.35587 14.8842 0.627278 14.8842 0.966538C14.8842 1.4415 14.8164 1.56024 14.4262 1.64506C14.1548 1.71291 13.7308 1.91647 13.4593 2.10306C13.0353 2.40839 12.9674 2.40839 13.0692 2.17091C13.1201 2.01824 13.1031 1.88254 13.0183 1.88254C12.9165 1.88254 12.8487 1.72987 12.8487 1.54328C12.8487 1.33972 12.9674 1.20402 13.1201 1.20402C13.4254 1.20402 13.8495 0.746019 13.8665 0.406759C13.8665 0.067499 13.3067 -0.119094 12.8148 0.084462ZM13.5272 4.08773C13.5272 4.49484 13.2558 4.93588 13.0183 4.93588C12.9505 4.93588 12.7978 4.64751 12.6791 4.27432C12.4925 3.69758 12.5094 3.57884 12.7808 3.25654L13.0862 2.90032L13.3067 3.29047C13.4254 3.49402 13.5102 3.85025 13.5272 4.08773ZM16.6993 41.2876C16.9368 41.559 17.0216 41.7626 16.9198 41.9152C16.8011 42.1188 16.7502 42.1018 16.6484 41.8643C16.5975 41.7117 16.4448 41.576 16.3261 41.576C16.2074 41.576 16.0716 41.4233 16.0208 41.2367C15.902 40.7787 16.2413 40.8126 16.6993 41.2876ZM49.4888 52.2626C49.4888 52.3475 49.4548 52.4323 49.4209 52.4323C49.37 52.4323 49.2852 52.3475 49.2343 52.2626C49.1834 52.1609 49.2174 52.093 49.3022 52.093C49.4039 52.093 49.4888 52.1609 49.4888 52.2626ZM43.1616 63.3225C43.1107 63.4582 43.0598 63.4073 43.0598 63.2207C43.0428 63.0342 43.0937 62.9324 43.1446 63.0002C43.1955 63.0511 43.2125 63.2038 43.1616 63.3225ZM30.9143 80.9301C30.9652 81.0149 30.8634 81.0997 30.6768 81.0997C30.4732 81.0997 30.3206 81.0149 30.3206 80.9301C30.3206 80.8283 30.4223 80.7605 30.5581 80.7605C30.6938 80.7605 30.8634 80.8283 30.9143 80.9301ZM21.7373 83.729C21.6694 83.8647 21.5677 83.9326 21.4828 83.8817C21.2963 83.7799 21.4489 83.4746 21.6694 83.4746C21.7543 83.4746 21.7882 83.5933 21.7373 83.729ZM21.415 84.3397C21.5846 84.8486 21.415 84.8995 21.1945 84.4075C21.0927 84.17 21.0757 83.9835 21.1606 83.9835C21.2454 83.9835 21.3641 84.1361 21.415 84.3397ZM22.1783 84.8995C22.1783 84.9334 22.0596 85.0012 21.9239 85.0691C21.7882 85.12 21.6694 85.0861 21.6694 85.0012C21.6694 84.8995 21.7882 84.8316 21.9239 84.8316C22.0596 84.8316 22.1783 84.8655 22.1783 84.8995ZM29.8117 95.6879C29.8117 96.095 30.1001 96.2647 30.7446 96.2307C31.2366 96.1968 31.2366 96.2138 30.8634 96.4173C30.6598 96.5361 30.5411 96.7057 30.6089 96.8075C30.6938 96.8923 30.592 96.8075 30.4223 96.6209C30.1849 96.3664 30.0831 96.3325 30.0152 96.5021C29.9813 96.6548 29.8626 96.57 29.7099 96.2816C29.4385 95.7388 29.3876 95.1112 29.6421 95.2639C29.7438 95.3147 29.8117 95.5183 29.8117 95.6879ZM28.7091 95.671C28.6582 95.7727 28.4716 95.8576 28.3189 95.8576C28.0984 95.8576 28.0984 95.8236 28.3868 95.6201C28.743 95.3656 28.8957 95.3826 28.7091 95.671Z" fill="black"/>
<path d="M40.2438 93.1265C40.0572 93.2113 39.7858 93.2283 39.6501 93.1774C39.4465 93.1096 39.4296 93.1435 39.6162 93.3301C39.9045 93.6354 39.8706 94.0086 39.5653 93.8899C39.0903 93.7033 39.3108 94.1443 39.8028 94.4157C40.2947 94.6702 40.3117 94.6532 40.8545 94.0256C41.1428 93.6693 41.3294 93.5506 41.2616 93.7372C40.9563 94.5514 40.9563 94.6702 41.2785 94.6702C41.4651 94.6702 41.974 94.4496 42.4151 94.1782C43.1445 93.7542 43.1954 93.6863 42.9409 93.4658C42.7883 93.3301 42.2963 93.2113 41.8723 93.1944C41.4482 93.1944 40.9732 93.1265 40.8375 93.0926C40.7018 93.0417 40.4304 93.0587 40.2438 93.1265Z" fill="black"/>
</svg>
