<svg xmlns="http://www.w3.org/2000/svg" fill="none" viewBox="0 0 24 24">
  <path fill="#fff" d="M5.8 11.95c.883-.633 1.85-1.13 2.9-1.488 1.05-.358 2.15-.537 3.3-.537s2.25.179 3.3.537c1.05.359 2.016.855 2.9 1.488l2.9-2.9a15.088 15.088 0 0 0-4.262-2.263A14.915 14.915 0 0 0 12 6c-1.684 0-3.296.262-4.838.787A15.09 15.09 0 0 0 2.9 9.05l2.9 2.9Zm6.2 8.625a1.1 1.1 0 0 1-.375-.063.872.872 0 0 1-.325-.212L.7 9.7a.93.93 0 0 1-.287-.713.933.933 0 0 1 .312-.687 16.333 16.333 0 0 1 5.238-3.212A16.977 16.977 0 0 1 12 4c2.116 0 4.137.363 6.062 1.088A16.046 16.046 0 0 1 23.275 8.3c.2.183.304.412.313.687a.933.933 0 0 1-.288.713L12.7 20.3c-.1.1-.209.17-.325.212a1.098 1.098 0 0 1-.375.063Z" opacity=".5"/>
</svg>
