<svg width="92" height="62" viewBox="0 0 92 62" fill="none" xmlns="http://www.w3.org/2000/svg">
<path d="M71.2622 0.152691C71.1943 0.237506 70.8381 0.356247 70.431 0.424099C69.7185 0.54284 68.2767 1.15351 68.0901 1.42492C68.0222 1.50973 67.8865 1.50973 67.7847 1.45884C67.683 1.39099 67.5981 1.42492 67.5981 1.50973C67.5981 1.61151 67.6999 1.71329 67.8187 1.71329C67.9204 1.73025 68.2088 1.76418 68.4124 1.78114C68.6499 1.7981 68.9721 1.6624 69.1587 1.45884C69.3623 1.27225 69.4641 1.18743 69.4132 1.28921C69.3453 1.40795 69.4641 1.52669 69.6846 1.59455C70.2104 1.73025 70.3462 1.71329 70.2274 1.52669C70.1765 1.42492 70.2444 1.40795 70.3801 1.45884C70.5327 1.50973 70.6006 1.64544 70.5327 1.74721C70.4649 1.86595 70.872 1.88292 71.8559 1.81507C72.704 1.76418 73.145 1.78114 72.9415 1.86595C72.6701 1.9847 72.7549 2.01862 73.2977 2.01862C73.7896 2.03558 74.0441 1.95077 74.1119 1.78114C74.1628 1.64544 74.3494 1.52669 74.536 1.52669C74.977 1.52669 75.4011 1.35706 75.4011 1.17047C75.4011 1.08566 75.2485 1.0178 75.0788 1.0178C74.8922 1.0178 74.7226 0.949953 74.6887 0.848175C74.6378 0.712471 73.5352 0.54284 72.4496 0.508914C72.1951 0.508914 72.1782 0.458025 72.3478 0.254469C72.5344 0.0339505 72.4665 2.44533e-05 71.9576 2.44533e-05C71.6184 2.44533e-05 71.313 0.0678765 71.2622 0.152691ZM73.2807 1.0178C73.1111 1.2044 72.7719 1.35706 72.5344 1.3401L72.0933 1.32314L72.5174 1.18743C72.7549 1.11958 72.8227 1.03477 72.687 1.0178C72.5513 1.00084 72.6192 0.916027 72.8567 0.848175C73.5352 0.627656 73.603 0.661582 73.2807 1.0178ZM68.9552 1.25529C68.9552 1.30618 68.8873 1.39099 68.7856 1.44188C68.7007 1.49277 68.6159 1.45884 68.6159 1.37403C68.6159 1.27225 68.7007 1.18743 68.7856 1.18743C68.8873 1.18743 68.9552 1.22136 68.9552 1.25529Z" fill="black"/>
<path d="M65.427 0.915964C65.1216 1.01774 64.9181 1.17041 64.9859 1.23826C65.0538 1.30611 65.0199 1.357 64.9181 1.357C64.7993 1.357 64.7145 1.27219 64.7145 1.18737C64.7145 0.983816 63.4932 0.983816 62.2549 1.18737C61.4067 1.30611 61.6442 1.40789 62.7977 1.40789C63.103 1.40789 63.3066 1.47574 63.2557 1.56056C63.2048 1.62841 63.1878 1.69626 63.2218 1.71323C64.1208 1.86589 65.2404 1.86589 65.1556 1.71323C65.0707 1.59448 65.1895 1.52663 65.427 1.52663C65.6984 1.52663 65.7493 1.57752 65.5966 1.6793C65.3252 1.83197 66.1055 2.03552 66.9876 2.03552C67.3947 2.03552 67.4625 1.98463 67.259 1.86589C67.1233 1.76411 66.784 1.74715 66.4956 1.79804C66.0376 1.89982 66.0207 1.88286 66.2242 1.62841C66.343 1.47574 66.5974 1.357 66.784 1.357C66.9536 1.357 67.0554 1.27219 67.0045 1.18737C66.9536 1.08559 66.7501 1.01774 66.5635 1.01774C66.3939 1.01774 66.2412 0.932927 66.2412 0.848112C66.2412 0.644557 66.1394 0.644557 65.427 0.915964Z" fill="black"/>
<path d="M40.1181 1.66236C39.9655 1.83199 39.694 1.86591 39.236 1.79806C38.7272 1.71325 38.5575 1.74717 38.4727 1.96769C38.4218 2.12036 38.4727 2.30695 38.6084 2.39177C38.7441 2.47658 38.7611 2.54443 38.6593 2.54443C38.5575 2.54443 38.3709 2.42569 38.2352 2.27303C38.1165 2.12036 37.862 2.03554 37.6246 2.08643C37.404 2.12036 37.2005 2.1034 37.1496 2.03554C37.1157 1.96769 36.6407 1.95073 36.0979 1.96769C35.5551 2.00162 34.9105 2.01858 34.656 2.03554C34.2829 2.03554 34.215 2.1034 34.2998 2.32391C34.3677 2.49354 34.6051 2.81584 34.8426 3.03636L35.2837 3.44347L34.8257 3.17206C34.5543 3.00243 34.3337 2.95155 34.2659 3.05332C34.215 3.13814 34.4864 3.35866 34.8935 3.56221C35.7417 3.96933 35.8095 3.98629 35.5381 3.64703C35.131 3.1551 36.4032 3.95236 36.8612 4.44429C37.0817 4.7157 37.3871 4.91925 37.5397 4.91925C37.7094 4.93622 38.1335 5.07192 38.5066 5.25851C39.5075 5.75044 39.8976 5.69955 40.0333 5.08888C40.1012 4.80051 40.2538 4.57999 40.3726 4.57999C40.627 4.57999 41.6109 3.73184 41.3734 3.73184C41.2886 3.73184 41.3564 3.64703 41.5261 3.54525C41.8653 3.34169 42.4081 3.4774 42.9679 3.91844C43.3241 4.18984 43.3411 4.22377 43.0527 4.3934C42.7135 4.59696 42.8322 4.63088 43.6125 4.57999C43.9178 4.56303 44.2062 4.63088 44.2741 4.73266C44.3928 4.93622 45.1731 4.81748 45.4615 4.56303C45.5463 4.47822 45.7498 4.41036 45.9364 4.41036C46.1061 4.41036 46.1909 4.32555 46.14 4.24073C46.0891 4.13896 45.8177 4.0711 45.5463 4.0711C45.2749 4.0711 45.0374 3.95236 44.9695 3.7997C44.9017 3.6131 44.7321 3.54525 44.4437 3.59614C44.2062 3.64703 44.0196 3.6131 44.0196 3.54525C44.0196 3.30777 42.476 2.68014 42.1876 2.79888C41.9671 2.88369 41.9501 2.84977 42.1028 2.6971C42.2385 2.5614 42.6286 2.54443 43.375 2.61229C45.1901 2.81584 46.7507 2.71406 46.8694 2.3748C46.9033 2.27303 47.073 2.20517 47.2426 2.20517C47.6836 2.20517 47.8193 1.9168 47.4631 1.73021C46.9712 1.47576 44.9017 1.37399 44.7829 1.59451C44.7321 1.73021 44.6642 1.71325 44.5964 1.56058C44.4437 1.25525 43.6804 1.30613 43.6804 1.62843C43.6804 1.84895 43.6295 1.86591 43.4259 1.69628C43.0697 1.39095 40.4065 1.37399 40.1181 1.66236ZM41.6109 2.51051C41.6618 2.66317 41.5769 2.73103 41.3734 2.68014C41.2207 2.66317 41.0511 2.52747 41.0002 2.40873C40.9493 2.25606 41.0341 2.18821 41.2377 2.2391C41.3903 2.25606 41.56 2.39177 41.6109 2.51051ZM38.2522 3.64703C38.2522 3.69792 38.1165 3.73184 37.9469 3.73184C37.7772 3.73184 37.6246 3.6131 37.6246 3.49436C37.6246 3.30777 37.7094 3.27384 37.9469 3.40955C38.1165 3.49436 38.2522 3.6131 38.2522 3.64703ZM37.0648 4.0711C37.0648 4.15592 36.9969 4.24073 36.8952 4.24073C36.8103 4.24073 36.7255 4.15592 36.7255 4.0711C36.7255 3.96933 36.8103 3.90147 36.8952 3.90147C36.9969 3.90147 37.0648 3.96933 37.0648 4.0711Z" fill="black"/>
<path d="M82.0338 5.03805C81.7963 5.08894 81.4401 5.2416 81.2196 5.37731C80.9481 5.5639 80.117 5.68264 78.6921 5.78442C76.6565 5.92012 75.9271 6.03887 75.7405 6.25938C75.5539 6.49687 74.2817 7.00576 73.9933 6.97183C73.7728 6.9379 73.688 7.02272 73.7219 7.24324C73.8067 7.78605 73.5353 8.24406 72.9755 8.51546L72.4327 8.78687L72.8568 8.9565C73.1112 9.07524 73.1791 9.14309 73.0095 9.14309C72.8568 9.16006 72.5175 9.34665 72.2461 9.58413C71.856 9.90643 71.8221 10.0082 72.0595 10.0082C72.4836 10.0082 72.4158 10.3305 71.9238 10.5171C71.6863 10.6019 71.4998 10.7885 71.4998 10.9242C71.4998 11.2804 71.9578 11.5858 72.3479 11.484C72.5345 11.4331 72.6532 11.467 72.5854 11.5518C72.5345 11.6367 72.7041 11.7893 72.9586 11.8741C73.3148 12.0098 73.4505 12.0098 73.5692 11.8402C73.671 11.6706 73.7049 11.6875 73.7049 11.8911C73.7049 12.2643 74.0612 12.383 75.4012 12.5018C77.4368 12.6544 77.6573 12.6544 77.7421 12.4C77.793 12.2304 77.7421 12.1964 77.5386 12.2643C77.3859 12.3321 77.2841 12.3152 77.335 12.2304C77.3859 12.1625 77.1145 11.9929 76.7583 11.8741C76.3851 11.7554 76.0798 11.6027 76.0798 11.5518C76.0798 11.484 75.8762 11.3144 75.6048 11.1617C75.1468 10.8903 74.8584 10.0082 75.2316 10.0082C75.3334 10.0082 75.4012 9.92339 75.4012 9.83858C75.4012 9.6011 77.1824 7.80302 77.4198 7.80302C77.5216 7.80302 77.7421 7.66731 77.9118 7.49768C78.3019 7.10753 79.0313 6.88702 81.2535 6.44598C84.205 5.85227 84.7987 5.47909 83.4078 5.08894C82.7632 4.91931 82.7123 4.91931 82.0338 5.03805ZM73.3148 8.75295C73.2639 8.80383 73.1112 8.8208 72.9925 8.76991C72.8568 8.71902 72.9077 8.66813 73.0943 8.66813C73.2809 8.65117 73.3826 8.70206 73.3148 8.75295Z" fill="black"/>
<path d="M48.006 11.8911C47.9382 11.9928 47.7685 12.0268 47.6159 11.9589C47.4802 11.908 47.1748 12.0268 46.9373 12.2473C46.6999 12.4678 46.5642 12.5356 46.632 12.4169C46.7168 12.2812 46.5981 12.2133 46.191 12.2133C45.4616 12.2133 44.8509 12.383 44.9527 12.5526C45.0545 12.7222 44.2233 12.9597 43.6974 12.9088C43.409 12.8749 43.3412 12.9258 43.426 13.0954C43.5278 13.2651 43.5108 13.282 43.3242 13.0954C42.9171 12.7222 41.8145 12.8919 41.8145 13.3329C41.8145 13.5874 41.7976 13.5874 41.1869 13.6552C40.4914 13.7231 40.2539 13.8927 40.3387 14.2489C40.3896 14.4355 40.3387 14.6391 40.2539 14.7069C40.1352 14.7748 40.1182 14.7239 40.203 14.5882C40.3048 14.4185 40.237 14.4016 39.8638 14.4864C39.4397 14.5882 39.4058 14.5712 39.5924 14.3507C39.9147 13.9775 39.5924 13.9945 38.6933 14.4355C38.1336 14.6899 37.9639 14.8596 38.0318 15.0462C38.0996 15.2328 38.0657 15.2837 37.947 15.1988C37.7095 15.0631 36.556 15.5211 36.556 15.7586C36.556 15.9961 36.6238 15.9961 37.3193 15.7077C37.6416 15.572 37.913 15.4872 37.913 15.5211C37.913 15.5551 38.1505 15.5211 38.4219 15.4363C38.7273 15.3515 38.9308 15.3515 38.9308 15.4533C38.9308 15.5381 38.8121 15.6059 38.6764 15.6059C38.5407 15.6059 38.4219 15.7586 38.4219 15.9282C38.4219 16.1148 38.0827 16.505 37.5738 16.8612C37.1158 17.2005 36.7256 17.5397 36.7256 17.6245C36.7256 17.7094 36.573 17.8111 36.3864 17.862C36.1489 17.9129 36.0471 18.0995 36.0471 18.3879C36.0471 18.9646 35.4873 19.5074 34.9106 19.5074C34.5204 19.5074 34.4865 19.5414 34.6901 19.694C34.8936 19.8467 34.9106 19.8806 34.707 19.9654C34.5883 20.0163 34.1812 20.3556 33.8249 20.7118C33.2312 21.3055 33.1295 21.3564 32.8072 21.1698C32.5188 20.9832 32.434 21.0002 32.2644 21.2207C32.1456 21.3734 31.959 21.4582 31.8233 21.4073C31.6537 21.3564 31.6198 21.4073 31.6876 21.5939C31.7555 21.7805 31.6537 21.8823 31.2805 21.9671C31.0091 22.0349 30.7886 22.1537 30.7886 22.2385C30.7886 22.3233 30.602 22.4251 30.3645 22.4929C30.127 22.5438 29.9404 22.6626 29.9404 22.7643C29.9404 22.8491 29.8726 22.8831 29.8047 22.8322C29.7199 22.7813 29.4315 22.8831 29.1432 23.0697C28.6343 23.375 28.6173 23.4259 28.6003 24.6642C28.5834 25.7329 28.6343 25.9195 28.8378 25.8516C29.1092 25.7498 29.1941 26.0382 28.9566 26.1909C28.753 26.3096 28.7361 27.3104 28.9396 27.3104C29.0244 27.3104 29.0923 27.4631 29.0923 27.6497C29.0923 27.8532 29.3467 28.1416 29.7708 28.413C30.6529 28.9728 31.5689 28.9728 32.3322 28.413C32.6545 28.1925 33.2312 27.8363 33.6384 27.6327C34.0285 27.4292 34.3508 27.1408 34.3678 26.9881C34.3678 26.7676 34.4017 26.7506 34.4695 26.9712C34.5204 27.1069 34.6731 27.2935 34.7918 27.3613C34.9275 27.4292 35.0293 27.7006 35.0293 27.955C35.0293 28.2095 35.182 28.5996 35.3686 28.8371C35.5552 29.0746 35.7078 29.329 35.7078 29.3969C35.7078 29.4817 35.9793 29.8209 36.3015 30.1602C36.6238 30.4995 36.8104 30.8048 36.7256 30.8387C36.6238 30.8726 36.556 31.0084 36.556 31.1441C36.556 31.2798 36.5051 31.3646 36.4373 31.3646C36.1658 31.3137 35.199 31.6021 35.199 31.7208C35.199 31.8904 34.1981 32.1279 34.0624 32.0092C34.0285 31.9583 34.0624 31.7717 34.1642 31.6021C34.3338 31.3137 34.3338 31.3137 34.3508 31.6021C34.3508 31.7717 34.4356 31.8565 34.5204 31.8056C34.6222 31.7378 34.6561 31.636 34.6052 31.5512C34.5544 31.4664 34.5883 31.3646 34.6901 31.2967C34.9954 31.1101 34.8767 30.703 34.5204 30.703C34.1812 30.703 34.0455 30.2959 34.3338 30.1093C34.5374 29.9906 34.5204 29.0067 34.3169 29.0067C34.249 29.0067 34.1812 29.0746 34.1812 29.1763C34.1812 29.2612 34.0794 29.346 33.9437 29.346C33.8249 29.346 33.6214 29.4647 33.5027 29.6004C33.3839 29.7361 33.0786 29.8549 32.8072 29.8549C31.8912 29.8549 31.2635 31.6699 31.9421 32.3654C32.1795 32.6368 32.1965 32.8573 31.976 32.993C31.8912 33.0439 31.8572 33.1966 31.9251 33.3492C31.9929 33.5358 32.0778 33.5528 32.2474 33.4001C32.434 33.2475 32.4849 33.2644 32.4849 33.4849C32.4849 33.6376 32.4001 33.7564 32.2983 33.7564C32.1626 33.7564 32.1626 33.8412 32.3152 34.0108C32.6884 34.4518 32.2304 34.7911 31.4501 34.6724C31.0091 34.5875 30.6698 34.6384 30.4154 34.8081C30.1779 34.9607 29.8047 35.0286 29.4994 34.9947C28.7021 34.8759 27.9727 35.317 27.837 36.0124C27.6674 36.9115 26.5478 37.9293 25.2756 38.3533C24.5292 38.5908 24.4105 38.6926 24.2917 39.2354C24.156 39.7782 24.0543 39.88 23.4775 40.0327C23.1043 40.1344 22.7142 40.3719 22.5954 40.5416C22.358 40.9317 21.7643 40.9826 21.425 40.6603C21.3063 40.5246 20.984 40.3719 20.7126 40.3041C20.2715 40.2023 20.2376 40.2193 20.3563 40.5755C20.7126 41.729 20.6786 41.8138 19.9831 41.8138C19.6269 41.8138 19.2537 41.7459 19.135 41.6781C18.9145 41.5424 17.6253 41.695 17.2182 41.9156C16.8959 42.0682 16.862 42.9164 17.1673 42.9164C17.286 42.9164 17.3878 42.9842 17.3878 43.086C17.3878 43.1708 17.4896 43.2047 17.6083 43.1539C17.9985 43.0012 18.7448 43.3913 18.6431 43.6797C18.5922 43.8154 18.6261 43.9342 18.7448 43.9342C18.8466 43.9342 18.8805 43.8493 18.8297 43.7645C18.6431 43.4592 19.2537 43.5949 19.6269 43.9342C19.8474 44.1208 19.8983 44.2734 19.7796 44.2734C19.6269 44.2734 19.6439 44.3582 19.8305 44.5448C19.9831 44.6805 20.1019 44.8841 20.1019 44.9689C20.1019 45.0537 20.2206 45.1216 20.3733 45.1216C20.509 45.1216 20.5768 45.1894 20.526 45.2912C20.4751 45.376 20.492 45.4608 20.5768 45.4608C20.6617 45.4608 20.7295 45.5626 20.7295 45.6644C20.7295 45.7831 20.7634 45.9528 20.7974 46.0545C20.8652 46.292 20.6277 47.9883 20.4242 48.6499C20.2206 49.2605 19.7457 49.5998 19.2537 49.4471C18.9654 49.3623 16.6923 49.1927 14.555 49.1248C14.0631 49.1079 13.622 49.04 13.5542 48.9722C13.3167 48.7347 12.6891 48.8534 12.3837 49.1927C12.2141 49.3793 11.9427 49.5319 11.79 49.5319C11.315 49.5319 11.0776 49.9391 11.2642 50.431C11.349 50.6515 11.4508 51.364 11.4677 52.0085C11.5186 53.2468 11.1285 54.6717 10.6196 55.0789C10.4839 55.1976 10.416 55.2994 10.4669 55.2994C10.5348 55.2994 10.5178 55.5199 10.433 55.8083C10.3482 56.1136 10.3482 56.3171 10.4499 56.3171C10.5348 56.3171 10.6026 56.4359 10.6026 56.5716C10.6026 56.7073 10.7044 56.8091 10.8231 56.7752C11.0436 56.7412 11.0776 57.6063 10.874 58.3527C10.7553 58.7598 10.7892 58.7768 11.4847 58.7598C11.8918 58.7598 12.3837 58.692 12.6042 58.6241C13.2149 58.4206 13.6559 58.675 13.9443 59.3875C14.2327 60.1338 14.8773 60.4392 15.2335 59.9981C15.6067 59.5401 16.6075 59.2178 17.6422 59.2009C18.202 59.2009 18.7957 59.2009 18.9654 59.1839C19.118 59.1839 19.3725 58.9464 19.5082 58.675C19.6948 58.3357 19.9492 58.1322 20.2885 58.0643C20.6786 57.9965 20.8652 57.8099 21.0688 57.318C21.2045 56.9448 21.425 56.6564 21.5437 56.6564C21.6625 56.6564 21.8491 56.5377 21.9678 56.402C22.1544 56.1814 22.1374 56.0966 21.9339 55.927C21.5268 55.6047 21.4759 55.2146 21.7643 54.7566C22.3749 53.8575 23.4097 52.7549 23.6472 52.7549C23.7829 52.7549 24.2917 52.5514 24.7837 52.2969C25.6997 51.8389 26.2086 51.1604 25.8693 50.8211C25.7845 50.7363 25.6997 50.4819 25.6997 50.2783C25.6997 49.4471 27.4978 49.1418 28.5325 49.8034C29.0923 50.1596 29.4824 50.0917 30.0931 49.5489C30.4154 49.2605 30.8734 48.9891 31.1448 48.9382C31.4162 48.8704 31.7215 48.6838 31.8064 48.5142C31.8912 48.3445 32.0778 48.1749 32.2135 48.124C32.5697 47.9883 34.0115 48.6499 34.0115 48.9552C34.0115 49.0909 34.1133 49.3454 34.2321 49.5489C34.4017 49.8373 34.3847 49.9221 34.1303 50.1257C33.9098 50.2783 33.8758 50.3801 34.0285 50.4649C34.1303 50.5328 34.283 50.4988 34.3508 50.3631C34.4695 50.1935 34.5374 50.1935 34.7579 50.3631C34.9106 50.4988 35.0293 50.7024 35.0293 50.8211C35.0293 50.9568 35.182 51.0586 35.3686 51.0586C35.5552 51.0586 35.7078 51.1095 35.7078 51.1943C35.7078 51.4488 37.4041 52.6531 37.7943 52.6701C38.0148 52.6701 38.388 52.8737 38.6255 53.1281C38.863 53.3995 39.1853 53.6031 39.3379 53.6031C39.4906 53.6031 39.6093 53.7218 39.6093 53.8745C39.6093 54.0271 39.8299 54.2307 40.1182 54.3325C40.4914 54.4682 40.678 54.7057 40.8816 55.2994C41.0512 55.7743 41.0851 56.0797 40.9664 56.1136C40.8816 56.1475 40.7967 56.3171 40.7967 56.4698C40.7967 56.86 39.2361 57.2162 38.0148 57.0974C37.014 57.0126 36.7256 57.0974 36.7256 57.5046C36.7256 57.7929 38.2523 58.692 38.7273 58.692C38.829 58.692 38.9817 58.7937 39.0496 58.9125C39.1174 59.0482 39.3549 59.1839 39.5754 59.2517C39.9995 59.3535 40.3557 58.8955 40.1861 58.4545C40.1352 58.3018 40.1352 57.9795 40.1861 57.742C40.2709 57.4028 40.3727 57.3349 40.6441 57.4197C41.0682 57.5554 41.8145 56.9278 41.8145 56.4359C41.8145 56.2663 41.9672 56.0797 42.1538 56.0288C42.6287 55.91 42.5948 55.2654 42.069 54.9601C41.6958 54.7226 41.6788 54.6548 41.8654 54.2816C42.035 53.9423 42.1877 53.8745 42.5779 53.9084C42.8662 53.9423 43.1207 54.0441 43.1376 54.1289C43.1716 54.2137 43.3242 54.4173 43.4769 54.553C43.7313 54.8074 43.7653 54.8074 43.9179 54.4682C44.1385 53.9593 43.6296 53.4504 42.1538 52.738C41.153 52.263 41.0173 52.1273 41.153 51.8728C41.2378 51.7032 41.2547 51.5675 41.1869 51.5505C41.119 51.5505 40.7289 51.5336 40.3387 51.4997C39.762 51.4657 39.4906 51.33 39.0156 50.8381C38.6933 50.4988 38.4219 50.0917 38.4219 49.9221C38.405 49.498 38.1166 49.1588 37.3702 48.7177C36.6747 48.2937 36.4203 47.7848 36.7256 47.4116C36.8444 47.2589 36.8613 47.1571 36.7256 47.0723C36.3864 46.8688 36.556 46.5465 37.1158 46.3429C37.7943 46.1054 38.2862 46.0715 37.947 46.2751C37.7943 46.3768 37.7773 46.5465 37.8961 46.8518C38.0996 47.4116 38.4219 47.6151 38.6085 47.3098C38.7103 47.1232 38.7612 47.1741 38.7612 47.4455C38.7612 47.6491 38.846 47.8696 38.9308 47.9205C39.0326 47.9714 39.1004 47.8696 39.1004 47.683C39.1004 47.4964 39.1853 47.2928 39.304 47.225C39.4397 47.1402 39.4567 47.1911 39.3888 47.3946C39.321 47.5642 39.3719 47.8017 39.5415 47.9544C39.7281 48.1579 39.745 48.2597 39.6093 48.3445C39.3888 48.4802 40.1861 49.1927 40.5593 49.1927C40.695 49.1927 40.9324 49.3454 41.0851 49.5319C41.2547 49.7185 41.577 49.8712 41.8145 49.8882L42.2386 49.9051L41.8145 50.0408C41.4074 50.1765 41.4074 50.1765 41.9333 50.1935C42.2216 50.2105 42.527 50.2783 42.5779 50.3801C42.6287 50.4649 42.8153 50.5497 42.985 50.5497C43.1376 50.5497 43.6635 50.8381 44.1385 51.1774L45.0205 51.822L44.9188 52.8737C44.8339 53.8575 44.8509 53.9254 45.2919 54.2137C45.5633 54.3834 45.6651 54.553 45.5464 54.6208C45.3089 54.7735 45.5125 55.2994 45.8008 55.2994C45.9365 55.2994 46.1571 55.4181 46.2928 55.5708C46.5642 55.8252 46.5642 56.1306 46.3097 56.7243C46.2419 56.8939 46.2419 57.0805 46.3436 57.1483C46.4285 57.1992 46.5472 57.3858 46.6151 57.5385C46.7338 57.8777 47.0731 57.9456 47.0731 57.6403C47.0731 57.2162 47.7176 58.0643 47.8364 58.6411C47.9382 59.1669 47.9891 59.2178 48.3622 59.133C48.6506 59.0482 48.7694 59.0991 48.7694 59.2857C48.7694 59.4214 48.8542 59.5401 48.939 59.5401C49.0408 59.5401 49.1086 59.4553 49.1086 59.3705C49.1086 59.2687 49.1934 59.2009 49.2782 59.2009C49.38 59.2009 49.4479 59.3875 49.4479 59.6249C49.4479 59.8624 49.5327 60.049 49.6175 60.049C49.9398 60.049 49.8719 59.1839 49.4988 58.4375C49.3122 58.0813 49.3122 57.9965 49.4648 58.1322C49.5836 58.2509 49.8211 58.3527 50.0077 58.3527C50.2451 58.3527 50.296 58.2679 50.2112 57.9965C50.1094 57.7081 50.1603 57.6572 50.4996 57.7081C50.8049 57.742 50.8728 57.6912 50.8388 57.4367C50.7879 57.1483 50.8049 57.1314 51.0424 57.318C51.1951 57.4537 51.3138 57.4876 51.3138 57.4197C51.3138 57.3519 51.4325 57.3858 51.5682 57.5046C51.704 57.6233 51.8227 57.8608 51.8227 58.0474C51.8227 58.3527 51.8397 58.3527 52.0941 58.1152C52.3316 57.8777 52.3146 57.8099 52.0093 57.4706C51.8057 57.2671 51.6531 57.1653 51.6531 57.2332C51.6531 57.4876 51.1102 56.9278 50.9576 56.5377C50.8728 56.3002 50.6692 56.1475 50.4657 56.1475C50.2282 56.1475 50.0585 55.9779 49.9398 55.6386C49.838 55.3503 49.6854 55.1297 49.6005 55.1297C49.4139 55.1297 48.9051 54.1459 48.9729 53.9084C49.0068 53.8066 49.2782 53.9254 49.5666 54.1798C50.0925 54.6208 50.3978 54.7566 50.2112 54.4512C50.1434 54.3494 50.2282 54.3325 50.3978 54.4003C50.6353 54.4851 50.6692 54.4512 50.5674 54.1798C50.4657 53.9254 50.4826 53.8914 50.6522 54.0611C51.0594 54.4682 51.212 54.2816 50.8219 53.8745C50.4317 53.4674 50.4317 53.4674 50.771 53.2808C51.0254 53.1451 51.1611 53.1451 51.246 53.2977C51.3138 53.4165 51.2968 53.4334 51.1781 53.3656C51.0594 53.2977 50.9745 53.3317 50.9745 53.4165C50.9745 53.7388 51.4325 53.62 51.5343 53.2808C51.6022 52.9754 51.67 52.9754 52.1789 53.162C52.5012 53.2638 52.9253 53.4504 53.1458 53.5691C53.6717 53.8575 54.2145 53.7727 54.5707 53.3317C54.7912 53.0603 55.0457 52.9754 55.4867 52.9924C55.809 53.0094 56.1652 52.9245 56.267 52.7888C56.4706 52.5514 56.4706 52.5514 55.8768 52.2969C55.351 52.0764 54.6216 50.7363 54.876 50.4819C54.9778 50.3801 55.0457 50.1426 55.0457 49.9391C55.0457 49.7185 55.1814 49.5319 55.368 49.4811C55.6394 49.4132 55.7072 49.2266 55.7581 48.582C55.809 47.8696 55.8768 47.7169 56.284 47.5303C56.6063 47.3776 56.742 47.1741 56.742 46.8857C56.742 46.6482 56.9625 46.2242 57.2509 45.9188C57.5223 45.6135 57.7597 45.2742 57.7597 45.1555C57.7597 45.0537 57.9463 44.9519 58.1838 44.9519C58.4383 44.9519 58.6079 45.0537 58.6079 45.2064C58.6079 45.4608 59.49 45.6983 60.4229 45.6813C60.7283 45.6644 60.9318 45.7322 60.8809 45.8171C60.83 45.9019 60.7113 45.9697 60.6265 45.9697C60.406 45.9697 59.6935 46.6482 59.8971 46.6652C60.1176 46.6991 60.3381 46.75 60.7792 46.9027C61.0845 47.0045 61.1523 47.1402 61.1184 47.4794C61.0675 47.8526 61.1354 47.9205 61.5595 47.9714C61.8818 48.0053 62.1023 47.9374 62.204 47.7678C62.2889 47.6151 62.5433 47.4964 62.7638 47.4964C62.9843 47.4964 63.2218 47.4116 63.2727 47.3268C63.3236 47.225 63.6459 47.1571 63.9682 47.1571C64.3753 47.1571 64.5449 47.0723 64.5449 46.9027C64.5449 46.6143 64.6298 46.6652 65.4101 47.3607C65.5797 47.5303 65.8341 47.666 65.9529 47.666C66.0716 47.666 66.3261 47.7848 66.5126 47.9205C66.6823 48.0562 66.9367 48.1749 67.0724 48.1749C67.2081 48.1749 67.4456 48.2937 67.6152 48.4463C67.8697 48.6668 68.0224 48.6838 68.4464 48.5481C68.8705 48.3954 69.0571 48.4124 69.5151 48.6668C69.8035 48.8534 70.3293 49.04 70.6516 49.1079C70.9739 49.1757 71.6015 49.4471 72.0256 49.7185C72.7211 50.1596 72.9077 50.2105 73.7219 50.1087L74.6379 50.0069L75.7405 50.9738C77.6065 52.5853 82.1016 54.6378 81.7963 53.7218C81.7624 53.62 81.6097 53.5183 81.457 53.5183C81.2874 53.5183 80.4393 52.721 79.5572 51.7541C78.1662 50.2614 77.9457 49.9221 77.9457 49.4302C77.9457 48.8704 77.4538 48.1749 76.877 47.9374C76.7413 47.8865 76.7244 47.8187 76.8431 47.7169C76.9449 47.6491 77.0976 47.3607 77.1824 47.0893C77.352 46.5634 78.2171 45.9697 78.5903 46.1054C78.6921 46.1393 78.7939 46.0715 78.7939 45.9358C78.7939 45.5965 79.2179 45.2403 80.3205 44.6805C80.8294 44.4091 81.2874 44.1716 81.3383 44.1377C81.3892 44.1038 81.2026 43.9002 80.9142 43.6797C80.5071 43.3405 80.4223 43.1539 80.4562 42.6789C80.4902 42.2039 80.3714 41.9495 79.9304 41.4406C79.201 40.6264 79.0313 40.3041 78.8956 39.405C78.7939 38.6926 78.7939 38.6926 79.4215 38.523C79.7777 38.4212 80.4562 38.3364 80.9312 38.3364C81.3892 38.3364 81.8642 38.2516 81.9659 38.1498C82.3052 37.8105 84.3916 37.9123 85.4942 38.3024C86.2576 38.5908 86.6986 38.6587 87.3093 38.5738C87.8691 38.489 88.1235 38.523 88.1235 38.6587C88.1235 38.7604 88.2762 38.8453 88.4458 38.8453C88.6324 38.8453 88.8868 38.964 89.0395 39.0997C89.3448 39.422 89.752 39.422 89.8707 39.1167C89.9385 38.947 90.1591 38.8961 90.6171 38.964C91.8214 39.1167 92.0928 38.1328 90.9563 37.7427C90.0912 37.4543 89.735 37.149 90.0234 36.9454C90.2439 36.7927 90.1251 36.674 89.1413 35.9615C88.802 35.7241 88.7851 35.6562 88.9717 34.9098C89.1413 34.2144 89.1413 34.0617 88.8699 33.6037C88.4458 32.8912 87.92 32.9082 87.2584 33.6715C86.5459 34.4688 85.9862 34.4688 85.4094 33.6546C85.1719 33.3323 84.7988 32.8234 84.5782 32.552C84.1881 32.0601 84.1881 32.0261 84.4765 31.7208C84.6461 31.5342 85.0023 31.3815 85.2737 31.3815C86.4102 31.3815 86.8174 30.0245 85.9353 29.2103C85.3076 28.6335 85.0702 28.0229 85.0702 27.0051C85.0532 25.0883 84.6122 23.1884 83.6453 21.0511C82.9837 19.5753 82.7462 18.8798 82.865 18.7441C82.9668 18.6254 83.4078 18.4048 83.8488 18.2352C85.5791 17.5906 87.4111 16.2845 87.445 15.6908C87.445 15.589 87.1227 15.1988 86.7325 14.8087C85.9014 14.0114 84.8666 13.6552 82.865 13.4856C81.0669 13.3159 80.9821 13.299 79.9982 12.8749C79.3367 12.6035 79.0653 12.5526 78.9296 12.6883C78.7769 12.841 78.8278 12.9767 79.0992 13.2311C79.3028 13.4347 79.5402 13.5534 79.625 13.5025C79.7947 13.4008 81.1178 14.0114 81.457 14.3337C81.7793 14.656 81.7285 14.7578 81.2535 14.7578C80.9482 14.7578 80.8633 14.8256 80.9312 15.0122C81.016 15.1988 80.9651 15.2328 80.7616 15.1649C80.6259 15.114 80.5071 15.0122 80.5071 14.9614C80.558 14.6221 80.2527 14.0962 79.9643 14.0284C79.6081 13.9266 79.5063 14.1811 79.8625 14.2998C79.9643 14.3337 79.7608 14.4355 79.3876 14.5034C79.0144 14.5712 78.6412 14.6899 78.5394 14.7578C78.4546 14.8256 78.0136 14.8765 77.5556 14.8765C77.1145 14.8935 76.6396 14.9783 76.5039 15.0971C76.3851 15.1988 76.0967 15.2667 75.8762 15.2328C75.4013 15.1649 75.2656 14.656 75.6896 14.5373C75.8593 14.4864 75.6896 14.4525 75.3164 14.4355C74.9433 14.4355 74.4683 14.5373 74.2647 14.673C74.0781 14.8087 73.6541 14.9444 73.3487 14.9614C73.0264 14.9783 72.4667 15.1819 72.0935 15.3854C71.7203 15.6059 71.2623 15.7756 71.0757 15.7756C70.5498 15.7925 70.041 16.1657 70.0579 16.5389C70.0579 16.7255 69.9392 16.9291 69.8035 16.9969C69.3455 17.2005 68.4973 17.1326 68.2768 16.8782C68.1581 16.7425 67.9545 16.6237 67.8188 16.6237C67.3438 16.6237 67.717 16.2166 68.3616 16.047L69.0062 15.8604L68.4295 15.4194C67.9715 15.0631 67.5983 14.9614 66.6144 14.8935C65.3592 14.8087 64.8164 14.9783 65.7324 15.1819C66.2073 15.2837 66.2412 15.3515 66.2412 16.0131C66.2412 16.6237 66.3091 16.7764 66.6653 16.9291C67.1064 17.1326 67.1912 17.3871 66.9367 17.7942C66.8349 17.9638 66.7162 17.9808 66.4448 17.8281C66.2582 17.7263 65.9359 17.6415 65.7493 17.6415C65.5458 17.6415 65.3931 17.5228 65.3931 17.3701C65.3931 17.2005 65.2235 17.2683 64.8503 17.6245C64.5449 17.9129 64.1718 18.1504 64.0361 18.1504C63.9003 18.1504 63.5611 18.337 63.2897 18.5405L62.7978 18.9307L63.1879 19.3039C63.8155 19.8806 63.4423 20.0842 62.2889 19.7788C61.78 19.6431 61.1863 19.4396 60.9657 19.3378C60.6943 19.1851 60.5077 19.1851 60.2194 19.3378C59.8123 19.5583 59.8292 20.0163 60.2363 20.0163C60.372 20.0163 60.4738 20.0842 60.4738 20.186C60.4738 20.2708 60.6943 20.3556 60.9657 20.3556C61.2372 20.3556 61.4916 20.4574 61.5595 20.61C61.7121 21.0511 60.6943 20.9832 59.8123 20.5083C59.473 20.3386 59.0659 20.186 58.9132 20.186C58.7436 20.186 58.6079 20.0842 58.6079 19.9654C58.6079 19.8297 58.4552 19.5923 58.2686 19.4226C58.0142 19.1851 57.9803 19.0494 58.116 18.795C58.3195 18.4048 57.9803 18.0656 57.2169 17.896C56.9794 17.8451 56.742 17.6924 56.6911 17.5737C56.6232 17.421 56.9286 17.438 57.9972 17.6415C61.5255 18.3709 62.5094 18.3709 63.5611 17.6245C64.1039 17.2344 64.1548 16.8612 63.7307 16.3354C63.4423 15.9791 62.1871 15.3685 62.0344 15.5042C62.0005 15.5551 61.7121 15.4702 61.4238 15.3176C61.1354 15.1649 60.864 15.0462 60.8131 15.0462C60.6774 15.0631 60.2872 14.9105 59.456 14.5542C59.032 14.3676 57.9803 14.1471 57.1321 14.0454C56.0974 13.9266 55.5546 13.7909 55.5546 13.6552C55.5546 13.4177 54.3841 13.1802 54.1297 13.3668C54.0279 13.4347 53.6038 13.4516 53.1797 13.4008L52.4164 13.3159L52.9762 13.1124C53.2985 12.9936 53.502 12.841 53.4511 12.7562C53.3154 12.5356 51.3477 12.0098 51.1442 12.1285C51.0424 12.1794 50.9745 12.1455 50.9745 12.0607C50.9745 11.9589 50.7201 11.8741 50.3978 11.8741C50.0077 11.8741 49.7532 11.9928 49.5666 12.2473C49.38 12.5187 49.2952 12.5526 49.2782 12.383C49.2782 12.2473 49.0747 12.0268 48.8202 11.908C48.2605 11.6536 48.1417 11.6536 48.006 11.8911ZM48.7694 12.2133C48.7694 12.2982 48.6845 12.383 48.5828 12.383C48.4979 12.383 48.464 12.2982 48.5149 12.2133C48.5658 12.1116 48.6506 12.0437 48.7015 12.0437C48.7354 12.0437 48.7694 12.1116 48.7694 12.2133ZM50.6353 12.1116C50.6353 12.2642 50.1264 12.3491 50.0416 12.2133C49.9737 12.1116 50.0925 12.0437 50.2791 12.0437C50.4826 12.0437 50.6353 12.0776 50.6353 12.1116ZM42.8323 13.74C42.8323 13.8248 42.7136 13.8588 42.5779 13.8079C42.4422 13.74 42.3234 13.6722 42.3234 13.6382C42.3234 13.6043 42.4422 13.5704 42.5779 13.5704C42.7136 13.5704 42.8323 13.6382 42.8323 13.74ZM41.136 14.0793C41.136 14.1641 41.0003 14.2489 40.8476 14.2489C40.5932 14.2489 40.5762 14.215 40.7967 14.0793C41.119 13.8757 41.136 13.8757 41.136 14.0793ZM39.3379 15.1988C39.3888 15.3345 39.3719 15.4024 39.2701 15.3515C39.1683 15.3006 39.1004 15.1819 39.1004 15.0801C39.1004 14.8426 39.2192 14.8935 39.3379 15.1988ZM40.678 15.0462C40.5593 15.0801 40.3557 15.0801 40.2539 15.0462C40.1352 14.9953 40.22 14.9614 40.4575 14.9614C40.695 14.9614 40.7798 14.9953 40.678 15.0462ZM48.2435 18.7611C48.5997 18.8289 48.7694 18.9646 48.7694 19.1682C48.7694 19.4057 48.6845 19.4565 48.4131 19.3887C48.1417 19.3208 48.0739 19.3548 48.1248 19.5244C48.2265 19.7958 47.1748 20.8645 46.8016 20.8645C46.6659 20.8645 46.5642 20.9323 46.5642 21.0002C46.5642 21.2377 45.5803 21.7126 45.3259 21.6109C45.1902 21.56 45.0205 21.5939 44.9527 21.6957C44.9018 21.7974 44.9696 21.9331 45.1053 21.984C45.3428 22.0689 45.3428 22.1197 45.1223 22.3233C44.9357 22.5099 44.9188 22.6626 45.0375 22.9C45.1393 23.0866 45.275 23.375 45.3428 23.5277C45.4276 23.6973 45.4616 24.2232 45.4446 24.6981C45.4107 25.4275 45.4446 25.5632 45.6821 25.5463C45.8348 25.5463 45.9535 25.6141 45.9365 25.7159C45.9196 25.8346 46.1571 25.9703 46.4793 26.0212C46.7847 26.0891 47.0731 26.2078 47.107 26.3096C47.1409 26.4283 47.6159 26.3605 48.4131 26.1569C49.1086 25.9703 49.7871 25.8516 49.9059 25.9025C50.0416 25.9534 50.2112 25.9195 50.2791 25.8177C50.3299 25.7159 50.9237 25.5972 51.5682 25.5463C52.5521 25.4784 52.8235 25.5123 53.1797 25.7837C53.6547 26.14 53.6038 26.2757 52.9592 26.3266C52.7048 26.3435 52.5012 26.4623 52.5012 26.598C52.5012 26.8185 51.6531 26.8015 49.9568 26.581C49.1595 26.4792 47.1748 27.3783 47.7176 27.5988C48.006 27.7175 47.9721 28.0059 47.6668 27.8872C47.5311 27.8193 47.4123 27.6836 47.4123 27.5479C47.4123 27.4122 47.3105 27.3104 47.2088 27.3274C46.8865 27.3443 46.2758 27.6158 46.5302 27.6327C46.8356 27.6497 46.7847 27.9889 46.4624 27.9889C46.2419 27.9889 46.2079 28.0907 46.3097 28.4469C46.4454 29.0067 46.5811 29.1594 46.6829 28.871C46.7338 28.7692 46.9034 28.6675 47.09 28.6675C47.2596 28.6675 47.4123 28.5996 47.4123 28.5148C47.4123 28.3112 48.0739 28.1586 48.1926 28.3452C48.2435 28.43 48.4131 28.4978 48.5658 28.4978C49.1425 28.4978 48.9729 30.1772 48.4131 30.1941C48.3622 30.1941 48.0399 29.9397 47.6837 29.6174C47.107 29.1085 46.9882 29.0746 46.5642 29.2272C45.9026 29.4817 45.4785 30.4995 45.5973 31.5512C45.699 32.4163 45.4107 32.9082 44.817 32.9082C44.6643 32.9082 44.5286 33.0269 44.5286 33.1627C44.5286 33.3153 44.342 33.5019 44.1215 33.6207C43.6635 33.8242 43.0867 33.6885 43.2564 33.4171C43.5617 32.9252 41.153 33.1457 40.7119 33.6715C40.6271 33.7733 40.0673 33.9599 39.4906 34.0956C38.388 34.3161 37.913 34.1974 37.913 33.6715C37.913 33.1966 37.4381 33.2644 35.8096 33.9938C35.4534 34.1465 35.1141 34.2313 35.0463 34.1804C34.9106 34.0278 35.7078 33.4001 35.8775 33.5019C35.9453 33.5528 36.0471 33.468 36.115 33.3323C36.1658 33.1966 36.3355 33.0778 36.4712 33.0778C36.6238 33.0778 36.6917 32.993 36.6408 32.9082C36.573 32.8064 36.4373 32.7895 36.3355 32.8573C36.1998 32.9421 36.1998 32.8912 36.3355 32.7047C36.4542 32.5689 36.5051 32.3993 36.4373 32.3484C36.3864 32.2806 36.4203 32.2297 36.5221 32.2297C36.6408 32.2297 36.7256 32.094 36.7426 31.9244C36.7595 31.7378 36.8104 31.7886 36.8783 32.0601C36.9801 32.4332 37.0988 32.4841 37.7434 32.4841C38.371 32.4841 38.5067 32.4163 38.5746 32.1449C38.6594 31.6529 39.1004 31.3985 39.8299 31.3815C40.3048 31.3815 40.4575 31.3137 40.4575 31.0762C40.4575 30.8387 40.4914 30.8218 40.6271 31.0423C40.7119 31.178 40.8137 31.2458 40.8476 31.2119C41.0512 30.9914 41.4583 29.787 41.3735 29.7022C41.3056 29.6513 41.2208 29.7022 41.1869 29.804C41.0512 30.1941 40.7798 30.0415 40.8816 29.6343C40.9664 29.329 41.0682 28.7183 41.119 28.1416C41.136 28.0738 41.3056 27.972 41.5262 27.9041C41.7297 27.8363 41.9333 27.7684 41.9842 27.7515C42.035 27.7345 42.2386 27.6666 42.4591 27.5818C42.6627 27.514 42.8323 27.3443 42.8323 27.1917C42.8323 27.039 42.951 26.8355 43.0867 26.7337C43.2903 26.581 43.2903 26.4792 43.1207 26.14C42.9171 25.7159 42.7814 25.6311 41.8993 25.2409C41.3735 25.0035 41.1869 24.6133 41.4074 24.1214C41.4753 23.9687 41.5262 23.6294 41.5262 23.392C41.5262 23.1036 41.6788 22.8491 42.0011 22.6286C42.2725 22.459 42.493 22.2215 42.493 22.1367C42.493 21.9671 43.6805 21.3734 44.0367 21.3734C44.1215 21.3734 44.4777 21.102 44.8339 20.7627C45.2919 20.3217 45.3937 20.1351 45.2241 20.0333C45.0375 19.9146 45.0714 19.7788 45.3768 19.3717C45.5973 19.0834 45.8348 18.8798 45.9196 18.9307C45.9874 18.9816 46.0553 18.9307 46.0553 18.8459C46.0553 18.6423 47.3953 18.5914 48.2435 18.7611ZM35.0293 20.3895C35.0293 20.627 34.2151 21.3734 33.9607 21.3734C33.8758 21.3734 33.8928 21.2546 34.0115 21.1189C34.1303 20.9832 34.1642 20.8645 34.0964 20.8645C34.0115 20.8645 34.1303 20.7118 34.3508 20.5252C34.7918 20.1351 35.0293 20.1011 35.0293 20.3895ZM31.9251 22.3233C31.8742 22.3742 31.7215 22.3911 31.6028 22.3403C31.4671 22.2894 31.518 22.2385 31.7046 22.2385C31.8912 22.2215 31.9929 22.2724 31.9251 22.3233ZM35.5382 32.9082C35.5382 32.9761 35.4195 33.0948 35.2668 33.1457C35.1311 33.1966 35.0632 33.1796 35.1141 33.0778C35.165 32.9761 35.1311 32.9082 35.0463 32.9082C34.9445 32.9082 34.8597 32.8404 34.8597 32.7555C34.8597 32.6707 35.0124 32.6368 35.199 32.6877C35.3855 32.7386 35.5382 32.8404 35.5382 32.9082ZM45.7499 32.9421C45.6312 33.0609 45.5464 33.0778 45.5464 32.9761C45.5464 32.7386 45.7499 32.535 45.8687 32.6538C45.9026 32.7047 45.8517 32.8404 45.7499 32.9421ZM34.6901 33.2305C34.6901 33.1457 34.7918 33.1627 34.9275 33.2814C35.2838 33.6037 34.7749 33.8581 34.249 33.6037C33.6892 33.3492 33.7062 33.0439 34.266 33.2475C34.5374 33.3492 34.6901 33.3492 34.6901 33.2305ZM28.8378 36.2838C28.7869 36.3856 28.6512 36.4704 28.5664 36.4704C28.4816 36.4704 28.4986 36.3687 28.6173 36.233C28.8548 35.9615 29.0244 36.0124 28.8378 36.2838ZM66.5805 44.4261C66.2582 44.5957 65.9359 44.7145 65.8681 44.6636C65.7832 44.6296 65.7324 44.6975 65.7324 44.8332C65.7324 44.9689 65.902 45.1385 66.1225 45.1894C66.4448 45.2912 66.4618 45.3251 66.2243 45.4608C66.0716 45.5456 65.885 45.8171 65.8341 46.0715C65.7154 46.4956 65.6815 46.5125 64.7146 46.4277C64.1718 46.3938 63.6459 46.4277 63.5611 46.5125C63.4593 46.6143 63.2558 46.4956 63.0522 46.2242L62.696 45.7662L63.154 45.2742C63.4084 45.0028 63.8495 44.7653 64.1209 44.7145C64.4092 44.6805 64.7655 44.5957 64.9521 44.5279C65.3931 44.3413 66.2582 44.1377 66.7501 44.1208C67.1233 44.1038 67.1064 44.1377 66.5805 44.4261ZM47.4123 56.8769C47.4971 56.843 47.5311 56.9448 47.4802 57.0805C47.4123 57.2162 47.3105 57.3349 47.2257 57.3349C47.1409 57.3349 47.0222 57.3519 46.9543 57.3689C46.8865 57.4028 46.8186 57.1483 46.7847 56.826C46.7338 56.2493 46.7338 56.2493 47.0052 56.5716C47.1409 56.7582 47.3275 56.8939 47.4123 56.8769ZM50.6353 56.4868C50.8558 56.6225 50.8558 56.6564 50.6014 56.6564C50.4487 56.6564 50.2621 56.5716 50.2112 56.4868C50.0755 56.2663 50.296 56.2663 50.6353 56.4868ZM49.5666 57.0974C49.5157 57.1483 49.3631 57.1653 49.2443 57.1144C49.1086 57.0635 49.1595 57.0126 49.3461 57.0126C49.5327 56.9957 49.6345 57.0466 49.5666 57.0974ZM49.9059 57.7081C49.855 57.8438 49.8041 57.7929 49.8041 57.6063C49.7871 57.4197 49.838 57.318 49.8889 57.3858C49.9398 57.4367 49.9568 57.5894 49.9059 57.7081Z" fill="black"/>
<path d="M1.71391 17.7433C1.56124 17.879 1.28984 18.0147 1.10324 18.0316C0.91665 18.0486 0.763983 18.1504 0.763983 18.2691C0.763983 18.3879 0.696131 18.4896 0.628279 18.4896C0.543464 18.4896 0.339908 18.6084 0.153315 18.7441C-0.135056 18.9985 -0.0841669 18.9985 0.899687 18.9476C2.23976 18.8628 2.37547 19.253 1.05235 19.4396C0.255093 19.5583 0.0515371 19.6601 0.170278 19.8467C0.221167 19.9315 0.356871 20.0163 0.441686 20.0163C0.543464 20.0163 0.57739 19.9485 0.526501 19.8806C0.40776 19.6771 1.67999 19.8636 1.81569 20.0842C2.07013 20.4574 1.95139 20.6948 1.52732 20.6948C1.27287 20.6948 1.10324 20.7966 1.10324 20.9323C1.10324 21.1019 1.3068 21.1528 1.91747 21.1189C2.37547 21.085 2.95221 21.1698 3.25754 21.3225C3.9191 21.6278 5.41184 21.6787 6.10733 21.4242C7.05726 21.068 7.80363 20.8305 8.58393 20.61C9.65259 20.3047 10.7722 19.5753 10.7722 19.1851C10.7722 18.9985 10.5686 18.795 10.2633 18.6593C9.99185 18.5405 9.80526 18.3879 9.85615 18.3031C9.90704 18.2182 9.83919 18.1504 9.72045 18.1504C9.58474 18.1334 9.63563 18.0316 9.83919 17.879C10.1615 17.6245 10.1445 17.6076 9.55082 17.7093C9.19459 17.7772 8.88926 17.7433 8.82141 17.6415C8.65178 17.3701 8.05807 17.4379 8.05807 17.7263C8.05807 17.879 7.90541 17.9808 7.68489 17.9808C7.46437 17.9808 6.81977 17.9808 6.24303 17.9808C5.42881 17.9808 5.1574 18.0486 5.0217 18.2861C4.86903 18.5575 4.85207 18.5575 4.75029 18.2691C4.58066 17.862 4.15658 17.9129 4.15658 18.337C4.15658 18.5745 4.07177 18.6593 3.90214 18.6084C3.76643 18.5405 3.61377 18.5745 3.56288 18.6593C3.37629 18.9476 3.17273 18.8459 3.25754 18.5066C3.30843 18.2861 3.15577 18.0995 2.71473 17.8281C1.98532 17.404 2.03621 17.404 1.71391 17.7433Z" fill="black"/>
<path d="M16.3192 23.0188C16.1326 23.1884 16.1835 23.6125 16.3531 23.4938C16.4379 23.4429 16.5736 23.4938 16.6415 23.5955C16.6924 23.6973 16.6584 23.85 16.5567 23.9178C16.404 24.0027 16.4379 24.1044 16.6415 24.2741C16.9129 24.4776 16.9298 24.4776 16.8281 24.2232C16.7772 24.0535 16.7941 23.8839 16.8959 23.833C16.9807 23.7652 17.0147 23.6634 16.9638 23.5786C16.9129 23.4938 16.9468 23.392 17.0486 23.3241C17.1334 23.2732 17.2182 23.1206 17.2182 23.0188C17.2182 22.8831 17.1673 22.8831 17.0655 23.0527C16.9638 23.2054 16.879 23.2224 16.8111 23.0867C16.6754 22.8831 16.4888 22.8492 16.3192 23.0188Z" fill="black"/>
<path d="M19.9491 27.1917C19.8473 27.2934 19.7625 27.48 19.7625 27.5988C19.7625 27.8532 19.0501 28.0568 18.4903 27.955C18.185 27.8871 17.9984 27.972 17.8118 28.2773C17.3707 28.9389 16.8788 29.3629 16.6922 29.2611C16.6074 29.1933 16.4208 29.2442 16.2681 29.346C16.0816 29.5156 16.0646 29.6174 16.2342 29.8209C16.353 29.9566 16.4378 30.1093 16.4208 30.1432C16.3869 30.1602 16.3699 30.245 16.3699 30.3129C16.3699 30.3977 16.4378 30.3468 16.5226 30.2111C16.6074 30.0754 16.7092 30.0584 16.777 30.1602C16.8279 30.262 16.6244 30.4316 16.2851 30.5334C15.9628 30.6352 15.6914 30.8048 15.6914 30.8896C15.6914 30.9914 15.8271 30.9744 16.0307 30.8726C16.3021 30.7369 16.3699 30.7369 16.3699 30.9405C16.3699 31.0762 16.5056 31.2119 16.6753 31.2628C16.8958 31.3137 16.8619 31.3646 16.5056 31.5172C16.2342 31.619 16.0307 31.7886 16.0307 31.8735C16.0307 32.1449 16.3699 32.2636 16.6074 32.077C16.8449 31.8904 17.0484 31.9922 17.0484 32.2975C17.0484 32.3993 16.9636 32.3654 16.8788 32.2297C16.7431 32.0092 16.7092 32.0261 16.7092 32.2806C16.7092 32.535 16.794 32.5689 17.2181 32.4841C17.6422 32.3993 17.71 32.4163 17.6252 32.6368C17.5743 32.7895 17.4556 32.9082 17.3707 32.9082C17.269 32.9082 17.2859 33.0778 17.4047 33.2644C17.5064 33.468 17.6422 33.5698 17.71 33.4849C17.8796 33.2475 19.084 33.2475 18.9822 33.4849C18.9483 33.5867 19.0501 33.8412 19.2197 34.0108C19.525 34.367 19.525 34.9438 19.1858 35.1473C19.084 35.2152 18.7108 35.2321 18.3716 35.1812C17.9814 35.1473 17.727 35.1812 17.727 35.283C17.727 35.3848 17.8118 35.4187 17.8966 35.3678C18.2019 35.1812 18.0832 35.4357 17.693 35.7919L17.3029 36.1651L17.727 36.0972C18.4733 35.9955 18.3546 36.5552 17.5573 36.8775C16.6074 37.2507 16.6753 37.7087 17.71 37.7596C18.5242 37.7935 19.1349 38.1667 18.3885 38.1667C17.9814 38.1667 17.2181 38.7095 17.2181 38.9979C17.2181 39.0658 16.9467 39.2693 16.6244 39.439C16.3021 39.6255 16.0816 39.7952 16.1324 39.8461C16.319 40.0327 16.777 39.9987 17.1672 39.7443C17.4047 39.5916 17.7439 39.5238 18.0323 39.5747C18.3885 39.6425 18.5921 39.5747 18.7956 39.3541C19.0162 39.0827 19.2536 39.0488 20.2545 39.0997C20.916 39.1336 21.4588 39.0997 21.4588 39.0149C21.4588 38.947 21.7811 38.8961 22.1882 38.9131C22.9346 38.964 24.3425 38.4721 24.3425 38.1837C24.3425 38.0819 24.2238 37.9971 24.0881 37.9971C23.7658 37.9971 23.7488 37.5561 24.0711 37.4373C24.5461 37.2507 24.8854 36.5213 24.6988 36.1481C24.4613 35.7241 23.5792 35.5205 23.1891 35.8258C22.9346 36.0124 22.9176 36.0124 23.1212 35.7749C23.2908 35.5544 23.2908 35.4018 23.1212 35.0116C23.0194 34.7402 22.9176 34.4349 22.9176 34.3501C22.9007 34.1295 22.4257 33.6715 21.9847 33.4171C21.7981 33.3153 21.5776 33.0269 21.5267 32.7725C21.357 32.1279 20.916 31.5681 20.5768 31.5512C20.1696 31.5512 20.1866 31.0083 20.6107 30.703C20.7973 30.5673 20.9499 30.3637 20.9499 30.262C20.9499 30.1432 21.0687 29.9227 21.2213 29.787C21.6285 29.3629 21.3401 29.1763 20.2714 29.1763C19.7286 29.1763 19.2197 29.0915 19.1688 29.0067C19.1179 28.9049 19.1519 28.8371 19.2536 28.8371C19.3724 28.8371 19.6438 28.6844 19.8813 28.4978C20.1187 28.3112 20.2545 28.1586 20.1866 28.1586C20.1018 28.1586 20.2036 27.9889 20.3902 27.7684C20.5768 27.5648 20.7803 27.3104 20.8312 27.2086C20.9839 26.9542 20.1866 26.9542 19.9491 27.1917ZM16.7092 29.5156C16.7092 29.6004 16.6244 29.6852 16.5226 29.6852C16.4378 29.6852 16.4039 29.6004 16.4547 29.5156C16.5056 29.4138 16.5904 29.346 16.6413 29.346C16.6753 29.346 16.7092 29.4138 16.7092 29.5156Z" fill="black"/>
<path d="M14.3852 32.535C13.9781 32.6707 13.1808 33.5867 13.4862 33.5867C13.5879 33.5867 13.6219 33.6715 13.571 33.7563C13.5201 33.8581 13.1299 33.8921 12.7059 33.8581C12.1122 33.7903 11.9256 33.8412 11.7899 34.0956C11.6711 34.3161 11.6881 34.4349 11.8408 34.4858C11.9934 34.5536 11.9934 34.6045 11.8408 34.7911C11.5185 35.1134 11.5693 35.2321 12.0443 35.3509C12.638 35.5035 12.5702 35.7919 11.7899 36.3686C11.1622 36.8436 10.8739 37.4882 11.2979 37.4882C11.3828 37.4882 11.4167 37.573 11.3488 37.6918C11.264 37.8275 11.3149 37.8444 11.5015 37.7766C11.6711 37.7257 11.7899 37.7427 11.7899 37.8444C11.7899 38.1328 13.096 37.8444 13.9611 37.3864C14.3852 37.1659 14.9619 36.9793 15.2673 36.9793C15.7422 36.9793 15.8271 36.9115 15.9967 36.3178C16.1154 35.9615 16.2002 35.3678 16.2002 34.9946C16.2002 34.4349 16.2681 34.2822 16.6243 34.1295C17.1162 33.909 17.1671 33.4849 16.7431 32.976C16.4038 32.5859 15.0637 32.3315 14.3852 32.535Z" fill="black"/>
<path d="M33.0955 50.0748C33.0277 50.2275 32.7902 50.3971 32.5697 50.448C32.3492 50.4989 32.1456 50.6855 32.1117 50.8551C32.0099 51.2962 32.2643 52.0934 32.5866 52.3309C32.8581 52.5175 32.8411 52.5684 32.417 52.8398C32.0608 53.0773 31.9251 53.1112 31.8233 52.9416C31.7215 52.7889 31.6537 52.8228 31.6028 53.0434C31.5519 53.23 31.6198 53.5183 31.7385 53.688C31.8742 53.8576 31.942 54.1629 31.8912 54.3495C31.6367 55.6896 31.6367 55.7914 32.0099 55.9949C32.3152 56.1476 32.417 56.1306 32.5866 55.8931C32.7054 55.7235 32.9259 55.6387 33.0616 55.6896C33.3839 55.8253 33.4857 55.503 33.5366 54.0611C33.5875 53.0942 33.5366 52.8568 33.2821 52.6702C33.0107 52.4666 32.9938 52.3648 33.1634 51.7881C33.3839 51.0757 33.333 49.5829 33.0955 50.0748Z" fill="black"/>
<path d="M50.4146 60.6767C50.3468 60.7275 50.2959 60.9141 50.2959 61.0668C50.2959 61.2873 50.4995 61.3891 51.0083 61.4739C51.3985 61.5418 51.7717 61.6605 51.8226 61.7623C51.8904 61.8641 52.2806 61.8641 52.8403 61.7962C53.7055 61.6605 54.0278 61.44 53.5358 61.2704C53.3832 61.2195 53.3492 61.2704 53.4341 61.423C53.5358 61.5927 53.468 61.5757 53.2475 61.3891C53.0778 61.2364 52.552 61.1007 52.077 61.0838C51.619 61.0498 51.1949 60.965 51.178 60.8802C51.144 60.7954 51.0423 60.7784 50.9405 60.8293C50.8387 60.8972 50.72 60.8463 50.6521 60.7445C50.5843 60.6427 50.4825 60.6088 50.4146 60.6767Z" fill="black"/>
</svg>
