<svg width="119" height="142" viewBox="0 0 119 142" fill="none" xmlns="http://www.w3.org/2000/svg">
<path d="M45.6418 0.42976C44.8728 0.859489 43.7419 0.904724 43.1765 0.542846C43.0408 0.452377 42.8372 0.520229 42.7468 0.655933C42.6337 0.859489 42.4301 0.859489 41.9552 0.633316C41.4576 0.407142 41.2993 0.407142 41.2088 0.633316C41.1635 0.76902 40.96 0.904724 40.7338 0.904724C40.5303 0.904724 40.2136 1.04043 40.0779 1.17613C39.8517 1.4023 39.6934 1.4023 39.3542 1.17613C38.7435 0.814254 38.1102 0.836872 35.0569 1.33445C32.5011 1.76418 30.9857 2.28438 30.9857 2.75934C30.9857 2.87243 30.8274 2.94028 30.6465 2.87243C30.4655 2.78196 30.262 2.8272 30.1941 2.94028C30.1037 3.07599 29.9001 3.16646 29.7192 3.16646C29.5382 3.16646 29.1311 3.41525 28.8145 3.73189C28.4978 4.04853 28.136 4.29732 27.9776 4.31994C27.4122 4.36518 26.5754 4.25209 26.3944 4.09377C26.304 4.0033 25.6481 4.0033 24.9243 4.09377C23.4994 4.29732 22.6626 3.95806 22.459 3.14384C22.3233 2.69149 22.0067 2.60102 21.5769 2.89505C21.4412 2.98552 21.0794 3.6188 20.7853 4.29732C20.0163 6.12933 19.4961 6.74 18.0939 7.3959C16.7368 8.0518 15.3798 9.25052 15.3798 9.81595C15.3798 10.0195 15.1536 10.5171 14.8822 10.879C14.4751 11.4218 14.362 11.8741 14.362 13.005C14.362 13.8645 14.2489 14.5656 14.0906 14.7239C13.9323 14.8822 13.7966 15.131 13.7966 15.2667C13.7966 15.3798 13.4347 15.8095 12.9824 16.1714C12.53 16.5559 11.9646 17.0309 11.7158 17.2571C11.1956 17.732 9.90639 18.3201 9.38619 18.3201C8.88861 18.3201 8.57197 18.6819 7.98392 19.9485C7.68989 20.5592 7.37325 21.0342 7.28278 21.0342C6.67211 21.0342 5.42816 22.8888 5.42816 23.8161C5.42816 24.3589 4.84011 25.2636 3.93542 26.1231C3.66401 26.3718 3.21166 27.1861 2.91764 27.9324C2.64623 28.6788 2.23912 29.4252 2.01294 29.5609C1.80939 29.7192 1.5606 30.2168 1.47013 30.6918C1.40227 31.1667 1.26657 31.8 1.19872 32.094C1.10825 32.4785 1.15348 32.5916 1.37966 32.5238C1.53798 32.4785 1.92247 32.6821 2.19388 32.9761C2.71408 33.5415 2.8724 34.1522 2.51052 34.1522C2.12603 34.1522 2.01294 35.2831 2.37482 35.8033C2.84978 36.4818 2.80455 38.4269 2.26173 39.8065C2.01294 40.4398 1.80939 41.2088 1.80939 41.5481C1.80939 42.2266 0.701137 44.1038 0.294025 44.1038C0.135704 44.1038 0 44.1943 0 44.33C0 44.4431 0.158321 44.5562 0.33926 44.5562C0.542816 44.5562 0.791607 44.8276 0.927311 45.1668C1.06301 45.5287 1.26657 45.9811 1.37966 46.1846C1.49274 46.4108 1.49274 46.6144 1.35704 46.7048C1.22134 46.7727 1.13087 47.3155 1.13087 47.9035C1.15348 48.7856 1.26657 49.0796 1.80939 49.6225C2.55576 50.3462 2.69146 50.7307 2.12603 50.5045C1.832 50.3915 1.78677 50.4593 1.92247 50.9117C2.17126 51.7033 2.32959 51.7937 2.82717 51.4092C3.14381 51.1604 3.18904 51.0247 3.00811 50.9569C2.66885 50.8438 2.60099 50.2105 2.91764 50.2105C3.03072 50.2105 3.23428 50.5045 3.36998 50.889C3.48307 51.2509 3.70924 51.5676 3.82233 51.5676C3.95803 51.5676 4.07112 51.7259 4.07112 51.9068C4.07112 52.0878 4.22944 52.2461 4.41038 52.2461C4.59132 52.2461 4.74964 52.3139 4.74964 52.427C4.74964 52.5175 5.26984 53.1281 5.88051 53.8067C6.60426 54.5983 7.01137 55.2316 7.03399 55.6161C7.05661 56.566 7.19231 57.0636 7.48634 57.2219C7.62204 57.3124 7.66728 57.5159 7.59942 57.6516C7.50896 57.7873 7.53157 57.9004 7.66728 57.9004C7.80298 57.9004 7.84822 58.0361 7.80298 58.1718C7.73513 58.3528 8.07439 58.6242 8.63982 58.873C9.58975 59.2574 10.3814 59.8907 13.0954 62.3334C15.8321 64.7987 16.5107 65.0022 18.5688 64.0071C20.7401 62.9667 24.1553 62.8762 26.0552 63.8035C26.304 63.9166 26.6885 63.8714 27.0729 63.6678C29.1537 62.6274 30.7143 61.9715 31.1667 61.9715C31.4381 61.9715 31.7321 61.8132 31.8 61.6549C31.9583 61.2252 33.7903 60.8407 35.8937 60.7954C37.2281 60.7502 37.59 60.818 37.9971 61.1799C38.5626 61.7001 39.3542 63.1476 39.3542 63.6452C39.3542 63.8261 39.5803 64.2106 39.8744 64.4594C40.2589 64.8439 40.5529 64.9118 41.1635 64.7987C41.5933 64.7308 42.3623 64.6178 42.8598 64.5725C43.3574 64.5047 44.0812 64.4368 44.4883 64.3916C45.0763 64.3011 45.2347 64.3916 45.3251 64.8213C45.393 65.0927 45.6644 65.4094 45.9132 65.4772C46.162 65.5451 46.3655 65.7486 46.3655 65.9069C46.3655 66.0879 46.5012 66.3367 46.6822 66.4724C47.1119 66.8343 46.9084 69.0281 46.3429 70.159C46.0489 70.7244 46.0037 71.0185 46.1846 71.0637C46.3429 71.1315 46.3882 71.3125 46.2524 71.6065C46.162 71.8327 46.0263 72.4886 45.981 73.054C45.868 74.0266 45.5739 74.5015 45.1894 74.2754C44.8954 74.0944 44.9859 74.7277 45.3251 75.4515C45.5061 75.8133 45.8227 76.5145 46.0489 77.0121C46.2751 77.5096 46.8405 78.2786 47.2702 78.7084C48.8761 80.269 50.889 83.2544 50.889 84.0913C50.889 84.3627 51.0021 84.6341 51.1152 84.7019C51.2509 84.7924 51.2961 84.9281 51.2283 85.0412C51.1604 85.1543 51.3413 85.7876 51.658 86.4435C51.952 87.0994 52.3817 88.185 52.6305 88.8409C53.0376 90.017 53.0376 90.0623 52.6079 90.3563C52.2008 90.6729 52.2008 90.7408 52.9246 92.5502C53.4221 93.8167 53.6483 94.7667 53.6257 95.4452C53.5805 96.6213 53.2186 97.7069 52.8341 97.7069C52.4044 97.7295 51.364 99.6068 51.2056 100.67C51.0247 102.027 50.4367 104.04 50.2557 104.04C49.9617 104.04 50.0974 108.201 50.414 108.948C50.5724 109.355 50.7985 109.694 50.8664 109.694C51.0926 109.694 52.0651 111.707 53.0376 114.104C53.2412 114.602 53.6709 115.462 54.0102 116.027C54.4852 116.841 54.6209 117.361 54.6435 118.628C54.6661 119.487 54.7792 120.709 54.9149 121.342C55.0506 121.953 55.322 123.378 55.5256 124.486C55.9553 126.815 56.2719 127.539 57.448 128.828C57.9908 129.416 58.4658 130.298 58.8051 131.316C59.3479 132.99 60.0943 134.618 60.4109 134.822C60.524 134.89 60.6823 135.41 60.7502 135.998C60.8859 136.88 60.8406 137.061 60.5466 137.061C60.3657 137.061 60.1621 137.197 60.0943 137.332C60.0038 137.649 60.3657 138.418 60.7049 138.667C60.818 138.757 60.8632 139.074 60.7954 139.391C60.6371 140.16 60.9763 140.702 61.293 140.228C61.4287 140.001 61.5191 139.979 61.5191 140.16C61.5191 140.318 61.6549 140.454 61.8132 140.454C61.9941 140.454 62.3108 140.657 62.5369 140.906C63.0345 141.471 63.4869 141.471 64.0523 140.974C64.3237 140.725 64.8213 140.589 65.4093 140.612C65.9295 140.635 66.5628 140.499 66.8795 140.295C67.5354 139.866 69.1638 139.753 70.4078 140.047C70.9958 140.182 71.3803 140.182 71.5839 140.001C71.7648 139.866 72.1267 139.775 72.4207 139.82C72.7147 139.866 72.9183 139.775 72.8957 139.639C72.8731 139.481 73.2802 139.323 73.823 139.278C75.0217 139.142 77.306 137.649 78.5952 136.202C78.844 135.908 79.4321 135.297 79.9297 134.845C80.7665 134.03 82.3271 131.814 82.3271 131.429C82.3271 131.135 83.8425 129.597 84.1365 129.597C84.3853 129.597 84.7924 128.761 85.3578 126.996C85.7649 125.73 85.8554 124.056 85.4935 124.282C85.0864 124.531 85.2674 123.988 85.7875 123.378C86.059 123.061 87.0089 122.518 87.8683 122.156C89.0218 121.704 89.5873 121.319 89.9718 120.777C90.2884 120.302 90.4015 119.94 90.2658 119.804C90.1301 119.668 90.1301 119.374 90.2884 118.99C90.5824 118.266 90.5372 116.457 90.2432 116.163C90.1075 116.027 90.017 115.823 90.017 115.71C90.017 115.575 90.1301 115.62 90.2432 115.801C90.4241 116.072 90.4693 116.05 90.4693 115.62C90.4693 115.348 90.3563 115.145 90.1979 115.168C90.0396 115.213 89.9265 114.919 89.9039 114.444C89.8813 114.014 89.7456 113.63 89.5873 113.584C89.4516 113.539 89.3385 113.268 89.3385 112.996C89.3385 112.408 91.374 110.146 91.9168 110.146C92.1204 110.146 92.2787 110.056 92.2787 109.966C92.2787 109.875 92.4597 109.536 92.6858 109.242C93.5001 108.134 94.3369 107.478 95.6035 106.957C96.3272 106.686 96.9605 106.369 97.0284 106.302C97.0962 106.211 97.2998 106.053 97.5033 105.94C98.0914 105.623 99.6067 103.565 99.9234 102.637C100.15 101.982 100.15 101.574 99.9686 100.828C99.8103 100.285 99.7198 98.589 99.7424 96.9153C99.8103 93.1382 99.8329 93.2965 99.2222 93.0251C98.7925 92.8216 98.589 92.4371 98.3176 91.2157C97.82 89.248 97.8426 88.954 98.3854 88.8183C98.6342 88.7505 98.8378 88.5695 98.8378 88.4338C98.8378 88.2755 98.6794 88.2076 98.4985 88.2981C98.0461 88.4564 97.7747 87.8231 98.0914 87.3256C98.2723 87.0315 98.1818 86.7601 97.6843 86.1495C97.3224 85.7423 97.0284 85.2221 97.0284 85.0412C97.0284 84.5662 97.7747 82.4628 98.0009 82.3045C98.2271 82.1462 99.2675 79.7488 99.4484 78.9798C99.5163 78.7084 99.7877 78.3691 100.036 78.2334C100.738 77.8489 101.914 76.5823 102.366 75.7455C103.339 73.823 106.392 70.5435 108.247 69.3674C109.468 68.5984 113.064 64.663 113.087 64.0749C113.087 63.9845 113.449 63.3286 113.878 62.65C114.308 61.9715 114.67 61.2478 114.67 61.0216C114.67 60.5693 116.05 57.6064 116.321 57.4933C116.411 57.4481 116.479 57.3124 116.479 57.1767C116.479 57.0636 116.728 56.4529 117.045 55.8196C117.361 55.2089 117.61 54.3495 117.61 53.8971C117.61 53.3091 117.723 53.0829 118.062 52.9924C118.537 52.8567 118.673 52.5627 118.289 52.427C118.085 52.3592 117.972 51.1604 118.108 50.3462C118.221 49.7129 117.271 49.4415 116.773 49.9617C116.276 50.4593 114.331 51.1378 113.856 50.9569C113.675 50.889 113.268 50.9569 112.974 51.1152C112.68 51.2735 112.205 51.3414 111.933 51.2735C111.639 51.1831 111.209 51.3188 110.825 51.6128C110.373 51.9294 109.965 52.0425 109.445 51.9747C108.948 51.9068 108.45 51.9973 107.998 52.2687C106.822 52.9924 105.962 52.6984 105.058 51.2735C104.831 50.9343 104.424 50.595 104.108 50.5272L103.565 50.3915L104.085 50.12C104.944 49.6903 104.854 49.0344 103.768 47.9035C103.226 47.3381 102.637 46.6596 102.457 46.3882C102.276 46.1394 102.027 45.9132 101.891 45.9132C101.778 45.9132 101.484 45.5966 101.28 45.2347C101.054 44.8502 100.715 44.4883 100.489 44.3979C100.263 44.3074 99.946 44.1038 99.7877 43.9455C99.6294 43.8098 99.358 43.7193 99.1996 43.7872C98.9961 43.855 98.8604 43.6967 98.7925 43.3348C98.702 42.9277 98.7699 42.7468 98.9961 42.7468C99.2675 42.7468 99.2675 42.7016 98.9735 42.4075C98.5437 41.9552 98.4533 41.9778 98.2949 42.5659C98.1592 43.0861 98.1366 43.0861 97.82 42.6337C97.6164 42.3849 97.3676 41.7742 97.2545 41.2767C96.6213 38.6757 96.3046 38.0198 95.1964 37.1603C93.9298 36.1651 93.6131 35.4414 93.5453 33.2475C93.5001 32.3881 93.3417 31.5286 93.206 31.3477C93.0477 31.1441 92.8894 30.737 92.8668 30.4203C92.8668 30.1037 92.7989 29.8549 92.7311 29.8549C92.6632 29.8549 92.1883 29.4704 91.6454 28.9955C90.5824 28.0455 89.9491 26.4623 90.6503 26.4623C90.8991 26.4623 90.8312 26.304 90.4015 25.9195C90.0848 25.6255 89.542 24.7886 89.1575 24.0649C88.7957 23.3185 88.2755 22.346 88.004 21.871C87.7553 21.396 87.5291 20.8984 87.5291 20.7401C87.5291 20.5818 87.3481 20.1973 87.1446 19.9033C86.9184 19.5866 86.7149 19.1569 86.6922 18.9307C86.647 18.6819 86.2625 18.0939 85.8328 17.5737C85.4031 17.0761 85.0412 16.4202 85.0412 16.1488C85.0412 15.8548 84.9507 15.5834 84.8376 15.4929C84.7019 15.4251 84.5436 14.6561 84.4531 13.7966C84.3853 12.9371 84.1817 12.0551 84.0234 11.8289C83.4353 11.0373 80.7439 11.3087 79.7487 12.2586C79.4773 12.5074 79.0928 12.6431 78.8214 12.5753C78.5726 12.53 77.9167 12.3491 77.3513 12.236C76.7859 12.1003 76.1299 11.8967 75.8812 11.7837C75.0669 11.4218 73.5516 11.1278 72.9861 11.2408C72.5564 11.3313 72.3755 11.2408 72.2624 10.879C72.1493 10.5171 71.9231 10.404 71.4029 10.404C70.1816 10.404 69.0507 9.97427 68.915 9.49931C68.8472 9.2279 68.5984 9.04696 68.3496 9.04696C68.0782 9.04696 67.8068 8.93388 67.7389 8.82079C67.3997 8.27797 65.251 8.77556 64.2332 9.63501C63.5321 10.2457 63.3285 11.2635 63.7583 11.9646C64.1201 12.5527 63.2154 13.774 62.4012 13.7966C62.2203 13.7966 61.6549 13.5026 61.1573 13.1633C60.23 12.4848 58.8051 11.9872 57.8778 11.9872C57.0862 11.9872 56.385 11.4218 56.2041 10.6076C56.091 10.1552 55.8422 9.83857 55.4577 9.68025C55.1184 9.54455 54.553 9.29575 54.1911 9.0922C53.784 8.88864 53.015 8.75294 52.3365 8.77556C51.5901 8.79817 50.8438 8.63985 50.2331 8.36844C49.3284 7.9161 48.7177 7.21496 49.0118 6.92093C49.0796 6.85308 48.9891 6.78523 48.7856 6.78523C48.582 6.78523 48.4011 6.8757 48.4011 7.0114C48.4011 7.3959 47.7452 7.26019 47.4964 6.80785C47.3155 6.44597 47.4059 6.26503 47.9487 5.79007C48.3332 5.47343 48.7856 5.26987 48.9665 5.33772C49.1475 5.42819 49.3058 5.36034 49.3058 5.20202C49.3058 5.06631 49.1927 5.02108 49.0796 5.08893C48.9213 5.1794 48.8987 4.93061 48.9891 4.34256C49.1022 3.57357 49.057 3.39263 48.6499 3.18907C48.0845 2.87243 48.0392 2.37485 48.5368 1.87727C48.7177 1.67371 48.8308 1.37969 48.763 1.19875C48.6951 1.01781 48.7404 0.949958 48.8534 1.01781C48.9891 1.08566 49.0796 1.06304 49.0796 0.949958C49.0796 0.520229 48.763 0.474994 48.3559 0.836872C47.9487 1.19875 47.9261 1.19875 47.813 0.746402C47.7 0.361908 47.1571 0.0226475 46.5917 3.01868e-05C46.5239 3.01868e-05 46.0941 0.203586 45.6418 0.42976ZM88.7957 73.4611C88.9766 73.7099 88.9992 73.9361 88.8409 74.117C88.7278 74.2754 88.6826 74.4789 88.7504 74.592C88.8861 74.8408 88.4112 75.9943 88.1624 75.9943C88.0493 75.9943 87.9814 76.1074 87.9814 76.2431C87.9814 76.4014 87.8005 76.6502 87.5969 76.8085C87.2124 77.1025 87.2124 77.1478 87.5969 77.4418C88.1624 77.8941 87.8231 78.0298 86.6244 77.8037C86.0137 77.6906 85.4935 77.7132 85.3352 77.8263C84.9055 78.1882 84.7924 77.6906 84.9281 76.0621C85.1543 73.6421 85.1769 73.5742 86.1042 73.2802C86.5792 73.1219 87.0541 72.9183 87.1672 72.8278C87.416 72.5791 88.4338 72.9636 88.7957 73.4611ZM80.9701 82.1462C80.9701 82.4854 81.0831 82.8247 81.2188 82.8926C81.3546 82.983 81.3998 83.2092 81.3319 83.3901C81.2641 83.5711 81.3093 83.933 81.445 84.2044C81.6486 84.5662 81.6486 84.7019 81.445 84.7698C80.9927 84.9281 81.1736 85.7197 81.739 85.9233C82.2819 86.1495 82.5533 86.6018 82.5533 87.3256C82.5533 87.5743 82.8021 88.2755 83.1187 88.8862C83.8198 90.2658 83.8198 90.2884 83.1187 89.9718C82.7568 89.8135 82.5759 89.5873 82.6664 89.3837C82.7342 89.2254 82.6211 88.8635 82.4402 88.5921C82.2592 88.3207 82.1009 87.9588 82.1009 87.8005C82.1009 87.6196 81.8069 87.122 81.4224 86.6923C81.0605 86.2852 80.7213 85.765 80.6986 85.5388C80.6986 85.3352 80.6534 84.8377 80.6082 84.4758C80.5629 84.0913 80.4951 82.983 80.4499 81.9879C80.382 80.3594 80.4046 80.2463 80.6534 80.857C80.8117 81.2189 80.9474 81.8069 80.9701 82.1462ZM89.1123 92.5049C89.248 92.7537 89.3837 93.4322 89.4289 93.9751C89.4516 94.5405 89.6099 95.1285 89.7456 95.2642C90.0848 95.6035 90.1075 96.5082 89.7908 96.6891C89.4742 96.8927 89.6551 100.037 89.9944 100.15C90.1301 100.195 90.2432 100.331 90.2432 100.444C90.2432 100.579 90.1527 100.602 90.017 100.534C89.9039 100.466 89.7908 100.511 89.7908 100.625C89.7908 100.76 89.6777 100.873 89.542 100.873C89.4063 100.873 89.3611 100.67 89.4516 100.421C89.542 100.15 89.4968 99.8329 89.3837 99.6746C89.1575 99.3806 88.8183 97.6391 88.8635 96.9153C89.0218 94.2238 88.9766 93.4549 88.7278 92.9573C88.5695 92.6406 88.4338 92.324 88.4338 92.2109C88.4338 91.8716 88.8861 92.0752 89.1123 92.5049Z" fill="black"/>
<path d="M114.218 97.0737C114.037 97.3677 113.878 97.9331 113.833 98.3629C113.765 99.3128 113.629 99.4485 113.087 99.1092C112.725 98.8831 112.634 98.8831 112.634 99.1545C112.634 99.3354 112.77 99.539 112.928 99.6068C113.064 99.6747 112.974 99.6747 112.702 99.6068C112.182 99.4937 112.091 99.6294 112.159 100.466C112.182 100.67 112.091 100.896 111.956 100.986C111.843 101.054 111.73 101.326 111.73 101.552C111.73 101.846 111.617 101.936 111.39 101.869C111.187 101.778 111.051 101.869 111.051 102.072C111.051 102.524 109.445 103.655 108.224 104.062C107.726 104.221 107.229 104.447 107.116 104.537C106.98 104.628 106.663 104.718 106.369 104.718C105.962 104.718 105.849 104.831 105.849 105.329C105.849 105.691 105.646 106.256 105.419 106.618C104.967 107.297 104.967 107.84 105.419 110.441C105.691 111.956 105.691 112.001 105.035 113.268C104.673 113.969 104.289 114.625 104.198 114.693C103.406 115.258 103.112 117.316 103.678 118.379C103.859 118.741 103.949 119.374 103.881 119.962C103.814 120.55 103.859 121.003 104.017 121.093C104.153 121.184 104.266 121.433 104.266 121.659C104.266 122.156 104.944 122.812 105.465 122.812C105.668 122.812 105.849 122.903 105.849 123.038C105.849 123.378 107.025 123.287 107.523 122.925C107.772 122.744 108.247 122.586 108.586 122.586C109.264 122.586 110.146 121.681 110.146 121.025C110.146 120.822 110.282 120.46 110.463 120.211C110.621 119.962 110.893 119.193 111.051 118.515C111.232 117.836 111.549 116.909 111.752 116.457C111.978 116.004 112.295 115.145 112.431 114.534C112.589 113.924 113.087 112.453 113.562 111.232C114.037 110.033 114.489 108.654 114.557 108.179C114.828 106.55 114.896 106.302 115.19 106.369C115.461 106.415 115.484 106.211 115.213 104.492L115.054 103.474L115.507 104.017L115.959 104.583L116.344 103.859C116.615 103.316 116.66 103.022 116.479 102.705C116.366 102.457 116.253 101.801 116.253 101.258C116.253 100.715 116.14 99.9235 116.004 99.4937C115.688 98.4986 114.806 96.5987 114.67 96.5761C114.602 96.5761 114.398 96.8023 114.218 97.0737Z" fill="black"/>
</svg>
