<svg fill="none" xmlns="http://www.w3.org/2000/svg" viewBox="0 0 40 40">
  <g filter="url(#a)" transform="matrix(1 0 0 -1 0 40)">
    <circle cx="20" cy="20" r="20" fill="url(#b)" fill-opacity=".24"/>
    <circle cx="20" cy="20" r="19.5" stroke="url(#c)"/>
  </g>
  <path d="M12.7 20.7c.183.183.417.28.7.288a.91.91 0 0 0 .7-.263l4.9-4.9V27c0 .283.096.521.288.713A.967.967 0 0 0 20 28a.97.97 0 0 0 .713-.287A.97.97 0 0 0 21 27V15.825l4.9 4.9a.91.91 0 0 0 .7.263.994.994 0 0 0 .7-.288.948.948 0 0 0 .275-.7.948.948 0 0 0-.275-.7l-6.6-6.6a.682.682 0 0 0-.312-.213 1.232 1.232 0 0 0-.388-.062c-.133 0-.258.02-.375.062a.883.883 0 0 0-.325.213l-6.6 6.6a.948.948 0 0 0-.275.7c0 .283.092.517.275.7Z" fill="#10FFD4"/>
  <defs>
    <linearGradient id="b" x1="39.41" y1="37.611" x2="-3.989" y2="16.172" gradientUnits="userSpaceOnUse">
      <stop stop-color="#06F" stop-opacity=".9"/>
      <stop offset=".521" stop-color="#0085FF" stop-opacity=".79"/>
      <stop offset="1" stop-color="#00A3FF" stop-opacity=".86"/>
    </linearGradient>
    <linearGradient id="c" x1=".197" y1="-.619" x2="33.756" y2="17.455" gradientUnits="userSpaceOnUse">
      <stop stop-color="#9DE2FF" stop-opacity=".64"/>
      <stop offset="1" stop-color="#D9FFF8" stop-opacity="0"/>
    </linearGradient>
    <filter id="a" x="-32" y="-32" width="104" height="104" filterUnits="userSpaceOnUse" color-interpolation-filters="sRGB">
      <feFlood flood-opacity="0" result="BackgroundImageFix"/>
      <feGaussianBlur in="BackgroundImageFix" stdDeviation="16"/>
      <feComposite in2="SourceAlpha" operator="in" result="effect1_backgroundBlur_675_55"/>
      <feBlend in="SourceGraphic" in2="effect1_backgroundBlur_675_55" result="shape"/>
    </filter>
  </defs>
</svg>
