<svg xmlns="http://www.w3.org/2000/svg" fill="none" viewBox="0 0 12 12">
  <path fill="#10FFD4" fill-rule="evenodd" d="M0 5.97C0 9.3 2.7 12 6 12s5.97-2.67 6-5.94C12 2.7 9.33.03 6.03 0 2.7-.03.03 2.67 0 5.97Zm6.39.27.18-.96 1.59.24.12-.45-1.65-.24c.098-.308.183-.617.268-.923.095-.347.19-.691.302-1.027.09-.21.24-.42.39-.57.21-.21.48-.18.66.06.045.045.082.09.12.135.038.045.075.09.12.135.12.12.27.15.39.06.09-.09.09-.24.09-.36 0-.06-.06-.12-.09-.15-.18-.21-.45-.3-.72-.3-.63-.03-1.05.27-1.41.75-.36.48-.51 1.02-.66 1.56a2.67 2.67 0 0 0-.086.268c-.02.067-.039.137-.064.212l-1.77-.24-.06.48 1.71.27-.21.93-1.65-.24-.06.45 1.59.24v.12c-.125.6-.27 1.179-.42 1.771l-.09.36c-.09.33-.24.66-.51.9-.24.18-.48.15-.66-.09-.06-.12-.15-.24-.24-.33-.09-.03-.24-.06-.3-.03-.09.06-.15.21-.15.33 0 .09.09.21.18.27.27.21.63.24.96.18.57-.09.99-.45 1.23-.96.18-.39.33-.81.48-1.23.091-.22.15-.46.208-.704.037-.157.075-.314.122-.467l1.68.24.12-.45-1.71-.24Z" clip-rule="evenodd"/>
</svg>