<svg xmlns="http://www.w3.org/2000/svg" fill="none" viewBox="0 0 18 18">
  <path fill="#fff" d="m15.9 17.3-5.6-5.6A6.096 6.096 0 0 1 6.5 13c-1.817 0-3.354-.629-4.612-1.887C.629 9.854 0 8.317 0 6.5c0-1.817.63-3.354 1.888-4.613C3.146.629 4.683 0 6.5 0c1.817 0 3.354.629 4.613 1.887C12.371 3.146 13 4.683 13 6.5a6.096 6.096 0 0 1-1.3 3.8l5.625 5.625a.918.918 0 0 1 .275.675c0 .267-.1.5-.3.7a.948.948 0 0 1-.7.275.948.948 0 0 1-.7-.275ZM6.5 11c1.25 0 2.313-.437 3.188-1.312S11 7.75 11 6.5c0-1.25-.437-2.313-1.312-3.188S7.75 2 6.5 2c-1.25 0-2.313.437-3.188 1.312S2 5.25 2 6.5c0 1.25.437 2.313 1.312 3.188S5.25 11 6.5 11Z"/>
</svg>
