<svg xmlns="http://www.w3.org/2000/svg" fill="none" viewBox="0 0 12 9">
  <path fill="#10FFD4" d="M2.9 3.975a5.555 5.555 0 0 1 1.45-.744A5.078 5.078 0 0 1 6 2.963c.575 0 1.125.089 1.65.268.525.18 1.008.427 1.45.744l1.45-1.45A7.458 7.458 0 0 0 6 1a7.458 7.458 0 0 0-4.55 1.525l1.45 1.45ZM6 8.288a.55.55 0 0 1-.188-.032.436.436 0 0 1-.162-.106l-5.3-5.3a.465.465 0 0 1-.144-.357.466.466 0 0 1 .156-.343A8.166 8.166 0 0 1 2.982.544 8.489 8.489 0 0 1 6 0c1.058 0 2.068.181 3.03.544a8.023 8.023 0 0 1 2.607 1.606c.1.092.152.206.157.344a.466.466 0 0 1-.144.356l-5.3 5.3a.436.436 0 0 1-.163.106.55.55 0 0 1-.187.031Z"/>
</svg>