<svg width="48" height="48" viewBox="0 0 48 48" fill="none" xmlns="http://www.w3.org/2000/svg">
<g clip-path="url(#clip0_179_501)">
<path d="M8.79375 10.7437C8.35313 10.8469 8.63437 10.8281 8.26875 10.875C6.70312 11.2125 7.86563 11.5125 8.79375 10.7437ZM36.3281 11.3719C36.4406 11.2969 36.8344 10.9125 35.6062 10.5375C35.6812 10.9219 35.3531 10.8844 35.3531 11.1C36.2625 11.925 36.6375 13.3594 37.8 13.6594C38.025 12.6281 36.7687 12.1219 36.3281 11.3719ZM7.95938 10.4438C8.1 11.2781 8.72812 9.5625 8.7375 8.95312C8.49375 9.09375 8.25 9.23438 7.99688 9.34687C8.5875 9.64687 8.07188 9.96562 7.43438 10.4438C6.14063 12.0563 8.64375 9.1875 7.95938 10.4438ZM24 0C10.7438 0 0 10.7438 0 24C0 37.2469 10.7438 48 24 48C37.2562 48 48 37.2469 48 24C48 10.7438 37.2562 0 24 0ZM24.6375 8.04375L24.75 8.08125C24.3 8.6625 27.0938 10.3594 25.0875 10.5C23.2125 11.0344 25.875 10.0125 24.4219 10.1906C25.1906 9.12187 23.8125 9.10313 24.6375 8.04375ZM13.2562 9.58125C12.5812 9.01875 10.4625 10.35 11.2031 10.0312C13.0406 9.30937 11.325 10.1062 11.7563 10.9688C11.3625 11.7844 11.625 10.1625 10.65 11.1281C9.94687 11.2875 8.22188 12.8812 8.4375 12.3937C8.38125 13.1531 6.38437 14.0531 6.1125 15.3187C5.45625 17.0719 5.95312 15.2531 5.83125 14.5687C4.89375 13.3781 3.1875 16.5844 3.69375 17.85C4.54688 16.35 4.48125 17.6906 3.8625 18.3563C4.49062 19.5094 3.29062 21.0094 4.48125 21.8625C5.00625 21.9844 6.05625 20.1 5.59688 22.0594C5.91563 20.3625 6.47813 22.4625 7.3875 21.9938C7.44375 22.8844 7.99687 22.4719 8.11875 23.55C9.6375 23.4375 11.025 26.0063 9.21563 26.4938C9.4875 26.4188 10.0219 26.8969 10.6406 26.5312C11.6906 27.3656 14.4563 27.4688 14.5312 29.5312C12.6281 30.4406 14.0625 32.9344 12.4125 33.825C10.5187 33.5437 11.7656 36.1594 10.9688 35.8594C11.2875 37.7438 9.05625 35.6156 9.91875 36.6562C11.5031 37.6312 9.225 37.4344 9.9375 38.1469C9.14062 37.9781 10.4344 39.6281 10.65 40.2375C11.7937 42.0938 9.66563 39.825 9.0375 39.2063C8.4375 38.0063 7.02187 35.7094 6.62812 33.825C6.40312 31.0875 4.28438 29.25 3.79688 26.5781C3.30938 25.0875 5.1375 22.6969 4.15312 21.8625C3.3 21.1969 3.64687 18.9188 3.14062 17.7188C4.40625 12.2344 8.42812 7.6125 13.2562 4.875C12.7594 5.24062 16.0969 3.92812 15.7125 4.24687C15.6094 4.48125 17.6625 3.35625 18.9 3.1875C18.7688 3.20625 15.6844 4.3125 16.5375 4.1625C15.2156 4.80938 16.4062 4.44375 17.0625 4.11563C15.75 5.08125 14.7375 4.80938 13.2469 5.6625C11.7469 6.05625 12.0562 7.6125 10.9875 8.39062C11.6156 8.50313 13.1906 6.76875 14.1094 6.15937C16.2188 5.1375 13.0406 8.01562 15.0469 6.77813C14.3719 7.40625 14.5125 8.40937 14.1 8.69062C13.8937 8.63437 14.9156 9.17812 13.2562 9.58125ZM16.5375 5.26875C16.3219 5.55938 16.0219 6.1875 15.8438 5.80313C15.6 5.925 15.5063 6.45 15.0469 6.02813C15.3188 5.83125 15.6 5.3625 15.0656 5.65312C15.3094 5.39062 17.4844 4.65 17.3625 4.36875C17.7469 4.125 17.7094 4.00312 17.2687 4.15312C17.0437 4.07812 17.8031 3.44062 18.8156 3.35625C18.9562 3.35625 19.0125 3.45 18.7594 3.42188C17.2313 3.89062 17.8875 3.75938 18.9188 3.42188C18.525 3.64687 18.2531 3.7125 18.1875 3.81563C19.2188 3.44063 18.1312 4.0875 18.3656 4.04062C18.075 4.19062 18.4125 4.2375 17.85 4.45312C17.9531 4.36875 16.9313 5.0625 17.5406 4.85625C16.95 5.41875 16.6875 5.42812 16.5375 5.26875ZM17.4375 6.60938C17.4562 5.70937 18.75 5.1375 18.5906 5.09062C20.1844 4.34062 18.0375 5.11875 19.2938 4.44375C19.7625 4.39688 20.7563 2.89687 22.1344 2.80312C23.6531 2.34375 22.95 2.83125 24.075 2.4L23.85 2.5875C23.6531 2.61563 23.8969 2.9625 23.1844 3.4875C23.1094 4.30312 21.825 3.92813 22.4625 4.8C22.05 4.20937 21.4312 4.78125 22.2094 4.8375C21.375 5.475 19.4344 5.5875 18.5062 6.64688C17.9062 7.50938 17.3531 7.2375 17.4375 6.60938ZM24.1031 9.60938C23.4656 11.1469 22.8469 9.38437 23.9719 9.10312C24.2531 9.25313 24.3656 9.3 24.1031 9.60938ZM21.7031 6.53437C21.5156 5.84062 21.6656 6.20625 22.7812 5.87813C23.55 6.43125 22.0969 6.79687 21.7031 6.53437ZM39.1594 34.05C38.2781 32.5312 40.2281 31.125 40.8844 29.85C40.8 31.3406 40.6125 32.8125 39.1594 34.05ZM42.4781 16.6969C41.5219 16.7719 40.6594 16.9969 39.7969 16.4531C37.8094 14.2781 40.1625 18.9094 40.8187 17.0156C43.1812 17.9156 40.7812 21.7969 39.2906 21.3937C38.4562 19.5938 37.425 17.6156 35.6062 16.7344C37.0031 18.2812 37.6969 20.1844 39.1969 21.5812C39.3 23.5312 41.2781 20.8687 41.1562 22.3781C41.3438 24.975 38.2219 26.5312 38.7656 29.1375C39.9281 31.5094 36.525 31.9406 36.9094 34.0687C35.5406 35.5969 34.0781 37.6594 31.6219 37.3313C31.6219 36.0375 30.9656 34.9406 30.8156 33.6094C29.4844 31.9219 32.2219 30.1125 30.525 28.35C28.5656 27.9094 30.9281 25.2094 28.9125 25.4625C27.7031 24.2531 25.9313 25.425 24.1969 25.4344C22.0219 25.6406 19.7812 22.7625 20.7469 20.7281C19.9781 18.6094 23.1844 17.9906 23.2687 16.125C24.8062 14.8406 26.9906 15 29.0719 14.7C28.9219 16.1906 30.4969 16.2 31.6875 16.6969C32.3531 15.0844 34.425 16.9594 35.8406 15.9375C36.3281 13.5562 34.4625 14.9906 33.3938 14.2313C32.1 12.3375 36.1594 13.2563 35.7375 12.2625C34.1625 12.2531 35.0531 10.3219 33.9375 11.4C34.9406 11.5781 33.7594 12.3656 33.7875 11.4656C32.2687 11.025 33.7313 13.1906 32.9625 13.3969C31.7906 12.9094 32.3438 13.95 32.4656 14.1094C31.9594 15.2063 31.3406 12.4969 29.9062 12.5719C28.4813 11.2688 29.3438 13.1625 30.5813 13.4719C30.3188 13.5469 30.7312 14.625 30.4031 14.1656C29.3812 12.7594 27.4406 11.8219 26.2875 13.5469C26.1656 15.1594 22.8844 15.6187 23.4094 13.7344C22.6406 11.7844 25.7906 13.6781 25.5 12.1219C23.475 10.7812 26.0531 11.2125 26.7375 9.95625C28.2938 10.0031 26.8031 8.68125 27.5344 8.29688C27.4594 9.73125 28.725 9.45938 29.7281 9.1875C29.4844 8.3625 30.3281 8.39062 29.8125 7.70625C32.1375 6.77812 28.0406 8.1375 28.8656 6.10312C27.8625 5.40937 28.4437 7.63125 28.8656 7.86563C28.8937 8.55 28.3125 9.39375 27.5156 7.95938C26.3531 8.71875 26.475 7.19063 26.4 7.35C26.2688 6.75938 27.2812 6.73125 27.2906 5.7C27.2063 5.04375 27.225 4.69688 27.6937 4.65938C27.7312 4.75313 29.6156 4.78125 30.2812 5.55937C28.4625 5.19375 30.0094 5.85938 30.825 6.23438C29.9531 5.55 31.1719 6.23438 30.4594 5.45625C30.7406 5.5125 29.6813 4.3875 30.7688 5.37187C30.1781 4.66875 31.9219 4.875 30.8906 4.35C32.4 4.77188 31.5094 4.3875 30.6188 4.00313C28.1625 2.54063 34.9594 5.98125 32.1844 4.45312C33.9562 4.8375 28.3969 3.08437 30.9281 3.85312C29.9625 3.43125 30.9 3.66563 31.7719 3.9375C30.2062 3.45 27.8625 2.54063 27.9563 2.50313C28.5 2.54063 29.0344 2.6625 29.55 2.8125C31.1531 3.29063 29.0906 2.7 29.5312 2.70937C35.0438 4.125 39.8719 7.81875 42.8063 12.6469C43.4906 13.3687 45.3563 18.1406 44.3812 16.0219C44.8219 17.7094 44.8875 19.5281 45.1219 21.2531C44.6344 20.7094 44.0906 18.7031 43.6219 17.5875C43.425 18.0188 43.2 16.9781 42.4781 16.6969Z" fill="white"/>
</g>
<defs>
<clipPath id="clip0_179_501">
<rect width="48" height="48" fill="white"/>
</clipPath>
</defs>
</svg>
